<?xml version="1.0" encoding="utf-8"?>
<!-- Generator: Adobe Illustrator 28.0.0, SVG Export Plug-In . SVG Version: 6.00 Build 0)  -->
<svg version="1.1" id="图层_2" xmlns="http://www.w3.org/2000/svg" xmlns:xlink="http://www.w3.org/1999/xlink" x="0px" y="0px"
	 viewBox="0 0 1366 768" style="enable-background:new 0 0 1366 768;" xml:space="preserve">
<style type="text/css">
	.st0{fill:#4CA5F1;}
	.st1{fill:#2E6DCB;}
	.st2{enable-background:new    ;}
	.st3{fill:#FFC6A2;}
	.st4{fill:#F8F6E6;}
	.st5{fill:#FFEFDC;}
	.st6{fill:#F97565;}
	.st7{fill:#FFB776;}
	.st8{fill:#FFDEC7;}
	.st9{fill:#E2E2E2;}
	.st10{fill:#FFC7AA;}
	.st11{fill:#FFF1D5;}
	.st12{fill:#FFC7A8;}
	.st13{fill:#FFF5DC;}
	.st14{fill:#FF7562;}
	.st15{fill:#FFB56E;}
	.st16{fill:#FEF5DF;}
	.st17{fill:#FFC8A8;}
	.st18{fill:#FFF1DE;}
	.st19{fill:#BFE1FF;stroke:#FFFFFF;stroke-width:2.5128;stroke-miterlimit:10;}
	.st20{fill:#FFFFFF;}
	.st21{fill:#654D3C;}
	.st22{fill:#926F56;}
	.st23{fill:#A37C61;}
	.st24{opacity:0.22;}
	.st25{fill:none;stroke:#000000;stroke-width:2;stroke-miterlimit:10;}
	.st26{fill:#BFE1FF;stroke:#FFFFFF;stroke-width:6.4305;stroke-miterlimit:10;}
	.st27{fill:#BFE1FF;stroke:#FFFFFF;stroke-width:6.6495;stroke-miterlimit:10;}
	.st28{fill:#BFE1FF;stroke:#FFFFFF;stroke-width:3.7912;stroke-miterlimit:10;}
	.st29{fill:#BFE1FF;stroke:#FFFFFF;stroke-width:3.2237;stroke-miterlimit:10;}
	.st30{fill:#99C1F9;}
	.st31{fill:#2F6EC8;}
	.st32{fill:#D9DADB;}
	.st33{fill:#DCAC96;}
	.st34{fill:none;stroke:#F7931E;stroke-width:3.9035;stroke-linecap:round;stroke-miterlimit:10;}
	.st35{fill:#808080;}
	.st36{fill:#F7A456;}
	.st37{fill:#FCE1C6;}
	.st38{fill:#DCDCDC;}
	.st39{fill:#FFCE6E;}
	.st40{fill:#C5C5C5;}
	.st41{fill:#898989;}
	.st42{fill:#4B6F89;}
	.st43{fill:#6B9FC5;}
	.st44{fill:#78B2DC;}
</style>
<rect class="st0" width="1366" height="768"/>
<g>
	<path class="st1" d="M1081.49,515.11L864.5,641.21c-78.87,45.83-176.23,45.97-255.23,0.36l-151.08-87.22l415.83-241.65
		l207.36,119.72C1113.17,450.77,1113.24,496.65,1081.49,515.11z"/>
</g>
<g>
	<g class="st2">
		<g>
			<g>
				<polygon class="st3" points="666,589.99 665.89,631.19 485.87,738.09 485.99,696.89 				"/>
			</g>
		</g>
		<g>
			<polygon class="st4" points="485.99,696.89 485.87,738.09 290.8,623 290.91,581.8 			"/>
		</g>
		<g>
			<polygon class="st5" points="666,589.99 485.99,696.89 290.91,581.8 470.93,474.9 			"/>
		</g>
	</g>
</g>
<g>
	<g class="st2">
		<g>
			<g>
				<polygon class="st3" points="980.41,415.2 980.29,456.4 796.34,563.3 796.46,522.1 				"/>
			</g>
		</g>
		<g>
			<polygon class="st4" points="796.46,522.1 796.34,563.3 597,448.21 597.11,407.01 			"/>
		</g>
		<g>
			<polygon class="st5" points="980.41,415.2 796.46,522.1 597.11,407.01 781.07,300.11 			"/>
		</g>
	</g>
</g>
<g>
	<g class="st2">
		<g>
			<g>
				<polygon class="st6" points="936,228.52 935.45,423.71 504.52,674.14 505.08,478.94 				"/>
			</g>
		</g>
		<g>
			<g>
				<polygon class="st7" points="505.08,478.94 504.52,674.14 324.46,570.17 325.01,374.98 				"/>
			</g>
		</g>
		<g>
			<g>
				<polygon class="st8" points="936,228.52 505.08,478.94 325.01,374.98 755.93,124.55 				"/>
			</g>
		</g>
	</g>
</g>
<g>
	<g class="st2">
		<g>
			<g>
				<polygon class="st9" points="875.98,199.1 875.84,247.57 730.04,163.39 730.18,114.92 				"/>
			</g>
		</g>
		<g>
			<polygon class="st10" points="730.18,114.92 730.04,163.39 385.02,363.9 385.15,315.42 			"/>
		</g>
		<g>
			<polygon class="st11" points="531.24,448.32 531.1,496.79 300.92,363.9 301.06,315.42 			"/>
		</g>
		<g>
			<polygon class="st12" points="960.08,199.1 959.94,247.57 531.1,496.79 531.24,448.32 			"/>
		</g>
		<g>
			<path class="st13" d="M729.9,66.21L960.08,199.1L531.24,448.32L301.06,315.42L729.9,66.21z M530.96,399.6L875.98,199.1
				l-145.81-84.18L385.15,315.42L530.96,399.6"/>
		</g>
	</g>
</g>
<g>
	<g class="st2">
		<g>
			<polygon class="st14" points="818.42,110.61 818.07,235.24 712.35,296.68 712.7,172.05 			"/>
		</g>
		<g>
			<polygon class="st15" points="712.7,172.05 712.35,296.68 616.58,241.38 616.93,116.76 			"/>
		</g>
		<g>
			<polygon class="st16" points="818.42,110.61 712.7,172.05 616.93,116.76 722.65,55.32 			"/>
		</g>
	</g>
</g>
<g>
	<g class="st2">
		<g>
			<polygon class="st17" points="814.16,89.45 831,123 708.09,191.51 708.44,150.89 			"/>
		</g>
		<g>
			<polygon class="st18" points="708.44,150.89 708.09,191.51 603,122 612.67,95.6 			"/>
		</g>
		<g>
			<polygon class="st16" points="814.16,89.45 708.44,150.89 612.67,95.6 718.39,34.16 			"/>
		</g>
	</g>
</g>
<g>
	<polygon class="st19" points="852.76,384.75 834.42,397.24 834.42,354.42 852.76,341.94 	"/>
	<g>
		<g>
			<path class="st20" d="M847.22,350.84c-3.03,6.12-6.05,12.24-9.08,18.35c-0.66,1.33,1.34,2.51,2,1.17
				c3.03-6.12,6.05-12.24,9.08-18.35C849.88,350.68,847.88,349.5,847.22,350.84L847.22,350.84z"/>
		</g>
	</g>
	<g>
		<g>
			<path class="st20" d="M846.86,362.63c-3.2,6.45-6.41,12.9-9.61,19.35c-0.66,1.33,1.34,2.51,2,1.17c3.2-6.45,6.41-12.9,9.61-19.35
				C849.52,362.47,847.52,361.29,846.86,362.63L846.86,362.63z"/>
		</g>
	</g>
	<g>
		<g>
			<path class="st20" d="M846.5,375.05c-2.37,4.06-4.75,8.13-7.12,12.19c-0.75,1.29,1.25,2.46,2,1.17
				c2.37-4.06,4.75-8.13,7.12-12.19C849.26,374.93,847.26,373.76,846.5,375.05L846.5,375.05z"/>
		</g>
	</g>
</g>
<g>
	<polygon class="st19" points="872.25,371.38 853.91,383.86 853.91,341.04 872.25,328.56 	"/>
	<g>
		<g>
			<path class="st20" d="M866.71,337.47c-3.03,6.12-6.05,12.24-9.08,18.35c-0.66,1.33,1.34,2.51,2,1.17
				c3.03-6.12,6.05-12.24,9.08-18.35C869.37,337.31,867.37,336.13,866.71,337.47L866.71,337.47z"/>
		</g>
	</g>
	<g>
		<g>
			<path class="st20" d="M866.35,349.26c-3.2,6.45-6.41,12.9-9.61,19.35c-0.66,1.33,1.34,2.51,2,1.17c3.2-6.45,6.41-12.9,9.61-19.35
				C869.02,349.09,867.02,347.92,866.35,349.26L866.35,349.26z"/>
		</g>
	</g>
	<g>
		<g>
			<path class="st20" d="M866,361.67c-2.37,4.06-4.75,8.13-7.12,12.19c-0.75,1.29,1.25,2.46,2,1.17c2.37-4.06,4.75-8.13,7.12-12.19
				C868.75,361.55,866.75,360.38,866,361.67L866,361.67z"/>
		</g>
	</g>
</g>
<g>
	<g class="st2">
		<g>
			<polygon class="st21" points="895,385.1 894.98,393.23 854.57,418 854.59,409.87 			"/>
		</g>
		<g>
			<polygon class="st22" points="854.59,409.87 854.57,418 833,404.87 833.02,396.74 			"/>
		</g>
		<g>
			<polygon class="st23" points="895,385.1 854.59,409.87 833.02,396.74 873.43,371.97 			"/>
		</g>
	</g>
</g>
<g>
	<polygon class="st19" points="784.76,421.75 766.42,434.24 766.42,391.42 784.76,378.94 	"/>
	<g>
		<g>
			<path class="st20" d="M779.22,387.84c-3.03,6.12-6.05,12.24-9.08,18.35c-0.66,1.33,1.34,2.51,2,1.17
				c3.03-6.12,6.05-12.24,9.08-18.35C781.88,387.68,779.88,386.5,779.22,387.84L779.22,387.84z"/>
		</g>
	</g>
	<g>
		<g>
			<path class="st20" d="M778.86,399.63c-3.2,6.45-6.41,12.9-9.61,19.35c-0.66,1.33,1.34,2.51,2,1.17c3.2-6.45,6.41-12.9,9.61-19.35
				C781.52,399.47,779.52,398.29,778.86,399.63L778.86,399.63z"/>
		</g>
	</g>
	<g>
		<g>
			<path class="st20" d="M778.5,412.05c-2.37,4.06-4.75,8.13-7.12,12.19c-0.75,1.29,1.25,2.46,2,1.17
				c2.37-4.06,4.75-8.13,7.12-12.19C781.26,411.93,779.26,410.76,778.5,412.05L778.5,412.05z"/>
		</g>
	</g>
</g>
<g>
	<polygon class="st19" points="804.25,408.38 785.91,420.86 785.91,378.04 804.25,365.56 	"/>
	<g>
		<g>
			<path class="st20" d="M798.71,374.47c-3.03,6.12-6.05,12.24-9.08,18.35c-0.66,1.33,1.34,2.51,2,1.17
				c3.03-6.12,6.05-12.24,9.08-18.35C801.37,374.31,799.37,373.13,798.71,374.47L798.71,374.47z"/>
		</g>
	</g>
	<g>
		<g>
			<path class="st20" d="M798.35,386.26c-3.2,6.45-6.41,12.9-9.61,19.35c-0.66,1.33,1.34,2.51,2,1.17c3.2-6.45,6.41-12.9,9.61-19.35
				C801.02,386.09,799.02,384.92,798.35,386.26L798.35,386.26z"/>
		</g>
	</g>
	<g>
		<g>
			<path class="st20" d="M798,398.67c-2.37,4.06-4.75,8.13-7.12,12.19c-0.75,1.29,1.25,2.46,2,1.17c2.37-4.06,4.75-8.13,7.12-12.19
				C800.75,398.55,798.75,397.38,798,398.67L798,398.67z"/>
		</g>
	</g>
</g>
<g>
	<g class="st2">
		<g>
			<polygon class="st21" points="827,422.1 826.98,430.23 786.57,455 786.59,446.87 			"/>
		</g>
		<g>
			<polygon class="st22" points="786.59,446.87 786.57,455 765,441.87 765.02,433.74 			"/>
		</g>
		<g>
			<polygon class="st23" points="827,422.1 786.59,446.87 765.02,433.74 805.43,408.97 			"/>
		</g>
	</g>
</g>
<g class="st24">
	<line class="st25" x1="811" y1="100" x2="827" y2="134"/>
	<line class="st25" x1="795.86" y1="108.71" x2="809.43" y2="143.71"/>
	<line class="st25" x1="780.71" y1="117.43" x2="791.86" y2="153.43"/>
	<line class="st25" x1="765.57" y1="126.14" x2="774.29" y2="163.14"/>
	<line class="st25" x1="750.43" y1="134.86" x2="756.71" y2="172.86"/>
	<line class="st25" x1="735.29" y1="143.57" x2="739.14" y2="182.57"/>
	<line class="st25" x1="720.14" y1="152.29" x2="721.57" y2="192.29"/>
	<line class="st25" x1="705" y1="161" x2="704" y2="202"/>
	<line class="st25" x1="691.26" y1="153.2" x2="689" y2="192.14"/>
	<line class="st25" x1="677.52" y1="145.4" x2="674" y2="182.29"/>
	<line class="st25" x1="663.78" y1="137.6" x2="659" y2="172.43"/>
	<line class="st25" x1="650.04" y1="129.8" x2="644" y2="162.57"/>
	<line class="st25" x1="636.3" y1="122" x2="629" y2="152.71"/>
	<line class="st25" x1="622.55" y1="114.21" x2="614" y2="142.86"/>
	<line class="st25" x1="608.81" y1="106.41" x2="599" y2="133"/>
</g>
<g>
	<polygon class="st19" points="770.76,206.75 752.42,219.24 752.42,176.42 770.76,163.94 	"/>
	<g>
		<g>
			<path class="st20" d="M765.22,172.84c-3.03,6.12-6.05,12.24-9.08,18.35c-0.66,1.33,1.34,2.51,2,1.17
				c3.03-6.12,6.05-12.24,9.08-18.35C767.88,172.68,765.88,171.5,765.22,172.84L765.22,172.84z"/>
		</g>
	</g>
	<g>
		<g>
			<path class="st20" d="M764.86,184.63c-3.2,6.45-6.41,12.9-9.61,19.35c-0.66,1.33,1.34,2.51,2,1.17c3.2-6.45,6.41-12.9,9.61-19.35
				C767.52,184.47,765.52,183.29,764.86,184.63L764.86,184.63z"/>
		</g>
	</g>
	<g>
		<g>
			<path class="st20" d="M764.5,197.05c-2.37,4.06-4.75,8.13-7.12,12.19c-0.75,1.29,1.25,2.46,2,1.17
				c2.37-4.06,4.75-8.13,7.12-12.19C767.26,196.93,765.26,195.76,764.5,197.05L764.5,197.05z"/>
		</g>
	</g>
</g>
<g>
	<polygon class="st19" points="790.25,193.38 771.91,205.86 771.91,163.04 790.25,150.56 	"/>
	<g>
		<g>
			<path class="st20" d="M784.71,159.47c-3.03,6.12-6.05,12.24-9.08,18.35c-0.66,1.33,1.34,2.51,2,1.17
				c3.03-6.12,6.05-12.24,9.08-18.35C787.37,159.31,785.37,158.13,784.71,159.47L784.71,159.47z"/>
		</g>
	</g>
	<g>
		<g>
			<path class="st20" d="M784.35,171.26c-3.2,6.45-6.41,12.9-9.61,19.35c-0.66,1.33,1.34,2.51,2,1.17c3.2-6.45,6.41-12.9,9.61-19.35
				C787.02,171.09,785.02,169.92,784.35,171.26L784.35,171.26z"/>
		</g>
	</g>
	<g>
		<g>
			<path class="st20" d="M784,183.67c-2.37,4.06-4.75,8.13-7.12,12.19c-0.75,1.29,1.25,2.46,2,1.17c2.37-4.06,4.75-8.13,7.12-12.19
				C786.75,183.55,784.75,182.38,784,183.67L784,183.67z"/>
		</g>
	</g>
</g>
<g>
	<g class="st2">
		<g>
			<polygon class="st21" points="813,207.1 812.98,215.23 772.57,240 772.59,231.87 			"/>
		</g>
		<g>
			<polygon class="st22" points="772.59,231.87 772.57,240 751,226.87 751.02,218.74 			"/>
		</g>
		<g>
			<polygon class="st23" points="813,207.1 772.59,231.87 751.02,218.74 791.43,193.97 			"/>
		</g>
	</g>
</g>
<g>
	<g class="st2">
		<g>
			<polygon class="st21" points="349.35,520.66 349.37,530.87 396.08,562 396.05,551.79 			"/>
		</g>
		<g>
			<polygon class="st22" points="396.05,551.79 396.08,562 421,545.49 420.97,535.28 			"/>
		</g>
		<g>
			<polygon class="st23" points="349.35,520.66 396.05,551.79 420.97,535.28 374.27,504.15 			"/>
		</g>
	</g>
</g>
<g>
	<polygon class="st26" points="631.97,564.8 678.89,596.74 678.89,487.17 631.97,455.23 	"/>
	<g>
		<g>
			<path class="st20" d="M641.02,481.01c7.74,15.66,15.49,31.31,23.23,46.97c1.69,3.42,6.82,0.42,5.13-3
				c-7.74-15.66-15.49-31.31-23.23-46.97C644.45,474.59,639.33,477.6,641.02,481.01L641.02,481.01z"/>
		</g>
	</g>
	<g>
		<g>
			<path class="st20" d="M641.93,511.18c8.2,16.5,16.4,33.01,24.6,49.51c1.7,3.42,6.82,0.42,5.13-3c-8.2-16.5-16.4-33.01-24.6-49.51
				C645.36,504.76,640.23,507.76,641.93,511.18L641.93,511.18z"/>
		</g>
	</g>
	<g>
		<g>
			<path class="st20" d="M642.84,542.95c6.07,10.4,12.15,20.8,18.22,31.2c1.93,3.3,7.06,0.31,5.13-3
				c-6.07-10.4-12.15-20.8-18.22-31.2C646.04,536.66,640.91,539.64,642.84,542.95L642.84,542.95z"/>
		</g>
	</g>
</g>
<g>
	<polygon class="st27" points="736.5,524.5 687.5,553 687.5,443.05 737.5,411 	"/>
	<g>
		<g>
			<path class="st20" d="M720.97,434.82c-8.25,15.71-16.5,31.42-24.76,47.13c-1.84,3.49,3.46,6.6,5.3,3.1
				c8.25-15.71,16.5-31.42,24.76-47.13C728.11,434.43,722.81,431.32,720.97,434.82L720.97,434.82z"/>
		</g>
	</g>
	<g>
		<g>
			<path class="st20" d="M720,465.09c-8.74,16.56-17.48,33.12-26.21,49.68c-1.84,3.49,3.45,6.6,5.3,3.1
				c8.74-16.56,17.48-33.12,26.21-49.68C727.14,464.7,721.85,461.59,720,465.09L720,465.09z"/>
		</g>
	</g>
	<g>
		<g>
			<path class="st20" d="M719.03,496.97c-6.47,10.44-12.94,20.87-19.42,31.31c-2.09,3.37,3.22,6.45,5.3,3.1
				c6.47-10.44,12.95-20.87,19.42-31.31C726.42,496.7,721.11,493.62,719.03,496.97L719.03,496.97z"/>
		</g>
	</g>
</g>
<g>
	<polygon class="st28" points="661,254 637,240 636.56,168.58 662.46,185.29 	"/>
	<g>
		<g>
			<path class="st20" d="M654.81,190.23c-4.28,3.78-8.55,7.56-12.83,11.34c-1.69,1.49,0.79,3.96,2.47,2.47
				c4.28-3.78,8.55-7.56,12.83-11.34C658.98,191.21,656.49,188.75,654.81,190.23L654.81,190.23z"/>
		</g>
	</g>
	<g>
		<g>
			<path class="st20" d="M654.31,208.51c-4.53,3.96-9.05,7.91-13.58,11.87c-1.7,1.48,0.78,3.95,2.47,2.47
				c4.53-3.96,9.05-7.91,13.58-11.87C658.48,209.5,656,207.03,654.31,208.51L654.31,208.51z"/>
		</g>
	</g>
	<g>
		<g>
			<path class="st20" d="M654.16,227.53c-3.35,1.78-6.71,3.56-10.06,5.35c-1.99,1.06-0.22,4.08,1.77,3.02
				c3.35-1.78,6.71-3.56,10.06-5.35C657.92,229.49,656.15,226.47,654.16,227.53L654.16,227.53z"/>
		</g>
	</g>
</g>
<g>
	<polygon class="st28" points="689,270 663,255 664.1,186.18 690,202.89 	"/>
	<g>
		<g>
			<path class="st20" d="M682.35,207.83c-4.28,3.78-8.55,7.56-12.83,11.34c-1.69,1.49,0.79,3.96,2.47,2.47
				c4.28-3.78,8.55-7.56,12.83-11.34C686.52,208.81,684.03,206.34,682.35,207.83L682.35,207.83z"/>
		</g>
	</g>
	<g>
		<g>
			<path class="st20" d="M681.85,226.11c-4.53,3.96-9.05,7.91-13.58,11.87c-1.7,1.48,0.78,3.95,2.47,2.47
				c4.53-3.96,9.05-7.91,13.58-11.87C686.02,227.1,683.54,224.63,681.85,226.11L681.85,226.11z"/>
		</g>
	</g>
	<g>
		<g>
			<path class="st20" d="M681.7,245.12c-3.35,1.78-6.71,3.56-10.06,5.35c-1.99,1.06-0.22,4.08,1.77,3.02
				c3.35-1.78,6.71-3.56,10.06-5.35C685.45,247.09,683.69,244.07,681.7,245.12L681.7,245.12z"/>
		</g>
	</g>
</g>
<g>
	<polygon class="st29" points="395.58,517.46 373.56,503.25 373.56,444.58 395.58,458.79 	"/>
	<g>
		<g>
			<path class="st20" d="M389.08,462.99c-3.64,3.21-7.27,6.43-10.91,9.64c-1.44,1.27,0.67,3.37,2.1,2.1
				c3.64-3.21,7.27-6.43,10.91-9.64C392.62,463.83,390.51,461.73,389.08,462.99L389.08,462.99z"/>
		</g>
	</g>
	<g>
		<g>
			<path class="st20" d="M388.65,478.53c-3.85,3.36-7.7,6.73-11.55,10.09c-1.44,1.26,0.67,3.36,2.1,2.1
				c3.85-3.36,7.7-6.73,11.55-10.09C392.2,479.37,390.09,477.28,388.65,478.53L388.65,478.53z"/>
		</g>
	</g>
	<g>
		<g>
			<path class="st20" d="M388.53,494.7c-2.85,1.52-5.7,3.03-8.55,4.55c-1.69,0.9-0.19,3.47,1.5,2.57c2.85-1.52,5.7-3.03,8.55-4.55
				C391.72,496.37,390.22,493.8,388.53,494.7L388.53,494.7z"/>
		</g>
	</g>
</g>
<g>
	<polygon class="st29" points="419,532.42 396.97,518.21 396.97,459.54 419,473.75 	"/>
	<g>
		<g>
			<path class="st20" d="M412.5,477.96c-3.64,3.21-7.27,6.43-10.91,9.64c-1.44,1.27,0.67,3.37,2.1,2.1
				c3.64-3.21,7.27-6.43,10.91-9.64C416.04,478.79,413.93,476.69,412.5,477.96L412.5,477.96z"/>
		</g>
	</g>
	<g>
		<g>
			<path class="st20" d="M412.07,493.5c-3.85,3.36-7.7,6.73-11.55,10.09c-1.44,1.26,0.67,3.36,2.1,2.1
				c3.85-3.36,7.7-6.73,11.55-10.09C415.62,494.34,413.5,492.24,412.07,493.5L412.07,493.5z"/>
		</g>
	</g>
	<g>
		<g>
			<path class="st20" d="M411.94,509.67c-2.85,1.52-5.7,3.03-8.55,4.55c-1.69,0.9-0.19,3.47,1.5,2.57c2.85-1.52,5.7-3.03,8.55-4.55
				C415.13,511.34,413.63,508.77,411.94,509.67L411.94,509.67z"/>
		</g>
	</g>
</g>
<g>
	<g>
		<g class="st2">
			<g>
				<polygon class="st30" points="683,181.99 675.91,177.69 656.83,196.73 663.92,201.03 				"/>
			</g>
			<g>
				<path class="st31" d="M663.92,201.03l-7.09-4.3l0.04,3.7c0.01,1.13,0.72,2.26,1.85,2.94l0,0c2.36,1.43,5.23,0.27,5.21-2.1
					L663.92,201.03z"/>
			</g>
		</g>
	</g>
	<g>
		<g class="st2">
			<g>
				<polygon class="st20" points="675.98,177.6 668.89,173.3 649.81,192.34 656.9,196.64 				"/>
			</g>
			<g>
				<path class="st32" d="M656.9,196.64l-7.09-4.3l0.04,3.7c0.01,1.13,0.72,2.26,1.85,2.94l0,0c2.36,1.43,5.23,0.27,5.21-2.1
					L656.9,196.64z"/>
			</g>
		</g>
	</g>
	<g>
		<g class="st2">
			<g>
				<polygon class="st30" points="697,189.99 689.91,185.69 670.83,204.73 677.92,209.03 				"/>
			</g>
			<g>
				<path class="st31" d="M677.92,209.03l-7.09-4.3l0.04,3.7c0.01,1.13,0.72,2.26,1.85,2.94l0,0c2.36,1.43,5.23,0.27,5.21-2.1
					L677.92,209.03z"/>
			</g>
		</g>
	</g>
	<g>
		<g class="st2">
			<g>
				<polygon class="st20" points="689.98,185.6 682.89,181.3 663.81,200.34 670.9,204.64 				"/>
			</g>
			<g>
				<path class="st32" d="M670.9,204.64l-7.09-4.3l0.04,3.7c0.01,1.13,0.72,2.26,1.85,2.94l0,0c2.36,1.43,5.23,0.27,5.21-2.1
					L670.9,204.64z"/>
			</g>
		</g>
	</g>
	<g>
		<g class="st2">
			<g>
				<polygon class="st30" points="669.28,173.29 662.27,168.78 642.81,187.26 649.81,191.77 				"/>
			</g>
			<g>
				<path class="st31" d="M649.81,191.77l-7-4.51l-0.03,3.7c-0.01,1.13,0.67,2.28,1.79,3l0,0c2.33,1.5,5.23,0.43,5.25-1.95
					L649.81,191.77z"/>
			</g>
		</g>
	</g>
	<g>
		<g class="st2">
			<g>
				<polygon class="st20" points="662.35,168.69 655.35,164.19 635.88,182.67 642.89,187.18 				"/>
			</g>
			<g>
				<path class="st32" d="M642.89,187.18l-7-4.51l-0.03,3.7c-0.01,1.13,0.67,2.28,1.79,3l0,0c2.33,1.5,5.23,0.43,5.25-1.95
					L642.89,187.18z"/>
			</g>
		</g>
	</g>
	<g>
		<g class="st2">
			<g>
				<polygon class="st30" points="655.43,164.1 648.42,159.59 628.96,178.08 635.96,182.58 				"/>
			</g>
			<g>
				<path class="st31" d="M635.96,182.58l-7-4.51l-0.03,3.7c-0.01,1.13,0.67,2.28,1.79,3h0c2.33,1.5,5.23,0.43,5.25-1.95
					L635.96,182.58z"/>
			</g>
		</g>
	</g>
	<g>
		<g class="st2">
			<g>
				<polygon class="st20" points="648.5,159.51 641.5,155 622.03,173.48 629.04,177.99 				"/>
			</g>
			<g>
				<path class="st32" d="M629.04,177.99l-7-4.51l-0.03,3.7c-0.01,1.13,0.67,2.28,1.79,3l0,0c2.33,1.5,5.23,0.43,5.25-1.95
					L629.04,177.99z"/>
			</g>
		</g>
	</g>
	<g>
		<g class="st2">
			<g>
				<polygon class="st30" points="414,467.99 406.91,463.69 387.83,482.73 394.92,487.03 				"/>
			</g>
			<g>
				<path class="st31" d="M394.92,487.03l-7.09-4.3l0.04,3.7c0.01,1.13,0.72,2.26,1.85,2.94l0,0c2.36,1.43,5.23,0.27,5.21-2.1
					L394.92,487.03z"/>
			</g>
		</g>
	</g>
	<g>
		<g class="st2">
			<g>
				<polygon class="st20" points="406.98,463.6 399.89,459.3 380.81,478.34 387.9,482.64 				"/>
			</g>
			<g>
				<path class="st32" d="M387.9,482.64l-7.09-4.3l0.04,3.7c0.01,1.13,0.72,2.26,1.85,2.94h0c2.36,1.43,5.23,0.27,5.21-2.1
					L387.9,482.64z"/>
			</g>
		</g>
	</g>
	<g>
		<g class="st2">
			<g>
				<polygon class="st30" points="428,475.99 420.91,471.69 401.83,490.73 408.92,495.03 				"/>
			</g>
			<g>
				<path class="st31" d="M408.92,495.03l-7.09-4.3l0.04,3.7c0.01,1.13,0.72,2.26,1.85,2.94l0,0c2.36,1.43,5.23,0.27,5.21-2.1
					L408.92,495.03z"/>
			</g>
		</g>
	</g>
	<g>
		<g class="st2">
			<g>
				<polygon class="st20" points="420.98,471.6 413.89,467.3 394.81,486.34 401.9,490.64 				"/>
			</g>
			<g>
				<path class="st32" d="M401.9,490.64l-7.09-4.3l0.04,3.7c0.01,1.13,0.72,2.26,1.85,2.94h0c2.36,1.43,5.23,0.27,5.21-2.1
					L401.9,490.64z"/>
			</g>
		</g>
	</g>
	<g>
		<g class="st2">
			<g>
				<polygon class="st30" points="400.28,459.29 393.27,454.78 373.81,473.26 380.81,477.77 				"/>
			</g>
			<g>
				<path class="st31" d="M380.81,477.77l-7-4.51l-0.03,3.7c-0.01,1.13,0.67,2.28,1.79,3l0,0c2.33,1.5,5.23,0.43,5.25-1.95
					L380.81,477.77z"/>
			</g>
		</g>
	</g>
	<g>
		<g class="st2">
			<g>
				<polygon class="st20" points="393.35,454.69 386.35,450.19 366.88,468.67 373.89,473.18 				"/>
			</g>
			<g>
				<path class="st32" d="M373.89,473.18l-7-4.51l-0.03,3.7c-0.01,1.13,0.67,2.28,1.79,3v0c2.33,1.5,5.23,0.43,5.25-1.95
					L373.89,473.18z"/>
			</g>
		</g>
	</g>
	<g>
		<g class="st2">
			<g>
				<polygon class="st30" points="386.43,450.1 379.42,445.59 359.96,464.08 366.96,468.58 				"/>
			</g>
			<g>
				<path class="st31" d="M366.96,468.58l-7-4.51l-0.03,3.7c-0.01,1.13,0.67,2.28,1.79,3v0c2.33,1.5,5.23,0.43,5.25-1.95
					L366.96,468.58z"/>
			</g>
		</g>
	</g>
	<g>
		<g class="st2">
			<g>
				<polygon class="st20" points="379.5,445.51 372.5,441 353.03,459.48 360.04,463.99 				"/>
			</g>
			<g>
				<path class="st32" d="M360.04,463.99l-7-4.51l-0.03,3.7c-0.01,1.13,0.67,2.28,1.79,3l0,0c2.33,1.5,5.23,0.43,5.25-1.95
					L360.04,463.99z"/>
			</g>
		</g>
	</g>
	<g>
		<g class="st2">
			<g>
				<polygon class="st30" points="750,174.99 757.09,170.69 776.17,189.73 769.08,194.03 				"/>
			</g>
			<g>
				<path class="st31" d="M769.08,194.03l7.09-4.3l-0.04,3.7c-0.01,1.13-0.72,2.26-1.85,2.94l0,0c-2.36,1.43-5.23,0.27-5.21-2.1
					L769.08,194.03z"/>
			</g>
		</g>
	</g>
	<g>
		<g class="st2">
			<g>
				<polygon class="st20" points="757.02,170.6 764.11,166.3 783.19,185.34 776.1,189.64 				"/>
			</g>
			<g>
				<path class="st32" d="M776.1,189.64l7.09-4.3l-0.04,3.7c-0.01,1.13-0.72,2.26-1.85,2.94l0,0c-2.36,1.43-5.23,0.27-5.21-2.1
					L776.1,189.64z"/>
			</g>
		</g>
	</g>
	<g>
		<g class="st2">
			<g>
				<polygon class="st30" points="763.72,166.29 770.73,161.78 790.19,180.26 783.19,184.77 				"/>
			</g>
			<g>
				<path class="st31" d="M783.19,184.77l7-4.51l0.03,3.7c0.01,1.13-0.67,2.28-1.79,3l0,0c-2.33,1.5-5.23,0.43-5.25-1.95
					L783.19,184.77z"/>
			</g>
		</g>
	</g>
	<g>
		<g class="st2">
			<g>
				<polygon class="st20" points="770.65,161.69 777.65,157.19 797.12,175.67 790.11,180.18 				"/>
			</g>
			<g>
				<path class="st32" d="M790.11,180.18l7-4.51l0.03,3.7c0.01,1.13-0.67,2.28-1.79,3l0,0c-2.33,1.5-5.23,0.43-5.25-1.95
					L790.11,180.18z"/>
			</g>
		</g>
	</g>
	<g>
		<g class="st2">
			<g>
				<polygon class="st30" points="777.57,157.1 784.58,152.59 804.04,171.08 797.04,175.58 				"/>
			</g>
			<g>
				<path class="st31" d="M797.04,175.58l7-4.51l0.03,3.7c0.01,1.13-0.67,2.28-1.79,3h0c-2.33,1.5-5.23,0.43-5.25-1.95
					L797.04,175.58z"/>
			</g>
		</g>
	</g>
	<g>
		<g class="st2">
			<g>
				<polygon class="st20" points="784.5,152.51 791.5,148 810.97,166.48 803.96,170.99 				"/>
			</g>
			<g>
				<path class="st32" d="M803.96,170.99l7-4.51l0.03,3.7c0.01,1.13-0.67,2.28-1.79,3l0,0c-2.33,1.5-5.23,0.43-5.25-1.95
					L803.96,170.99z"/>
			</g>
		</g>
	</g>
	<g>
		<g class="st2">
			<g>
				<polygon class="st30" points="529.49,478.86 544.42,470.75 584.59,506.64 569.66,514.76 				"/>
			</g>
			<g>
				<path class="st31" d="M569.66,514.76l14.93-8.11l-0.09,6.98c-0.03,2.14-1.52,4.26-3.89,5.55l0,0
					c-4.98,2.7-11.02,0.52-10.96-3.97L569.66,514.76z"/>
			</g>
		</g>
	</g>
	<g>
		<g class="st2">
			<g>
				<polygon class="st20" points="544.26,470.58 559.2,462.47 599.36,498.36 584.43,506.48 				"/>
			</g>
			<g>
				<path class="st32" d="M584.43,506.48l14.93-8.11l-0.09,6.98c-0.03,2.14-1.52,4.26-3.89,5.55l0,0
					c-4.98,2.7-11.02,0.52-10.96-3.97L584.43,506.48z"/>
			</g>
		</g>
	</g>
	<g>
		<g class="st2">
			<g>
				<polygon class="st30" points="558.38,462.45 573.12,453.95 614.09,488.8 599.35,497.3 				"/>
			</g>
			<g>
				<path class="st31" d="M599.35,497.3l14.74-8.5l0.07,6.98c0.02,2.14-1.42,4.3-3.76,5.65l0,0c-4.91,2.83-11,0.8-11.05-3.68
					L599.35,497.3z"/>
			</g>
		</g>
	</g>
	<g>
		<g class="st2">
			<g>
				<polygon class="st20" points="572.95,453.79 587.7,445.29 628.67,480.14 613.93,488.64 				"/>
			</g>
			<g>
				<path class="st32" d="M613.93,488.64l14.74-8.5l0.07,6.98c0.02,2.14-1.42,4.3-3.76,5.65l0,0c-4.91,2.83-11,0.8-11.05-3.68
					L613.93,488.64z"/>
			</g>
		</g>
	</g>
	<g>
		<g class="st2">
			<g>
				<polygon class="st30" points="587.53,445.13 602.28,436.63 643.25,471.48 628.51,479.97 				"/>
			</g>
			<g>
				<path class="st31" d="M628.51,479.97l14.74-8.5l0.07,6.98c0.02,2.14-1.42,4.3-3.76,5.65h0c-4.91,2.83-11,0.8-11.05-3.68
					L628.51,479.97z"/>
			</g>
		</g>
	</g>
	<g>
		<g class="st2">
			<g>
				<polygon class="st20" points="602.11,436.47 616.86,427.97 657.83,462.81 643.09,471.31 				"/>
			</g>
			<g>
				<path class="st32" d="M643.09,471.31l14.74-8.5l0.07,6.98c0.02,2.14-1.42,4.3-3.76,5.65l0,0c-4.91,2.83-11,0.8-11.05-3.68
					L643.09,471.31z"/>
			</g>
		</g>
	</g>
	<g>
		<g class="st2">
			<g>
				<polygon class="st30" points="616.69,427.81 631.43,419.31 672.41,454.15 657.67,462.65 				"/>
			</g>
			<g>
				<path class="st31" d="M657.67,462.65l14.74-8.5l0.07,6.98c0.02,2.14-1.42,4.3-3.76,5.65l0,0c-4.91,2.83-11,0.8-11.05-3.68
					L657.67,462.65z"/>
			</g>
		</g>
	</g>
	<g>
		<g class="st2">
			<g>
				<polygon class="st20" points="631.27,419.15 646.01,410.65 686.99,445.49 672.25,453.99 				"/>
			</g>
			<g>
				<path class="st32" d="M672.25,453.99l14.74-8.5l0.07,6.98c0.02,2.14-1.42,4.3-3.76,5.65h0c-4.91,2.83-11,0.8-11.05-3.68
					L672.25,453.99z"/>
			</g>
		</g>
	</g>
	<g>
		<g class="st2">
			<g>
				<polygon class="st30" points="645.85,410.48 660.59,401.99 701.57,436.83 686.83,445.33 				"/>
			</g>
			<g>
				<path class="st31" d="M686.83,445.33l14.74-8.5l0.07,6.98c0.02,2.14-1.42,4.3-3.76,5.65l0,0c-4.91,2.83-11,0.8-11.05-3.68
					L686.83,445.33z"/>
			</g>
		</g>
	</g>
	<g>
		<g class="st2">
			<g>
				<polygon class="st20" points="660.43,401.82 675.17,393.32 716.15,428.17 701.41,436.67 				"/>
			</g>
			<g>
				<path class="st32" d="M701.41,436.67l14.74-8.5l0.07,6.98c0.02,2.14-1.42,4.3-3.76,5.65l0,0c-4.91,2.83-11,0.8-11.05-3.68
					L701.41,436.67z"/>
			</g>
		</g>
	</g>
	<g>
		<g class="st2">
			<g>
				<polygon class="st30" points="675.01,393.16 689.75,384.66 730.73,419.51 715.99,428.01 				"/>
			</g>
			<g>
				<path class="st31" d="M715.99,428.01l14.74-8.5l0.07,6.98c0.02,2.14-1.42,4.3-3.76,5.65h0c-4.91,2.83-11,0.8-11.05-3.68
					L715.99,428.01z"/>
			</g>
		</g>
	</g>
	<g>
		<g class="st2">
			<g>
				<polygon class="st20" points="689.59,384.5 704.33,376 745.31,410.85 730.57,419.35 				"/>
			</g>
			<g>
				<path class="st32" d="M730.57,419.35l14.74-8.5l0.07,6.98c0.02,2.14-1.42,4.3-3.76,5.65l0,0c-4.91,2.83-11,0.8-11.05-3.68
					L730.57,419.35z"/>
			</g>
		</g>
	</g>
	<g>
		<g class="st2">
			<g>
				<polygon class="st30" points="704.17,375.84 718.91,367.34 759.89,402.19 745.14,410.69 				"/>
			</g>
			<g>
				<path class="st31" d="M745.14,410.69l14.74-8.5l0.07,6.98c0.02,2.14-1.42,4.3-3.76,5.65l0,0c-4.91,2.83-11,0.8-11.05-3.68
					L745.14,410.69z"/>
			</g>
		</g>
	</g>
	<g>
		<g class="st2">
			<g>
				<polygon class="st20" points="718.75,367.18 733.49,358.68 774.47,393.53 759.72,402.03 				"/>
			</g>
			<g>
				<path class="st32" d="M759.72,402.03l14.74-8.5l0.07,6.98c0.02,2.14-1.42,4.3-3.76,5.65l0,0c-4.91,2.83-11,0.8-11.05-3.68
					L759.72,402.03z"/>
			</g>
		</g>
	</g>
	<g>
		<g class="st2">
			<g>
				<polygon class="st30" points="733.33,358.52 748.07,350.02 789.05,384.87 774.3,393.37 				"/>
			</g>
			<g>
				<path class="st31" d="M774.3,393.37l14.74-8.5l0.07,6.98c0.02,2.14-1.42,4.3-3.76,5.65l0,0c-4.91,2.83-11,0.8-11.05-3.68
					L774.3,393.37z"/>
			</g>
		</g>
	</g>
	<g>
		<g class="st2">
			<g>
				<polygon class="st20" points="747.91,349.86 762.65,341.36 803.62,376.21 788.88,384.71 				"/>
			</g>
			<g>
				<path class="st32" d="M788.88,384.71l14.74-8.5l0.07,6.98c0.02,2.14-1.42,4.3-3.76,5.65l0,0c-4.91,2.83-11,0.8-11.05-3.68
					L788.88,384.71z"/>
			</g>
		</g>
	</g>
	<g>
		<g class="st2">
			<g>
				<polygon class="st30" points="762.49,341.2 777.23,332.7 818.2,367.55 803.46,376.05 				"/>
			</g>
			<g>
				<path class="st31" d="M803.46,376.05l14.74-8.5l0.07,6.98c0.02,2.14-1.42,4.3-3.76,5.65l0,0c-4.91,2.83-11,0.8-11.05-3.68
					L803.46,376.05z"/>
			</g>
		</g>
	</g>
	<g>
		<g class="st2">
			<g>
				<polygon class="st20" points="777.07,332.54 791.81,324.04 832.78,358.89 818.04,367.39 				"/>
			</g>
			<g>
				<path class="st32" d="M818.04,367.39l14.74-8.5l0.07,6.98c0.02,2.14-1.42,4.3-3.76,5.65h0c-4.91,2.83-11,0.8-11.05-3.68
					L818.04,367.39z"/>
			</g>
		</g>
	</g>
	<g>
		<g class="st2">
			<g>
				<polygon class="st30" points="791.64,323.88 806.39,315.38 847.36,350.23 832.62,358.73 				"/>
			</g>
			<g>
				<path class="st31" d="M832.62,358.73l14.74-8.5l0.07,6.98c0.02,2.14-1.42,4.3-3.76,5.65v0c-4.91,2.83-11,0.8-11.05-3.68
					L832.62,358.73z"/>
			</g>
		</g>
	</g>
	<g>
		<g class="st2">
			<g>
				<polygon class="st20" points="806.22,315.22 820.97,306.72 861.94,341.57 847.2,350.07 				"/>
			</g>
			<g>
				<path class="st32" d="M847.2,350.07l14.74-8.5l0.07,6.98c0.02,2.14-1.42,4.3-3.76,5.65v0c-4.91,2.83-11,0.8-11.05-3.68
					L847.2,350.07z"/>
			</g>
		</g>
	</g>
	<g>
		<g class="st2">
			<g>
				<polygon class="st30" points="820.8,306.56 835.55,298.06 876.52,332.91 861.78,341.41 				"/>
			</g>
			<g>
				<path class="st31" d="M861.78,341.41l14.74-8.5l0.07,6.98c0.02,2.14-1.42,4.3-3.76,5.65l0,0c-4.91,2.83-11,0.8-11.05-3.68
					L861.78,341.41z"/>
			</g>
		</g>
	</g>
	<g>
		<g class="st2">
			<g>
				<polygon class="st20" points="835.38,297.9 850.13,289.4 891.1,324.25 876.36,332.75 				"/>
			</g>
			<g>
				<path class="st32" d="M876.36,332.75l14.74-8.5l0.07,6.98c0.02,2.14-1.42,4.3-3.76,5.65v0c-4.91,2.83-11,0.8-11.05-3.68
					L876.36,332.75z"/>
			</g>
		</g>
	</g>
	<g>
		<g class="st2">
			<g>
				<polygon class="st30" points="849.96,289.24 864.7,280.74 905.68,315.59 890.94,324.08 				"/>
			</g>
			<g>
				<path class="st31" d="M890.94,324.08l14.74-8.5l0.07,6.98c0.02,2.14-1.42,4.3-3.76,5.65v0c-4.91,2.83-11,0.8-11.05-3.68
					L890.94,324.08z"/>
			</g>
		</g>
	</g>
	<g>
		<g class="st2">
			<g>
				<polygon class="st20" points="864.54,280.58 879.28,272.08 920.26,306.92 905.52,315.42 				"/>
			</g>
			<g>
				<path class="st32" d="M905.52,315.42l14.74-8.5l0.07,6.98c0.02,2.14-1.42,4.3-3.76,5.65l0,0c-4.91,2.83-11,0.8-11.05-3.68
					L905.52,315.42z"/>
			</g>
		</g>
	</g>
</g>
<polygon class="st33" points="528.4,275.17 517.04,276.05 509.43,281.63 510.03,288.63 518.49,292.95 529.84,292.07 537.45,286.49 
	536.86,279.49 "/>
<line class="st34" x1="522.78" y1="237.64" x2="522.78" y2="284.27"/>
<g>
	<g class="st2">
		<g>
			<polygon class="st35" points="494.64,244.05 494.63,249.23 494.55,236.32 494.57,231.13 			"/>
		</g>
		<g>
			<path class="st36" d="M551,244.05l-0.01,4.25c0,0.58-0.32,1.11-0.84,1.4l-13.05,7.25c-1.13,0.63-2.55-0.15-2.55-1.41l0.01-2.36
				L551,244.05z"/>
		</g>
		<g>
			<path class="st36" d="M511.2,253.18l-0.01,2.38c0,1.25-1.42,2.02-2.55,1.4l-13.17-7.26c-0.53-0.29-0.85-0.83-0.85-1.41l0.01-4.24
				L511.2,253.18z"/>
		</g>
		<g>
			<path class="st37" d="M534.55,253.18l-0.01,3.57c0,0.89-0.76,1.62-1.7,1.62l-19.95,0c-0.94,0-1.7-0.73-1.7-1.63l0.01-3.56
				L534.55,253.18z"/>
		</g>
		<g>
			<polygon class="st38" points="550.92,231.13 551,244.05 534.55,253.18 511.2,253.18 494.64,244.05 494.57,231.13 511.02,222 
				534.36,222 			"/>
		</g>
	</g>
</g>
<polygon class="st20" points="522.87,232.13 511.2,253.18 534.55,253.18 "/>
<polygon class="st39" points="551,244.05 522.87,232.13 534.33,252.8 "/>
<polygon class="st39" points="494.64,244.05 511.2,253.18 522.87,232.13 "/>
<polygon class="st20" points="494.57,231.13 494.64,244.05 522.87,232.13 "/>
<polygon class="st39" points="511.02,222 494.57,231.13 522.87,232.13 "/>
<polygon class="st20" points="534.36,222 522.87,232.13 511.02,222 "/>
<polygon class="st39" points="550.92,231.13 522.87,232.13 534.36,222 "/>
<polygon class="st20" points="551,244.05 522.87,232.13 550.92,231.13 "/>
<polygon class="st33" points="479.24,304.69 467.88,305.58 460.28,311.15 460.87,318.15 469.33,322.48 480.69,321.59 488.29,316.02 
	487.7,309.02 "/>
<line class="st34" x1="473.62" y1="267.17" x2="473.62" y2="313.8"/>
<g>
	<g class="st2">
		<g>
			<polygon class="st35" points="445.49,273.58 445.47,278.76 445.39,265.84 445.41,260.66 			"/>
		</g>
		<g>
			<path class="st36" d="M501.84,273.58l-0.01,4.25c0,0.58-0.32,1.11-0.84,1.4l-13.05,7.25c-1.13,0.63-2.55-0.15-2.55-1.41
				l0.01-2.36L501.84,273.58z"/>
		</g>
		<g>
			<path class="st36" d="M462.05,282.71l-0.01,2.38c0,1.25-1.42,2.02-2.55,1.4l-13.17-7.26c-0.53-0.29-0.85-0.83-0.85-1.41
				l0.01-4.24L462.05,282.71z"/>
		</g>
		<g>
			<path class="st37" d="M485.39,282.71l-0.01,3.57c0,0.89-0.76,1.62-1.7,1.62l-19.95,0c-0.94,0-1.7-0.73-1.7-1.63l0.01-3.56
				L485.39,282.71z"/>
		</g>
		<g>
			<polygon class="st38" points="501.77,260.66 501.84,273.58 485.39,282.71 462.05,282.71 445.49,273.58 445.41,260.66 
				461.86,251.53 485.21,251.53 			"/>
		</g>
	</g>
</g>
<polygon class="st20" points="473.71,261.66 462.05,282.71 485.39,282.71 "/>
<polygon class="st39" points="501.84,273.58 473.71,261.66 485.17,282.32 "/>
<polygon class="st39" points="445.49,273.58 462.05,282.71 473.71,261.66 "/>
<polygon class="st20" points="445.41,260.66 445.49,273.58 473.71,261.66 "/>
<polygon class="st39" points="461.86,251.53 445.41,260.66 473.71,261.66 "/>
<polygon class="st20" points="485.21,251.53 473.71,261.66 461.86,251.53 "/>
<polygon class="st39" points="501.77,260.66 473.71,261.66 485.21,251.53 "/>
<polygon class="st20" points="501.84,273.58 473.71,261.66 501.77,260.66 "/>
<polygon class="st1" points="658,299 540,368 503.91,346.76 622.21,279.36 "/>
<g>
	<g class="st2">
		<g>
			<polygon class="st40" points="601.9,264.99 601.82,265.9 616.43,274.62 616.51,273.7 			"/>
		</g>
		<g>
			<polygon class="st41" points="616.51,273.7 616.43,274.62 616.84,274.37 616.92,273.46 			"/>
		</g>
		<g>
			<polygon class="st40" points="616.92,273.46 616.84,274.37 617.58,274.81 617.65,273.9 			"/>
		</g>
		<g>
			<polygon class="st41" points="617.24,274.14 617.17,275.06 617.58,274.81 617.65,273.9 			"/>
		</g>
		<g>
			<polygon class="st40" points="581.88,276.31 581.8,277.23 582.17,277.45 582.24,276.53 			"/>
		</g>
		<g>
			<polygon class="st41" points="582.24,276.53 582.17,277.45 601.82,265.9 601.9,264.99 			"/>
		</g>
		<g>
			<polygon class="st41" points="581.06,276.79 580.98,277.71 581.8,277.23 581.88,276.31 			"/>
		</g>
		<g>
			<polygon class="st40" points="581.06,276.79 580.98,277.71 581.35,277.93 581.42,277.01 			"/>
		</g>
		<g>
			<polygon class="st40" points="617.24,274.14 617.17,275.06 631.77,283.77 631.85,282.85 			"/>
		</g>
		<g>
			<polygon class="st41" points="631.85,282.85 631.77,283.77 632.19,283.52 632.26,282.61 			"/>
		</g>
		<g>
			<polygon class="st40" points="632.26,282.61 632.19,283.52 632.92,283.96 633,283.05 			"/>
		</g>
		<g>
			<polygon class="st41" points="632.58,283.29 632.51,284.21 632.92,283.96 633,283.05 			"/>
		</g>
		<g>
			<polygon class="st40" points="581.42,277.01 581.35,277.93 595.95,286.64 596.03,285.72 			"/>
		</g>
		<g>
			<polygon class="st41" points="597.58,285.68 597.51,286.6 617.17,275.06 617.24,274.14 			"/>
		</g>
		<g>
			<polygon class="st38" points="616.92,273.46 616.51,273.7 596.85,285.24 597.58,285.68 617.24,274.14 617.65,273.9 			"/>
		</g>
		<g>
			<polygon class="st40" points="596.85,285.24 596.77,286.16 597.51,286.6 597.58,285.68 			"/>
		</g>
		<g>
			<polygon class="st40" points="596.03,285.72 595.95,286.64 596.69,287.08 596.76,286.16 			"/>
		</g>
		<g>
			<polygon class="st40" points="561.41,288.33 561.33,289.25 561.7,289.46 561.77,288.55 			"/>
		</g>
		<g>
			<polygon class="st41" points="561.77,288.55 561.7,289.46 581.35,277.93 581.42,277.01 			"/>
		</g>
		<g>
			<polygon class="st41" points="560.59,288.81 560.51,289.73 561.33,289.25 561.41,288.33 			"/>
		</g>
		<g>
			<polygon class="st40" points="560.59,288.81 560.51,289.73 560.88,289.94 560.95,289.03 			"/>
		</g>
		<g>
			<polygon class="st41" points="647.19,292 647.11,292.92 647.53,292.68 647.6,291.76 			"/>
		</g>
		<g>
			<polygon class="st40" points="632.58,283.29 632.51,284.21 647.11,292.92 647.19,292 			"/>
		</g>
		<g>
			<polygon class="st40" points="647.6,291.76 647.53,292.68 648.26,293.11 648.34,292.2 			"/>
		</g>
		<g>
			<polygon class="st41" points="647.92,292.44 647.85,293.36 648.26,293.11 648.34,292.2 			"/>
		</g>
		<g>
			<polygon class="st40" points="596.76,286.16 596.69,287.08 611.3,295.79 611.37,294.87 			"/>
		</g>
		<g>
			<polygon class="st38" points="632.26,282.61 631.85,282.85 612.19,294.39 612.92,294.83 632.58,283.29 633,283.05 			"/>
		</g>
		<g>
			<polygon class="st41" points="612.92,294.83 612.85,295.75 632.51,284.21 632.58,283.29 			"/>
		</g>
		<g>
			<polygon class="st40" points="612.19,294.39 612.11,295.31 612.85,295.75 612.92,294.83 			"/>
		</g>
		<g>
			<polygon class="st40" points="611.37,294.87 611.3,295.79 612.03,296.23 612.11,295.31 			"/>
		</g>
		<g>
			<polygon class="st40" points="560.95,289.03 560.88,289.94 575.49,298.66 575.56,297.74 			"/>
		</g>
		<g>
			<polygon class="st41" points="577.11,297.7 577.04,298.61 596.69,287.08 596.76,286.16 			"/>
		</g>
		<g>
			<polygon class="st40" points="576.38,297.26 576.3,298.18 577.04,298.61 577.11,297.7 			"/>
		</g>
		<g>
			<polygon class="st38" points="596.76,286.16 596.03,285.72 576.38,297.26 577.11,297.7 			"/>
		</g>
		<g>
			<polygon class="st40" points="575.56,297.74 575.49,298.66 576.22,299.09 576.3,298.18 			"/>
		</g>
		<g>
			<polygon class="st40" points="540.93,300.35 540.86,301.27 541.22,301.48 541.3,300.57 			"/>
		</g>
		<g>
			<polygon class="st41" points="541.3,300.57 541.22,301.48 560.88,289.94 560.95,289.03 			"/>
		</g>
		<g>
			<polygon class="st41" points="540.11,300.83 540.04,301.75 540.86,301.27 540.93,300.35 			"/>
		</g>
		<g>
			<polygon class="st40" points="540.11,300.83 540.04,301.75 540.4,301.97 540.48,301.05 			"/>
		</g>
		<g>
			<polygon class="st40" points="647.92,292.44 647.85,293.36 662.46,302.07 662.53,301.15 			"/>
		</g>
		<g>
			<polygon class="st41" points="662.53,301.15 662.46,302.07 662.87,301.83 662.94,300.91 			"/>
		</g>
		<g>
			<polygon class="st40" points="662.94,300.91 662.87,301.83 663.6,302.26 663.68,301.35 			"/>
		</g>
		<g>
			<polygon class="st41" points="663.27,301.59 663.19,302.51 663.6,302.26 663.68,301.35 			"/>
		</g>
		<g>
			<polygon class="st40" points="612.11,295.31 612.03,296.23 626.64,304.94 626.71,304.02 			"/>
		</g>
		<g>
			<polygon class="st41" points="628.27,303.98 628.19,304.9 647.85,293.36 647.92,292.44 			"/>
		</g>
		<g>
			<polygon class="st40" points="627.53,303.54 627.46,304.46 628.19,304.9 628.27,303.98 			"/>
		</g>
		<g>
			<polygon class="st40" points="626.71,304.02 626.64,304.94 627.37,305.38 627.45,304.46 			"/>
		</g>
		<g>
			<polygon class="st40" points="576.3,298.18 576.22,299.09 590.83,307.81 590.9,306.89 			"/>
		</g>
		<g>
			<polygon class="st41" points="592.46,306.85 592.38,307.76 612.03,296.23 612.11,295.31 			"/>
		</g>
		<g>
			<polygon class="st40" points="591.72,306.41 591.65,307.33 592.38,307.76 592.46,306.85 			"/>
		</g>
		<g>
			<polygon class="st40" points="590.9,306.89 590.83,307.81 591.56,308.24 591.64,307.33 			"/>
		</g>
		<g>
			<polygon class="st40" points="540.48,301.05 540.4,301.97 555.01,310.68 555.08,309.76 			"/>
		</g>
		<g>
			<polygon class="st38" points="576.3,298.18 575.56,297.74 555.9,309.28 556.64,309.72 			"/>
		</g>
		<g>
			<polygon class="st41" points="556.64,309.72 556.56,310.64 576.22,299.09 576.3,298.18 			"/>
		</g>
		<g>
			<polygon class="st40" points="555.9,309.28 555.83,310.2 556.56,310.64 556.64,309.72 			"/>
		</g>
		<g>
			<polygon class="st40" points="555.08,309.76 555.01,310.68 555.74,311.12 555.82,310.2 			"/>
		</g>
		<g>
			<polygon class="st40" points="520.45,312.37 520.38,313.29 520.74,313.51 520.82,312.59 			"/>
		</g>
		<g>
			<polygon class="st41" points="520.82,312.59 520.74,313.51 540.4,301.97 540.48,301.05 			"/>
		</g>
		<g>
			<polygon class="st41" points="519.64,312.85 519.56,313.77 520.38,313.29 520.45,312.37 			"/>
		</g>
		<g>
			<polygon class="st40" points="519.64,312.85 519.56,313.77 519.93,313.99 520,313.07 			"/>
		</g>
		<g>
			<line class="st40" x1="663.27" y1="301.59" x2="663.19" y2="302.51"/>
		</g>
		<g>
			<polygon class="st40" points="627.45,304.46 627.37,305.38 641.98,314.09 642.05,313.17 			"/>
		</g>
		<g>
			<polygon class="st40" points="642.87,312.69 642.8,313.61 643.53,314.05 643.61,313.13 			"/>
		</g>
		<g>
			<polygon class="st41" points="643.61,313.13 643.53,314.05 663.19,302.51 663.27,301.59 			"/>
		</g>
		<g>
			<polygon class="st38" points="662.94,300.91 662.53,301.15 642.87,312.69 643.61,313.13 663.27,301.59 663.68,301.35 			"/>
		</g>
		<g>
			<polygon class="st40" points="642.05,313.17 641.98,314.09 642.72,314.53 642.79,313.61 			"/>
		</g>
		<g>
			<polygon class="st40" points="591.64,307.33 591.56,308.24 606.17,316.96 606.24,316.04 			"/>
		</g>
		<g>
			<polygon class="st40" points="607.06,315.56 606.99,316.48 607.72,316.92 607.8,316 			"/>
		</g>
		<g>
			<polygon class="st41" points="607.8,316 607.72,316.92 627.37,305.38 627.45,304.46 			"/>
		</g>
		<g>
			<polygon class="st38" points="627.45,304.46 626.71,304.02 607.06,315.56 607.8,316 			"/>
		</g>
		<g>
			<polygon class="st40" points="606.24,316.04 606.17,316.96 606.9,317.4 606.98,316.48 			"/>
		</g>
		<g>
			<polygon class="st40" points="555.82,310.2 555.74,311.12 570.35,319.83 570.43,318.91 			"/>
		</g>
		<g>
			<polygon class="st40" points="571.24,318.43 571.17,319.35 571.9,319.79 571.98,318.87 			"/>
		</g>
		<g>
			<polygon class="st41" points="571.98,318.87 571.9,319.79 591.56,308.24 591.64,307.33 			"/>
		</g>
		<g>
			<polygon class="st40" points="570.43,318.91 570.35,319.83 571.09,320.27 571.16,319.35 			"/>
		</g>
		<g>
			<polygon class="st40" points="520,313.07 519.93,313.99 534.53,322.7 534.61,321.78 			"/>
		</g>
		<g>
			<polygon class="st41" points="536.16,321.74 536.09,322.66 555.74,311.12 555.82,310.2 			"/>
		</g>
		<g>
			<polygon class="st40" points="535.43,321.3 535.35,322.22 536.09,322.66 536.16,321.74 			"/>
		</g>
		<g>
			<polygon class="st40" points="534.61,321.78 534.53,322.7 535.27,323.14 535.34,322.22 			"/>
		</g>
		<g>
			<polygon class="st40" points="499.98,324.4 499.9,325.31 500.27,325.53 500.34,324.61 			"/>
		</g>
		<g>
			<polygon class="st41" points="500.34,324.61 500.27,325.53 519.93,313.99 520,313.07 			"/>
		</g>
		<g>
			<polygon class="st41" points="499.16,324.88 499.09,325.79 499.9,325.31 499.98,324.4 			"/>
		</g>
		<g>
			<polygon class="st40" points="499.16,324.88 499.09,325.79 499.45,326.01 499.52,325.09 			"/>
		</g>
		<g>
			<line class="st40" x1="642.79" y1="313.61" x2="642.72" y2="314.53"/>
		</g>
		<g>
			<polygon class="st40" points="606.98,316.48 606.9,317.4 621.51,326.11 621.59,325.19 			"/>
		</g>
		<g>
			<polygon class="st40" points="622.4,324.71 622.33,325.63 623.06,326.07 623.14,325.15 			"/>
		</g>
		<g>
			<polygon class="st41" points="623.14,325.15 623.06,326.07 642.72,314.53 642.79,313.61 			"/>
		</g>
		<g>
			<polygon class="st40" points="621.59,325.19 621.51,326.11 622.25,326.55 622.32,325.63 			"/>
		</g>
		<g>
			<polygon class="st40" points="571.16,319.35 571.09,320.27 585.69,328.98 585.77,328.06 			"/>
		</g>
		<g>
			<polygon class="st38" points="606.98,316.48 606.24,316.04 586.59,327.58 587.32,328.02 			"/>
		</g>
		<g>
			<polygon class="st41" points="587.32,328.02 587.25,328.94 606.9,317.4 606.98,316.48 			"/>
		</g>
		<g>
			<polygon class="st40" points="586.59,327.58 586.51,328.5 587.25,328.94 587.32,328.02 			"/>
		</g>
		<g>
			<polygon class="st40" points="585.77,328.06 585.69,328.98 586.43,329.42 586.5,328.5 			"/>
		</g>
		<g>
			<polygon class="st40" points="535.34,322.22 535.27,323.14 549.87,331.85 549.95,330.93 			"/>
		</g>
		<g>
			<polygon class="st40" points="550.77,330.45 550.69,331.37 551.43,331.81 551.5,330.89 			"/>
		</g>
		<g>
			<polygon class="st38" points="571.16,319.35 570.43,318.91 550.77,330.45 551.5,330.89 			"/>
		</g>
		<g>
			<polygon class="st41" points="551.5,330.89 551.43,331.81 571.09,320.27 571.16,319.35 			"/>
		</g>
		<g>
			<polygon class="st40" points="549.95,330.93 549.87,331.85 550.61,332.29 550.68,331.37 			"/>
		</g>
		<g>
			<polygon class="st40" points="499.52,325.09 499.45,326.01 514.06,334.72 514.13,333.81 			"/>
		</g>
		<g>
			<polygon class="st38" points="535.34,322.22 534.61,321.78 514.95,333.32 515.68,333.76 			"/>
		</g>
		<g>
			<polygon class="st41" points="515.68,333.76 515.61,334.68 535.27,323.14 535.34,322.22 			"/>
		</g>
		<g>
			<polygon class="st40" points="514.95,333.32 514.87,334.24 515.61,334.68 515.68,333.76 			"/>
		</g>
		<g>
			<polygon class="st40" points="514.13,333.81 514.06,334.72 514.79,335.16 514.87,334.24 			"/>
		</g>
		<g>
			<polygon class="st41" points="479.87,336.63 479.8,337.55 499.45,326.01 499.52,325.09 			"/>
		</g>
		<g>
			<polyline class="st38" points="643.61,313.13 642.87,312.69 628.27,303.98 627.53,303.54 612.92,294.83 612.19,294.39 
				597.58,285.68 596.85,285.24 582.24,276.53 581.88,276.31 581.06,276.79 581.42,277.01 596.03,285.72 596.76,286.16 
				611.37,294.87 612.11,295.31 626.71,304.02 627.45,304.46 642.05,313.17 642.79,313.61 			"/>
		</g>
		<g>
			<line class="st40" x1="622.32" y1="325.63" x2="622.25" y2="326.55"/>
		</g>
		<g>
			<polygon class="st40" points="586.5,328.5 586.43,329.42 601.03,338.13 601.11,337.21 			"/>
		</g>
		<g>
			<polygon class="st38" points="622.32,325.63 621.59,325.19 601.93,336.73 602.66,337.17 			"/>
		</g>
		<g>
			<polygon class="st40" points="601.93,336.73 601.85,337.65 602.59,338.09 602.66,337.17 			"/>
		</g>
		<g>
			<polygon class="st41" points="602.66,337.17 602.59,338.09 622.25,326.55 622.32,325.63 			"/>
		</g>
		<g>
			<polygon class="st40" points="601.11,337.21 601.03,338.13 601.77,338.57 601.85,337.65 			"/>
		</g>
		<g>
			<polygon class="st40" points="550.68,331.37 550.61,332.29 565.22,341 565.29,340.08 			"/>
		</g>
		<g>
			<polygon class="st41" points="566.84,340.04 566.77,340.96 586.43,329.42 586.5,328.5 			"/>
		</g>
		<g>
			<polygon class="st40" points="566.11,339.6 566.03,340.52 566.77,340.96 566.84,340.04 			"/>
		</g>
		<g>
			<polygon class="st38" points="586.5,328.5 585.77,328.06 566.11,339.6 566.84,340.04 			"/>
		</g>
		<g>
			<polygon class="st40" points="565.29,340.08 565.22,341 565.95,341.44 566.03,340.52 			"/>
		</g>
		<g>
			<polygon class="st40" points="514.87,334.24 514.79,335.16 529.4,343.87 529.47,342.96 			"/>
		</g>
		<g>
			<polygon class="st40" points="530.29,342.48 530.22,343.39 530.95,343.83 531.03,342.91 			"/>
		</g>
		<g>
			<polygon class="st41" points="531.03,342.91 530.95,343.83 550.61,332.29 550.68,331.37 			"/>
		</g>
		<g>
			<polygon class="st40" points="529.47,342.96 529.4,343.87 530.13,344.31 530.21,343.39 			"/>
		</g>
		<g>
			<polygon class="st41" points="494.07,345.58 493.99,346.5 494.41,346.26 494.48,345.34 			"/>
		</g>
		<g>
			<polygon class="st41" points="495.22,345.78 495.14,346.7 514.79,335.16 514.87,334.24 			"/>
		</g>
		<g>
			<polygon class="st38" points="494.48,345.34 494.07,345.58 494.8,346.02 495.22,345.78 514.87,334.24 514.13,333.81 			"/>
		</g>
		<g>
			<polygon class="st40" points="494.07,345.58 493.99,346.5 494.73,346.94 494.8,346.02 			"/>
		</g>
		<g>
			<polygon class="st41" points="494.8,346.02 494.73,346.94 495.14,346.7 495.22,345.78 			"/>
		</g>
		<g>
			<line class="st40" x1="653.01" y1="343.92" x2="653.38" y2="344.15"/>
		</g>
		<g>
			<path class="st40" d="M652.19,344.4"/>
		</g>
		<g>
			<line class="st41" x1="652.56" y1="344.63" x2="653.38" y2="344.15"/>
		</g>
		<g>
			<line class="st40" x1="652.19" y1="344.4" x2="652.56" y2="344.63"/>
		</g>
		<g>
			<line class="st40" x1="601.85" y1="337.65" x2="601.77" y2="338.57"/>
		</g>
		<g>
			<polygon class="st40" points="566.03,340.52 565.95,341.44 580.56,350.15 580.63,349.24 			"/>
		</g>
		<g>
			<polygon class="st38" points="601.85,337.65 601.11,337.21 581.45,348.75 582.19,349.19 			"/>
		</g>
		<g>
			<polygon class="st41" points="582.19,349.19 582.11,350.11 601.77,338.57 601.85,337.65 			"/>
		</g>
		<g>
			<polygon class="st40" points="581.45,348.75 581.38,349.67 582.11,350.11 582.19,349.19 			"/>
		</g>
		<g>
			<polygon class="st40" points="580.63,349.24 580.56,350.15 581.29,350.59 581.37,349.67 			"/>
		</g>
		<g>
			<polygon class="st40" points="530.21,343.39 530.13,344.31 544.74,353.02 544.81,352.11 			"/>
		</g>
		<g>
			<polygon class="st41" points="546.37,352.06 546.29,352.98 565.95,341.44 566.03,340.52 			"/>
		</g>
		<g>
			<polygon class="st40" points="545.63,351.63 545.56,352.54 546.29,352.98 546.37,352.06 			"/>
		</g>
		<g>
			<polygon class="st40" points="544.81,352.11 544.74,353.02 545.48,353.46 545.55,352.55 			"/>
		</g>
		<g>
			<polygon class="st41" points="509.41,354.73 509.33,355.65 509.75,355.41 509.82,354.49 			"/>
		</g>
		<g>
			<polygon class="st41" points="510.56,354.93 510.48,355.85 530.13,344.31 530.21,343.39 			"/>
		</g>
		<g>
			<polygon class="st40" points="509.41,354.73 509.33,355.65 510.07,356.09 510.15,355.17 			"/>
		</g>
		<g>
			<polygon class="st38" points="509.82,354.49 509.41,354.73 510.15,355.17 510.56,354.93 530.21,343.39 529.47,342.96 			"/>
		</g>
		<g>
			<polygon class="st41" points="510.15,355.17 510.07,356.09 510.48,355.85 510.56,354.93 			"/>
		</g>
		<g>
			<polyline class="st38" points="602.66,337.17 601.93,336.73 587.32,328.02 586.59,327.58 571.98,318.87 571.24,318.43 
				556.64,309.72 555.9,309.28 541.3,300.57 540.93,300.35 540.11,300.83 540.48,301.05 555.08,309.76 555.82,310.2 570.43,318.91 
				571.16,319.35 585.77,328.06 586.5,328.5 601.11,337.21 601.85,337.65 			"/>
		</g>
		<g>
			<line class="st40" x1="581.37" y1="349.67" x2="581.29" y2="350.59"/>
		</g>
		<g>
			<polygon class="st40" points="545.55,352.55 545.48,353.46 560.08,362.17 560.16,361.26 			"/>
		</g>
		<g>
			<polygon class="st41" points="561.71,361.22 561.64,362.13 581.29,350.59 581.37,349.67 			"/>
		</g>
		<g>
			<polygon class="st40" points="560.98,360.78 560.9,361.69 561.64,362.13 561.71,361.22 			"/>
		</g>
		<g>
			<polygon class="st40" points="560.16,361.26 560.08,362.17 560.82,362.61 560.89,361.7 			"/>
		</g>
		<g>
			<polygon class="st41" points="524.75,363.89 524.68,364.8 525.09,364.56 525.16,363.64 			"/>
		</g>
		<g>
			<polygon class="st41" points="525.9,364.08 525.83,365 545.48,353.46 545.55,352.54 			"/>
		</g>
		<g>
			<polygon class="st40" points="524.75,363.89 524.68,364.8 525.41,365.24 525.49,364.32 			"/>
		</g>
		<g>
			<polygon class="st41" points="525.49,364.32 525.41,365.24 525.83,365 525.9,364.08 			"/>
		</g>
		<g>
			<polyline class="st38" points="581.45,348.75 566.84,340.04 566.11,339.6 551.5,330.89 550.77,330.45 536.16,321.74 
				535.43,321.3 520.82,312.59 520.45,312.37 519.64,312.85 520,313.07 534.61,321.78 535.34,322.22 549.95,330.93 550.68,331.37 
				565.29,340.08 566.03,340.52 580.63,349.24 581.37,349.67 			"/>
		</g>
		<g>
			<line class="st40" x1="560.89" y1="361.7" x2="560.82" y2="362.61"/>
		</g>
		<g>
			<polygon class="st41" points="540.09,373.04 540.02,373.95 540.43,373.71 540.51,372.79 			"/>
		</g>
		<g>
			<polygon class="st41" points="541.24,373.23 541.17,374.15 560.82,362.61 560.89,361.7 			"/>
		</g>
		<g>
			<polygon class="st41" points="540.83,373.47 540.75,374.39 541.17,374.15 541.24,373.23 			"/>
		</g>
		<g>
			<polygon class="st40" points="540.09,373.04 540.02,373.95 540.75,374.39 540.83,373.47 			"/>
		</g>
		<g>
			<polygon class="st38" points="647.6,291.76 647.19,292 627.53,303.54 628.27,303.98 647.92,292.44 648.34,292.2 			"/>
		</g>
		<g>
			<polygon class="st38" points="612.11,295.31 611.37,294.87 591.72,306.41 592.46,306.85 			"/>
		</g>
		<g>
			<polygon class="st38" points="591.64,307.33 590.9,306.89 571.24,318.43 571.98,318.87 			"/>
		</g>
		<g>
			<polygon class="st38" points="555.82,310.2 555.08,309.76 535.43,321.3 536.16,321.74 			"/>
		</g>
		<g>
			<polygon class="st38" points="642.79,313.61 642.05,313.17 622.4,324.71 623.14,325.15 			"/>
		</g>
		<g>
			<polygon class="st38" points="550.68,331.37 549.95,330.93 530.29,342.48 531.03,342.91 			"/>
		</g>
		<g>
			<polygon class="st38" points="566.03,340.52 565.29,340.08 545.63,351.63 546.37,352.06 			"/>
		</g>
		<g>
			<polygon class="st38" points="581.37,349.67 580.63,349.24 560.98,360.78 561.71,361.22 			"/>
		</g>
		<g>
			<polygon class="st38" points="525.16,363.64 524.75,363.89 525.49,364.32 525.9,364.08 545.55,352.54 544.81,352.11 			"/>
		</g>
		<g>
			<polygon class="st38" points="540.51,372.79 540.09,373.04 540.83,373.47 541.24,373.23 560.89,361.7 560.16,361.26 			"/>
		</g>
		<g>
			<polyline class="st38" points="561.71,361.22 560.98,360.78 546.37,352.06 545.63,351.63 531.03,342.91 530.29,342.48 
				515.68,333.76 514.95,333.32 500.34,324.61 499.98,324.4 499.16,324.88 499.52,325.09 514.13,333.81 514.87,334.24 
				529.47,342.96 530.21,343.39 544.81,352.11 545.55,352.55 560.16,361.26 560.89,361.7 			"/>
		</g>
		<g>
			<line class="st40" x1="478.31" y1="336.68" x2="478.24" y2="337.59"/>
		</g>
	</g>
</g>
<g>
	<g class="st2">
		<g>
			<polygon class="st42" points="671.63,291.18 667.11,304.26 622.21,279.36 622.26,262.67 			"/>
		</g>
		<g>
			<polygon class="st43" points="622.26,262.67 622.21,279.36 495.17,351.74 490.69,339.13 			"/>
		</g>
		<g>
			<path class="st44" d="M540.11,377.7l-66.79-38.56l148.89-86.52L689,291.18 M540.06,367.64c39.39-22.89,78.78-45.78,118.16-68.67
				c4.47-2.6,8.94-5.19,13.41-7.79c-16.46-9.5-32.92-19-49.37-28.51l-131.57,76.46l48.87,28.22L540.06,367.64"/>
		</g>
	</g>
</g>
<g>
	<path class="st41" d="M961.88,81.32c14.41,8.14,26.06,27.87,26.02,44.08c0,1.36-0.1,2.63-0.26,3.86c1.88,0.3,3.91,1.03,6.02,2.22
		c9.84,5.56,17.79,19.03,17.76,30.09c-0.03,10.59-7.36,15.12-16.62,10.61L920.01,130c-12.75-7.2-23.05-24.66-23.01-38.99
		c0.04-14.33,10.41-20.11,23.16-12.91c6.03,3.41,11.52,9.11,15.61,15.69C936.81,79.16,948.11,73.54,961.88,81.32z"/>
</g>
<g>
	<path class="st20" d="M956.82,86.12c14.41,8.14,26.06,27.87,26.02,44.08c0,1.36-0.1,2.63-0.26,3.86c1.88,0.3,3.91,1.03,6.02,2.22
		c9.84,5.56,17.79,19.03,17.76,30.09c-0.03,10.59-7.36,15.12-16.62,10.61l-74.78-42.18c-12.75-7.2-23.05-24.66-23.01-38.99
		s10.41-20.11,23.16-12.91c6.03,3.41,11.52,9.11,15.61,15.69C931.75,83.97,943.05,78.35,956.82,86.12z"/>
</g>
<g>
	<path class="st41" d="M1012.21,197.76c6.29,3.55,11.38,12.17,11.36,19.24c0,0.59-0.04,1.15-0.11,1.68
		c0.82,0.13,1.71,0.45,2.63,0.97c4.3,2.43,7.77,8.31,7.75,13.14c-0.01,4.62-3.21,6.6-7.26,4.63l-32.64-18.41
		c-5.57-3.14-10.06-10.76-10.04-17.02s4.54-8.78,10.11-5.64c2.63,1.49,5.03,3.98,6.82,6.85
		C1001.27,196.82,1006.2,194.36,1012.21,197.76z"/>
</g>
<g>
	<path class="st20" d="M1010,199.86c6.29,3.55,11.38,12.17,11.36,19.24c0,0.59-0.04,1.15-0.11,1.68c0.82,0.13,1.71,0.45,2.63,0.97
		c4.3,2.43,7.77,8.31,7.75,13.14c-0.01,4.62-3.21,6.6-7.26,4.63l-32.64-18.41c-5.57-3.14-10.06-10.76-10.04-17.02
		s4.54-8.78,10.11-5.64c2.63,1.49,5.03,3.98,6.82,6.85C999.06,198.92,1003.99,196.46,1010,199.86z"/>
</g>
<g>
	<path class="st41" d="M272.41,186.29c-14.34,8.1-25.93,27.73-25.88,43.85c0,1.35,0.1,2.62,0.26,3.84c-1.87,0.3-3.89,1.02-5.99,2.21
		c-9.79,5.53-17.7,18.93-17.67,29.94c0.03,10.53,7.33,15.04,16.54,10.56l74.41-41.96c12.69-7.17,22.94-24.53,22.9-38.79
		c-0.04-14.26-10.36-20.01-23.05-12.85c-6,3.39-11.46,9.07-15.54,15.61C297.36,184.14,286.11,178.55,272.41,186.29z"/>
</g>
<g>
	<path class="st20" d="M277.45,191.07c-14.34,8.1-25.93,27.73-25.88,43.85c0,1.35,0.1,2.62,0.26,3.84c-1.87,0.3-3.89,1.02-5.99,2.21
		c-9.79,5.53-17.7,18.93-17.67,29.94c0.03,10.53,7.33,15.04,16.54,10.56l74.41-41.96c12.69-7.17,22.94-24.53,22.9-38.79
		c-0.04-14.26-10.36-20.01-23.05-12.85c-6,3.39-11.46,9.07-15.54,15.61C302.39,188.93,291.15,183.34,277.45,191.07z"/>
</g>
</svg>
