<?xml version="1.0" encoding="utf-8"?>
<!-- Generator: Adobe Illustrator 28.0.0, SVG Export Plug-In . SVG Version: 6.00 Build 0)  -->
<svg version="1.1" id="图层_1" xmlns="http://www.w3.org/2000/svg" xmlns:xlink="http://www.w3.org/1999/xlink" x="0px" y="0px"
	 viewBox="0 0 1366 768" style="enable-background:new 0 0 1366 768;" xml:space="preserve">
<style type="text/css">
	.st0{fill:#29ABE2;}
	.st1{fill:#0071BC;}
	.st2{fill:#FF931E;stroke:#000000;stroke-width:1.4427;stroke-miterlimit:10;}
	.st3{fill:#1B1464;stroke:#000000;stroke-width:1.4427;stroke-miterlimit:10;}
	.st4{fill:none;stroke:#F7931E;stroke-width:28.8549;stroke-linecap:round;stroke-miterlimit:10;}
	.st5{fill:#FF931E;stroke:#000000;stroke-width:0.8979;stroke-miterlimit:10;}
	.st6{fill:#1B1464;stroke:#000000;stroke-width:0.8979;stroke-miterlimit:10;}
	.st7{fill:none;stroke:#F7931E;stroke-width:17.9583;stroke-linecap:round;stroke-miterlimit:10;}
	.st8{fill:#FF931E;stroke:#000000;stroke-width:0.6405;stroke-miterlimit:10;}
	.st9{fill:#1B1464;stroke:#000000;stroke-width:0.6405;stroke-miterlimit:10;}
	.st10{fill:none;stroke:#F7931E;stroke-width:12.8093;stroke-linecap:round;stroke-miterlimit:10;}
</style>
<g>
	<g>
		<rect x="0" y="704" class="st0" width="1366" height="32"/>
		<rect x="0" y="640" class="st0" width="1366" height="32"/>
		<rect x="0" y="576" class="st0" width="1366" height="32"/>
		<rect x="0" y="512" class="st0" width="1366" height="32"/>
		<rect x="0" y="448" class="st0" width="1366" height="32"/>
		<rect x="0" y="384" class="st0" width="1366" height="32"/>
		<rect x="0" y="320" class="st0" width="1366" height="32"/>
		<rect x="0" y="256" class="st0" width="1366" height="32"/>
		<rect x="0" y="192" class="st0" width="1366" height="32"/>
		<rect x="0" y="128" class="st0" width="1366" height="32"/>
		<rect x="0" y="64" class="st0" width="1366" height="32"/>
		<rect x="0" y="0" class="st0" width="1366" height="32"/>
	</g>
</g>
<ellipse class="st1" cx="439" cy="639" rx="236" ry="28"/>
<g>
	<path class="st2" d="M173.6,140.13L57.3,401.08c0.11,0.04,0.22,0.08,0.33,0.12c69.73-138.36,237.78-205.45,387.64-154.74
		c0.05-0.11,0.1-0.21,0.14-0.31L173.6,140.13z"/>
	<path class="st3" d="M57.63,401.2c189.95,73.83,323.28-10.79,387.64-154.74C295.41,195.76,127.37,262.84,57.63,401.2z"/>
</g>
<line class="st4" x1="246.96" y1="313.23" x2="380.59" y2="628.5"/>
<ellipse class="st1" cx="664.68" cy="515.95" rx="148.68" ry="18.05"/>
<g>
	<path class="st5" d="M761.31,233L811,402.84c-0.07,0.02-0.14,0.03-0.22,0.05c-31.35-90.74-129.77-146.13-227.03-127.77
		c-0.02-0.07-0.04-0.14-0.06-0.21L761.31,233z"/>
	<path class="st6" d="M810.78,402.89c-124.1,29.13-199.49-34.06-227.03-127.77C681.01,256.76,779.43,312.15,810.78,402.89z"/>
</g>
<line class="st7" x1="700.96" y1="332.89" x2="591.06" y2="514.81"/>
<ellipse class="st1" cx="1100" cy="470.64" rx="148" ry="18.05"/>
<g>
	<path class="st8" d="M988.16,240L924,354.18c0.05,0.02,0.09,0.04,0.14,0.06c37.55-60.35,114.38-86.36,177.24-60
		c0.03-0.05,0.05-0.09,0.08-0.14L988.16,240z"/>
	<path class="st9" d="M924.14,354.24c79.18,37.69,141.75,2.98,177.24-60C1038.52,267.89,961.68,293.9,924.14,354.24z"/>
</g>
<line class="st10" x1="1011.34" y1="319.38" x2="1053.55" y2="463.96"/>
</svg>
