<svg xmlns:xlink="http://www.w3.org/1999/xlink" xmlns="http://www.w3.org/2000/svg" viewBox="0.00 0.00 412.00 790.00" height="790pt" width="412pt" style="color: rgb(51, 51, 51);">
<g transform="scale(1 1) rotate(0) translate(4 786)">
<title>Tree</title>
<polygon points="-4,4 -4,-786 408,-786 408,4 -4,4" stroke="none" fill="white"></polygon>

<g>
<title>0</title>
<path d="M160,-782C160,-782 71,-782 71,-782 65,-782 59,-776 59,-770 59,-770 59,-711 59,-711 59,-705 65,-699 71,-699 71,-699 160,-699 160,-699 166,-699 172,-705 172,-711 172,-711 172,-770 172,-770 172,-776 166,-782 160,-782" stroke="black" fill="#e8f3fc"></path>
<text font-size="14.00" font-family="Helvetica,sans-Serif" y="-766.8" x="77.5" text-anchor="start">Time ≤ 10.5</text>
<text font-size="14.00" font-family="Helvetica,sans-Serif" y="-751.8" x="78" text-anchor="start">gini = 0.498</text>
<text font-size="14.00" font-family="Helvetica,sans-Serif" y="-736.8" x="72" text-anchor="start">samples = 43</text>
<text font-size="14.00" font-family="Helvetica,sans-Serif" y="-721.8" x="67" text-anchor="start">value = [30, 34]</text>
<text font-size="14.00" font-family="Helvetica,sans-Serif" y="-706.8" x="78" text-anchor="start">class = Bad</text>
</g>

<g>
<title>1</title>
<path d="M93,-655.5C93,-655.5 12,-655.5 12,-655.5 6,-655.5 0,-649.5 0,-643.5 0,-643.5 0,-599.5 0,-599.5 0,-593.5 6,-587.5 12,-587.5 12,-587.5 93,-587.5 93,-587.5 99,-587.5 105,-593.5 105,-599.5 105,-599.5 105,-643.5 105,-643.5 105,-649.5 99,-655.5 93,-655.5" stroke="black" fill="#e58139"></path>
<text font-size="14.00" font-family="Helvetica,sans-Serif" y="-640.3" x="23.5" text-anchor="start">gini = 0.0</text>
<text font-size="14.00" font-family="Helvetica,sans-Serif" y="-625.3" x="9" text-anchor="start">samples = 10</text>
<text font-size="14.00" font-family="Helvetica,sans-Serif" y="-610.3" x="8" text-anchor="start">value = [17, 0]</text>
<text font-size="14.00" font-family="Helvetica,sans-Serif" y="-595.3" x="10" text-anchor="start">class = Good</text>
</g>

<g>
<title>0-&gt;1</title>
<path d="M93.47,-698.58C87.77,-687.99 81.61,-676.56 75.84,-665.85" stroke="black" fill="none"></path>
<polygon points="79,-664.34 71.18,-657.19 72.84,-667.66 79,-664.34" stroke="black" fill="black"></polygon>
<text font-size="14.00" font-family="Helvetica,sans-Serif" y="-676.11" x="63.28" text-anchor="middle">True</text>
</g>

<g>
<title>2</title>
<path d="M224,-663C224,-663 135,-663 135,-663 129,-663 123,-657 123,-651 123,-651 123,-592 123,-592 123,-586 129,-580 135,-580 135,-580 224,-580 224,-580 230,-580 236,-586 236,-592 236,-592 236,-651 236,-651 236,-657 230,-663 224,-663" stroke="black" fill="#85c2ef"></path>
<text font-size="14.00" font-family="Helvetica,sans-Serif" y="-647.8" x="141.5" text-anchor="start">Time ≤ 15.0</text>
<text font-size="14.00" font-family="Helvetica,sans-Serif" y="-632.8" x="150.5" text-anchor="start">gini = 0.4</text>
<text font-size="14.00" font-family="Helvetica,sans-Serif" y="-617.8" x="136" text-anchor="start">samples = 33</text>
<text font-size="14.00" font-family="Helvetica,sans-Serif" y="-602.8" x="131" text-anchor="start">value = [13, 34]</text>
<text font-size="14.00" font-family="Helvetica,sans-Serif" y="-587.8" x="142" text-anchor="start">class = Bad</text>
</g>

<g>
<title>0-&gt;2</title>
<path d="M137.88,-698.58C142.39,-690.34 147.18,-681.58 151.84,-673.06" stroke="black" fill="none"></path>
<polygon points="154.78,-674.98 156.51,-664.53 148.64,-671.62 154.78,-674.98" stroke="black" fill="black"></polygon>
<text font-size="14.00" font-family="Helvetica,sans-Serif" y="-683.49" x="164.26" text-anchor="middle">False</text>
</g>

<g>
<title>3</title>
<path d="M157,-536.5C157,-536.5 76,-536.5 76,-536.5 70,-536.5 64,-530.5 64,-524.5 64,-524.5 64,-480.5 64,-480.5 64,-474.5 70,-468.5 76,-468.5 76,-468.5 157,-468.5 157,-468.5 163,-468.5 169,-474.5 169,-480.5 169,-480.5 169,-524.5 169,-524.5 169,-530.5 163,-536.5 157,-536.5" stroke="black" fill="#399de5"></path>
<text font-size="14.00" font-family="Helvetica,sans-Serif" y="-521.3" x="87.5" text-anchor="start">gini = 0.0</text>
<text font-size="14.00" font-family="Helvetica,sans-Serif" y="-506.3" x="73" text-anchor="start">samples = 12</text>
<text font-size="14.00" font-family="Helvetica,sans-Serif" y="-491.3" x="72" text-anchor="start">value = [0, 14]</text>
<text font-size="14.00" font-family="Helvetica,sans-Serif" y="-476.3" x="79" text-anchor="start">class = Bad</text>
</g>

<g>
<title>2-&gt;3</title>
<path d="M157.47,-579.58C151.77,-568.99 145.61,-557.56 139.84,-546.85" stroke="black" fill="none"></path>
<polygon points="143,-545.34 135.18,-538.19 136.84,-548.66 143,-545.34" stroke="black" fill="black"></polygon>
</g>

<g>
<title>4</title>
<path d="M288,-544C288,-544 199,-544 199,-544 193,-544 187,-538 187,-532 187,-532 187,-473 187,-473 187,-467 193,-461 199,-461 199,-461 288,-461 288,-461 294,-461 300,-467 300,-473 300,-473 300,-532 300,-532 300,-538 294,-544 288,-544" stroke="black" fill="#baddf6"></path>
<text font-size="14.00" font-family="Helvetica,sans-Serif" y="-528.8" x="203.5" text-anchor="start">Coffee ≤ 5.0</text>
<text font-size="14.00" font-family="Helvetica,sans-Serif" y="-513.8" x="206" text-anchor="start">gini = 0.478</text>
<text font-size="14.00" font-family="Helvetica,sans-Serif" y="-498.8" x="200" text-anchor="start">samples = 21</text>
<text font-size="14.00" font-family="Helvetica,sans-Serif" y="-483.8" x="195" text-anchor="start">value = [13, 20]</text>
<text font-size="14.00" font-family="Helvetica,sans-Serif" y="-468.8" x="206" text-anchor="start">class = Bad</text>
</g>

<g>
<title>2-&gt;4</title>
<path d="M201.88,-579.58C206.39,-571.34 211.18,-562.58 215.84,-554.06" stroke="black" fill="none"></path>
<polygon points="218.78,-555.98 220.51,-545.53 212.64,-552.62 218.78,-555.98" stroke="black" fill="black"></polygon>
</g>

<g>
<title>5</title>
<path d="M224,-425C224,-425 135,-425 135,-425 129,-425 123,-419 123,-413 123,-413 123,-354 123,-354 123,-348 129,-342 135,-342 135,-342 224,-342 224,-342 230,-342 236,-348 236,-354 236,-354 236,-413 236,-413 236,-419 230,-425 224,-425" stroke="black" fill="#f9e2d1"></path>
<text font-size="14.00" font-family="Helvetica,sans-Serif" y="-409.8" x="141.5" text-anchor="start">Time ≤ 18.5</text>
<text font-size="14.00" font-family="Helvetica,sans-Serif" y="-394.8" x="142" text-anchor="start">gini = 0.491</text>
<text font-size="14.00" font-family="Helvetica,sans-Serif" y="-379.8" x="136" text-anchor="start">samples = 16</text>
<text font-size="14.00" font-family="Helvetica,sans-Serif" y="-364.8" x="131" text-anchor="start">value = [13, 10]</text>
<text font-size="14.00" font-family="Helvetica,sans-Serif" y="-349.8" x="137" text-anchor="start">class = Good</text>
</g>

<g>
<title>4-&gt;5</title>
<path d="M221.12,-460.58C216.61,-452.34 211.82,-443.58 207.16,-435.06" stroke="black" fill="none"></path>
<polygon points="210.36,-433.62 202.49,-426.53 204.22,-436.98 210.36,-433.62" stroke="black" fill="black"></polygon>
</g>

<g>
<title>12</title>
<path d="M347,-417.5C347,-417.5 266,-417.5 266,-417.5 260,-417.5 254,-411.5 254,-405.5 254,-405.5 254,-361.5 254,-361.5 254,-355.5 260,-349.5 266,-349.5 266,-349.5 347,-349.5 347,-349.5 353,-349.5 359,-355.5 359,-361.5 359,-361.5 359,-405.5 359,-405.5 359,-411.5 353,-417.5 347,-417.5" stroke="black" fill="#399de5"></path>
<text font-size="14.00" font-family="Helvetica,sans-Serif" y="-402.3" x="277.5" text-anchor="start">gini = 0.0</text>
<text font-size="14.00" font-family="Helvetica,sans-Serif" y="-387.3" x="267" text-anchor="start">samples = 5</text>
<text font-size="14.00" font-family="Helvetica,sans-Serif" y="-372.3" x="262" text-anchor="start">value = [0, 10]</text>
<text font-size="14.00" font-family="Helvetica,sans-Serif" y="-357.3" x="269" text-anchor="start">class = Bad</text>
</g>

<g>
<title>4-&gt;12</title>
<path d="M265.53,-460.58C271.23,-449.99 277.39,-438.56 283.16,-427.85" stroke="black" fill="none"></path>
<polygon points="286.16,-429.66 287.82,-419.19 280,-426.34 286.16,-429.66" stroke="black" fill="black"></polygon>
</g>

<g>
<title>6</title>
<path d="M158,-298.5C158,-298.5 81,-298.5 81,-298.5 75,-298.5 69,-292.5 69,-286.5 69,-286.5 69,-242.5 69,-242.5 69,-236.5 75,-230.5 81,-230.5 81,-230.5 158,-230.5 158,-230.5 164,-230.5 170,-236.5 170,-242.5 170,-242.5 170,-286.5 170,-286.5 170,-292.5 164,-298.5 158,-298.5" stroke="black" fill="#e58139"></path>
<text font-size="14.00" font-family="Helvetica,sans-Serif" y="-283.3" x="90.5" text-anchor="start">gini = 0.0</text>
<text font-size="14.00" font-family="Helvetica,sans-Serif" y="-268.3" x="80" text-anchor="start">samples = 8</text>
<text font-size="14.00" font-family="Helvetica,sans-Serif" y="-253.3" x="79" text-anchor="start">value = [9, 0]</text>
<text font-size="14.00" font-family="Helvetica,sans-Serif" y="-238.3" x="77" text-anchor="start">class = Good</text>
</g>

<g>
<title>5-&gt;6</title>
<path d="M158.51,-341.58C153.09,-330.99 147.22,-319.56 141.73,-308.85" stroke="black" fill="none"></path>
<polygon points="144.98,-307.51 137.3,-300.21 138.75,-310.7 144.98,-307.51" stroke="black" fill="black"></polygon>
</g>

<g>
<title>7</title>
<path d="M281,-306C281,-306 200,-306 200,-306 194,-306 188,-300 188,-294 188,-294 188,-235 188,-235 188,-229 194,-223 200,-223 200,-223 281,-223 281,-223 287,-223 293,-229 293,-235 293,-235 293,-294 293,-294 293,-300 287,-306 281,-306" stroke="black" fill="#88c4ef"></path>
<text font-size="14.00" font-family="Helvetica,sans-Serif" y="-290.8" x="200.5" text-anchor="start">Coffee ≤ 1.0</text>
<text font-size="14.00" font-family="Helvetica,sans-Serif" y="-275.8" x="203" text-anchor="start">gini = 0.408</text>
<text font-size="14.00" font-family="Helvetica,sans-Serif" y="-260.8" x="201" text-anchor="start">samples = 8</text>
<text font-size="14.00" font-family="Helvetica,sans-Serif" y="-245.8" x="196" text-anchor="start">value = [4, 10]</text>
<text font-size="14.00" font-family="Helvetica,sans-Serif" y="-230.8" x="203" text-anchor="start">class = Bad</text>
</g>

<g>
<title>5-&gt;7</title>
<path d="M200.83,-341.58C205.08,-333.43 209.6,-324.77 214,-316.34" stroke="black" fill="none"></path>
<polygon points="217.06,-318.03 218.58,-307.54 210.85,-314.79 217.06,-318.03" stroke="black" fill="black"></polygon>
</g>

<g>
<title>8</title>
<path d="M219,-179.5C219,-179.5 146,-179.5 146,-179.5 140,-179.5 134,-173.5 134,-167.5 134,-167.5 134,-123.5 134,-123.5 134,-117.5 140,-111.5 146,-111.5 146,-111.5 219,-111.5 219,-111.5 225,-111.5 231,-117.5 231,-123.5 231,-123.5 231,-167.5 231,-167.5 231,-173.5 225,-179.5 219,-179.5" stroke="black" fill="#399de5"></path>
<text font-size="14.00" font-family="Helvetica,sans-Serif" y="-164.3" x="153.5" text-anchor="start">gini = 0.0</text>
<text font-size="14.00" font-family="Helvetica,sans-Serif" y="-149.3" x="143" text-anchor="start">samples = 3</text>
<text font-size="14.00" font-family="Helvetica,sans-Serif" y="-134.3" x="142" text-anchor="start">value = [0, 5]</text>
<text font-size="14.00" font-family="Helvetica,sans-Serif" y="-119.3" x="145" text-anchor="start">class = Bad</text>
</g>

<g>
<title>7-&gt;8</title>
<path d="M220.21,-222.58C214.97,-211.99 209.3,-200.56 203.99,-189.85" stroke="black" fill="none"></path>
<polygon points="207.29,-188.62 199.71,-181.22 201.02,-191.73 207.29,-188.62" stroke="black" fill="black"></polygon>
</g>

<g>
<title>9</title>
<path d="M334,-187C334,-187 261,-187 261,-187 255,-187 249,-181 249,-175 249,-175 249,-116 249,-116 249,-110 255,-104 261,-104 261,-104 334,-104 334,-104 340,-104 346,-110 346,-116 346,-116 346,-175 346,-175 346,-181 340,-187 334,-187" stroke="black" fill="#d7ebfa"></path>
<text font-size="14.00" font-family="Helvetica,sans-Serif" y="-171.8" x="262.5" text-anchor="start">Age ≤ 38.0</text>
<text font-size="14.00" font-family="Helvetica,sans-Serif" y="-156.8" x="260" text-anchor="start">gini = 0.494</text>
<text font-size="14.00" font-family="Helvetica,sans-Serif" y="-141.8" x="258" text-anchor="start">samples = 5</text>
<text font-size="14.00" font-family="Helvetica,sans-Serif" y="-126.8" x="257" text-anchor="start">value = [4, 5]</text>
<text font-size="14.00" font-family="Helvetica,sans-Serif" y="-111.8" x="260" text-anchor="start">class = Bad</text>
</g>

<g>
<title>7-&gt;9</title>
<path d="M260.44,-222.58C264.41,-214.43 268.62,-205.77 272.73,-197.34" stroke="black" fill="none"></path>
<polygon points="275.78,-199.08 277.01,-188.56 269.48,-196.02 275.78,-199.08" stroke="black" fill="black"></polygon>
</g>

<g>
<title>10</title>
<path d="M277,-68C277,-68 200,-68 200,-68 194,-68 188,-62 188,-56 188,-56 188,-12 188,-12 188,-6 194,0 200,0 200,0 277,0 277,0 283,0 289,-6 289,-12 289,-12 289,-56 289,-56 289,-62 283,-68 277,-68" stroke="black" fill="#e58139"></path>
<text font-size="14.00" font-family="Helvetica,sans-Serif" y="-52.8" x="209.5" text-anchor="start">gini = 0.0</text>
<text font-size="14.00" font-family="Helvetica,sans-Serif" y="-37.8" x="199" text-anchor="start">samples = 3</text>
<text font-size="14.00" font-family="Helvetica,sans-Serif" y="-22.8" x="198" text-anchor="start">value = [4, 0]</text>
<text font-size="14.00" font-family="Helvetica,sans-Serif" y="-7.8" x="196" text-anchor="start">class = Good</text>
</g>

<g>
<title>9-&gt;10</title>
<path d="M275.53,-103.73C271.06,-95.43 266.34,-86.67 261.82,-78.28" stroke="black" fill="none"></path>
<polygon points="264.98,-76.78 257.16,-69.63 258.82,-80.1 264.98,-76.78" stroke="black" fill="black"></polygon>
</g>

<g>
<title>11</title>
<path d="M392,-68C392,-68 319,-68 319,-68 313,-68 307,-62 307,-56 307,-56 307,-12 307,-12 307,-6 313,0 319,0 319,0 392,0 392,0 398,0 404,-6 404,-12 404,-12 404,-56 404,-56 404,-62 398,-68 392,-68" stroke="black" fill="#399de5"></path>
<text font-size="14.00" font-family="Helvetica,sans-Serif" y="-52.8" x="326.5" text-anchor="start">gini = 0.0</text>
<text font-size="14.00" font-family="Helvetica,sans-Serif" y="-37.8" x="316" text-anchor="start">samples = 2</text>
<text font-size="14.00" font-family="Helvetica,sans-Serif" y="-22.8" x="315" text-anchor="start">value = [0, 5]</text>
<text font-size="14.00" font-family="Helvetica,sans-Serif" y="-7.8" x="318" text-anchor="start">class = Bad</text>
</g>

<g>
<title>9-&gt;11</title>
<path d="M319.1,-103.73C323.49,-95.43 328.13,-86.67 332.57,-78.28" stroke="black" fill="none"></path>
<polygon points="335.57,-80.11 337.15,-69.64 329.38,-76.84 335.57,-80.11" stroke="black" fill="black"></polygon>
</g>

<g>
<title>\n</title>
<path d="M232.5,-758.5C232.5,-758.5 202.5,-758.5 202.5,-758.5 196.5,-758.5 190.5,-752.5 190.5,-746.5 190.5,-746.5 190.5,-734.5 190.5,-734.5 190.5,-728.5 196.5,-722.5 202.5,-722.5 202.5,-722.5 232.5,-722.5 232.5,-722.5 238.5,-722.5 244.5,-728.5 244.5,-734.5 244.5,-734.5 244.5,-746.5 244.5,-746.5 244.5,-752.5 238.5,-758.5 232.5,-758.5" stroke="black" fill="black"></path>
</g>
</g>
</svg>