<?xml version="1.0" encoding="utf-8"?>
<!-- Generator: Adobe Illustrator 28.0.0, SVG Export Plug-In . SVG Version: 6.00 Build 0)  -->
<svg version="1.1" xmlns="http://www.w3.org/2000/svg" xmlns:xlink="http://www.w3.org/1999/xlink" x="0px" y="0px"
	 viewBox="0 0 1920 1080" style="enable-background:new 0 0 1920 1080;" xml:space="preserve">
<style type="text/css">
	.st0{fill:#DBFAFF;}
	.st1{fill:#29EEE2;}
	.st2{fill:#29ABE2;}
</style>
<g id="图层_2">
	<rect y="0" class="st0" width="1920" height="1080"/>
</g>
<g id="图层_1">
	<polygon class="st1" points="160,191.25 0,270 0,78.75 160,0 	"/>
	<polygon class="st2" points="320,270 160,191.25 160,0 320,78.75 	"/>
	<polygon class="st1" points="160,348.75 320,270 320,461.25 160,540 	"/>
	<polygon class="st2" points="0,270 160,348.75 160,540 0,461.25 	"/>
	<polygon class="st1" points="480,191.25 320,270 320,78.75 480,0 	"/>
	<polygon class="st2" points="640,270 480,191.25 480,0 640,78.75 	"/>
	<polygon class="st1" points="480,348.75 640,270 640,461.25 480,540 	"/>
	<polygon class="st2" points="320,270 480,348.75 480,540 320,461.25 	"/>
	<polygon class="st1" points="800,191.25 640,270 640,78.75 800,0 	"/>
	<polygon class="st2" points="960,270 800,191.25 800,0 960,78.75 	"/>
	<polygon class="st1" points="800,348.75 960,270 960,461.25 800,540 	"/>
	<polygon class="st2" points="640,270 800,348.75 800,540 640,461.25 	"/>
	<polygon class="st1" points="1120,191.25 960,270 960,78.75 1120,0 	"/>
	<polygon class="st2" points="1280,270 1120,191.25 1120,0 1280,78.75 	"/>
	<polygon class="st1" points="1120,348.75 1280,270 1280,461.25 1120,540 	"/>
	<polygon class="st2" points="960,270 1120,348.75 1120,540 960,461.25 	"/>
	<polygon class="st1" points="1440,191.25 1280,270 1280,78.75 1440,0 	"/>
	<polygon class="st2" points="1600,270 1440,191.25 1440,0 1600,78.75 	"/>
	<polygon class="st1" points="1440,348.75 1600,270 1600,461.25 1440,540 	"/>
	<polygon class="st2" points="1280,270 1440,348.75 1440,540 1280,461.25 	"/>
	<polygon class="st1" points="1760,191.25 1600,270 1600,78.75 1760,0 	"/>
	<polygon class="st2" points="1920,270 1760,191.25 1760,0 1920,78.75 	"/>
	<polygon class="st1" points="1760,348.75 1920,270 1920,461.25 1760,540 	"/>
	<polygon class="st2" points="1600,270 1760,348.75 1760,540 1600,461.25 	"/>
	<polygon class="st1" points="160,731.25 0,810 0,618.75 160,540 	"/>
	<polygon class="st2" points="320,810 160,731.25 160,540 320,618.75 	"/>
	<polygon class="st1" points="160,888.75 320,810 320,1001.25 160,1080 	"/>
	<polygon class="st2" points="0,810 160,888.75 160,1080 0,1001.25 	"/>
	<polygon class="st1" points="480,731.25 320,810 320,618.75 480,540 	"/>
	<polygon class="st2" points="640,810 480,731.25 480,540 640,618.75 	"/>
	<polygon class="st1" points="480,888.75 640,810 640,1001.25 480,1080 	"/>
	<polygon class="st2" points="320,810 480,888.75 480,1080 320,1001.25 	"/>
	<polygon class="st1" points="800,731.25 640,810 640,618.75 800,540 	"/>
	<polygon class="st2" points="960,810 800,731.25 800,540 960,618.75 	"/>
	<polygon class="st1" points="800,888.75 960,810 960,1001.25 800,1080 	"/>
	<polygon class="st2" points="640,810 800,888.75 800,1080 640,1001.25 	"/>
	<polygon class="st1" points="1120,731.25 960,810 960,618.75 1120,540 	"/>
	<polygon class="st2" points="1280,810 1120,731.25 1120,540 1280,618.75 	"/>
	<polygon class="st1" points="1120,888.75 1280,810 1280,1001.25 1120,1080 	"/>
	<polygon class="st2" points="960,810 1120,888.75 1120,1080 960,1001.25 	"/>
	<polygon class="st1" points="1440,731.25 1280,810 1280,618.75 1440,540 	"/>
	<polygon class="st2" points="1600,810 1440,731.25 1440,540 1600,618.75 	"/>
	<polygon class="st1" points="1440,888.75 1600,810 1600,1001.25 1440,1080 	"/>
	<polygon class="st2" points="1280,810 1440,888.75 1440,1080 1280,1001.25 	"/>
	<polygon class="st1" points="1760,731.25 1600,810 1600,618.75 1760,540 	"/>
	<polygon class="st2" points="1920,810 1760,731.25 1760,540 1920,618.75 	"/>
	<polygon class="st1" points="1760,888.75 1920,810 1920,1001.25 1760,1080 	"/>
	<polygon class="st2" points="1600,810 1760,888.75 1760,1080 1600,1001.25 	"/>
</g>
</svg>
