<?xml version="1.0" encoding="utf-8"?>
<!-- Generator: Adobe Illustrator 28.0.0, SVG Export Plug-In . SVG Version: 6.00 Build 0)  -->
<svg version="1.1" id="图层_1" xmlns="http://www.w3.org/2000/svg" xmlns:xlink="http://www.w3.org/1999/xlink" x="0px" y="0px"
	 viewBox="0 0 595.28 841.89" style="enable-background:new 0 0 595.28 841.89;" xml:space="preserve">
<style type="text/css">
	.st0{fill:#323333;}
	.st1{fill:#4D4D4D;}
	.st2{fill:#666666;}
	.st3{fill:#7F8080;}
	.st4{fill:#999899;}
	.st5{fill:#B3B3B3;}
	.st6{fill:#CCCCCC;}
	.st7{fill:#E6E6E5;}
	.st8{fill:#FFFFFF;}
	.st9{fill:none;stroke:#ACADAE;stroke-width:1.3198;stroke-miterlimit:10;}
	.st10{fill:none;stroke:#000000;stroke-width:1.3198;stroke-miterlimit:10;}
	.st11{fill:none;stroke:#AAABAB;stroke-width:1.3198;stroke-miterlimit:10;}
	.st12{fill:#E55927;}
	.st13{fill:#CFEAED;}
	.st14{fill:#323333;stroke:#ACADAE;stroke-width:1.3198;stroke-miterlimit:10;}
</style>
<rect class="st0" width="595.28" height="57.41"/>
<rect y="57.41" class="st1" width="595.28" height="57.41"/>
<rect y="114.82" class="st2" width="595.28" height="57.41"/>
<rect y="172.23" class="st3" width="595.28" height="57.41"/>
<rect y="229.63" class="st4" width="595.28" height="57.41"/>
<rect y="287.04" class="st5" width="595.28" height="57.41"/>
<rect y="344.45" class="st6" width="595.28" height="57.41"/>
<rect y="401.86" class="st7" width="595.28" height="57.41"/>
<rect y="459.27" class="st8" width="595.28" height="57.41"/>
<path class="st9" d="M93.07,401.23c8.16-9,20.09-19.21,32.76-17.47c9.34,1.28,12.9,8.19,25.9,18.41
	c12.4,9.74,28.43,22.35,43.37,21.84c27.16-0.92,35.13-44.66,57.41-44.31c7.71,0.12,19.47,5.55,33.7,34.95"/>
<path class="st10" d="M16.39,493.89c8.16-9,20.09-19.21,32.76-17.47c9.34,1.28,12.9,8.19,25.9,18.41
	c12.4,9.74,28.43,22.35,43.37,21.84c27.16-0.92,35.13-44.66,57.41-44.31c7.71,0.12,19.47,5.55,33.7,34.95"/>
<path class="st10" d="M374.61,493.89c8.16-9,20.09-19.21,32.76-17.47c9.34,1.28,12.9,8.19,25.9,18.41
	c12.4,9.74,28.43,22.35,43.37,21.84c27.16-0.92,35.13-44.66,57.41-44.31c7.71,0.12,19.47,5.55,33.7,34.95"/>
<path class="st11" d="M305.53,423.39c8.16-9,20.09-19.21,32.76-17.47c9.34,1.28,12.9,8.19,25.9,18.41
	c12.4,9.74,28.43,22.35,43.37,21.84c27.16-0.92,35.13-44.66,57.41-44.31c7.71,0.12,19.47,5.55,33.7,34.95"/>
<circle class="st12" cx="297.64" cy="477.43" r="110.99"/>
<rect y="516.68" class="st13" width="595.28" height="325.21"/>
<path class="st14" d="M251.51,841.89H423.4c0,0-95.12-63.87-87.43-109.56c7.69-45.69,91.04-69.69,60.92-114.73
	c-67.38-100.75-204.36-101.75-203.1-100.93c0,0,104.59,83.92,99.85,115.96c-4.75,32.04-109.78,11.27-116.31,82.48
	C170.8,786.33,251.51,841.89,251.51,841.89z"/>
</svg>
