<?xml version="1.0" encoding="utf-8"?>
<!-- Generator: Adobe Illustrator 28.0.0, SVG Export Plug-In . SVG Version: 6.00 Build 0)  -->
<svg version="1.1" id="图层_1" xmlns="http://www.w3.org/2000/svg" xmlns:xlink="http://www.w3.org/1999/xlink" x="0px" y="0px"
	 viewBox="0 0 1366 768" style="enable-background:new 0 0 1366 768;" xml:space="preserve">
<style type="text/css">
	.st0{fill:#1B1464;}
	.st1{font-family:'BerlinSansFBDemi-Bold';}
	.st2{font-size:230.3709px;}
	.st3{fill:#501669;}
	.st4{fill:#84196F;}
	.st5{fill:#B91B74;}
	.st6{fill:#ED1E79;}
	.st7{display:none;fill:none;stroke:#1B1464;stroke-width:1.81;stroke-miterlimit:10;}
	.st8{font-size:440.4747px;}
	.st9{fill:none;stroke:#33225C;stroke-width:1.81;stroke-miterlimit:10;}
	.st10{fill:none;stroke:#4C3054;stroke-width:1.81;stroke-miterlimit:10;}
	.st11{fill:none;stroke:#643E4D;stroke-width:1.81;stroke-miterlimit:10;}
	.st12{fill:none;stroke:#7D4C45;stroke-width:1.81;stroke-miterlimit:10;}
	.st13{fill:none;stroke:#955B3D;stroke-width:1.81;stroke-miterlimit:10;}
	.st14{fill:none;stroke:#AE6935;stroke-width:1.81;stroke-miterlimit:10;}
	.st15{fill:none;stroke:#C6772E;stroke-width:1.81;stroke-miterlimit:10;}
	.st16{fill:none;stroke:#DF8526;stroke-width:1.81;stroke-miterlimit:10;}
	.st17{fill:none;stroke:#F7931E;stroke-width:1.81;stroke-miterlimit:10;}
</style>
<g>
	<rect class="st0" width="1366" height="768"/>
</g>
<g>
	<text transform="matrix(0.838 -0.5774 0 1 86.7691 655.8672)" class="st0 st1 st2">GUANZ</text>
	<g>
		<path class="st3" d="M230.24,576.58c0.12,1.94-0.75,3.56-2.64,4.86c-1.2,0.82-4.64,2.37-10.32,4.64
			c-5.69,2.27-9.19,3.56-10.51,3.87c-13.14,15.2-25.73,26.95-37.8,35.27c-19.42,13.38-35.33,16.6-47.79,9.75
			c-12.3-6.76-18.48-21.73-18.48-44.98c0-23.77,5.97-47.61,17.91-71.51c12.32-24.68,28.31-43.8,47.98-57.35
			c9.55-6.58,18.53-10.64,26.96-12.05c9.1-1.52,16.27,0.34,21.49,5.44c1.07,1.06,1.6,1.97,1.6,2.72c0,2.4-2.81,9.72-8.44,21.96
			c-5.63,12.24-9.25,18.92-10.89,20.04c-0.38,0.26-1.81-0.31-4.34-1.62c-3.06-1.59-6.22-2.22-9.43-2.05
			c-4.78,0.25-10.06,2.32-15.84,6.3c-9.43,6.49-16.91,15.85-22.43,28.05c-5.15,11.28-7.73,22.69-7.73,34.24
			c0,12.22,2.67,20.06,8.01,23.5c5.53,3.54,13.35,1.82,23.47-5.15c6.41-4.42,13.57-11.27,21.49-20.54
			c-0.19-2.34-0.69-8.26-1.7-17.73c-0.77-7.24-1.23-13.25-1.23-18.05c0-1.42,0.41-2.57,1.23-3.43c0.31-0.37,0.82-0.79,1.51-1.26
			c1.82-1.25,4.57-2.94,8.25-5.06c3.68-2.12,6.46-3.83,8.34-5.13c2.01-1.39,5.03-3.63,9.05-6.74c4.02-3.11,7.04-5.36,9.05-6.74
			c1.57-1.08,2.36-0.39,2.36,2.09c0,3.6-0.17,9.16-0.52,16.67c-0.35,7.51-0.52,13.07-0.52,16.67c0,9.67,0.6,23.74,1.79,42.19
			L230.24,576.58z"/>
		<path class="st3" d="M355.99,438.31c0,19.12-1.92,33.49-5.75,43.11c-7.04,17.6-24.6,36.07-52.69,55.43
			c-12.69,8.75-22.47,14.32-29.32,16.71c-10.93,3.78-18.04,1.52-21.3-6.81c-1.64-4.05-2.45-12.71-2.45-25.98
			c0-3.07,0.09-7.71,0.28-13.92c0.19-6.2,0.28-10.81,0.28-13.81c0-8.7-0.35-21.51-1.04-38.43c-0.69-16.92-1.04-29.69-1.04-38.32
			c0-1.8,0.66-3.15,1.98-4.06c3.83-2.64,9.63-6.45,17.39-11.42c7.76-4.97,13.56-8.78,17.39-11.42c1.57-1.08,2.36-0.8,2.36,0.85
			c0,9.9-0.27,24.91-0.8,45.04c-0.54,20.13-0.8,35.14-0.8,45.04c0,11.77,1.06,18.99,3.11,21.71c2.79,3.7,8.55,2.55,17.34-3.51
			c12.88-8.88,19.32-20.78,19.32-35.7c0-10.87-0.22-27.03-0.66-48.48c-0.44-21.44-0.66-37.6-0.66-48.48c0-2.32,0.78-4.03,2.36-5.11
			c3.71-2.55,9.3-6.59,16.78-12.12c7.48-5.53,13.07-9.57,16.78-12.12c1.82-1.26,2.73-0.98,2.73,0.82c0,8.62-0.3,21.84-0.9,39.65
			c-0.6,17.81-0.9,31.06-0.9,39.76c0,2.4,0.03,6,0.09,10.79C355.96,432.32,355.99,435.91,355.99,438.31z"/>
		<path class="st3" d="M432.06,335.85c-1.32,4.21-3.55,12.91-6.69,26.1c-3.39,14.04-5.09,22.07-5.09,24.09
			c0,1.35,1.89,0.8,5.66-1.65c1.95-1.19,5.15-3.32,9.61-6.4c4.15-2.86,6.44-5.04,6.88-6.54c0.13-0.46,0.19-1.03,0.19-1.71
			c0-2.47-1.43-8.31-4.34-17.48C435.47,343.4,433.38,337.94,432.06,335.85z M498.89,392.28c0,1.35-0.78,2.84-2.36,4.44
			c-1.88,1.91-7.73,6.22-17.53,12.98c-8.99,6.19-14.76,9.89-17.34,11.05c-2.13,0.96-3.49,0.19-4.05-2.27
			c-2.14-9.33-3.81-14.02-5-13.88c-1.01,0.12-9.43,5.71-25.26,16.62c-10.68,7.36-16.37,11.62-17.06,12.77
			c-1.07,1.94-2.26,6.77-3.58,14.5c-1.19,7.05-2.63,11.43-4.34,13.11c-2.12,2.09-9.3,7.31-21.49,15.71
			c-9.62,6.62-14.42,8.85-14.42,6.67c0-1.95,7.1-30.8,21.3-86.55c15.4-60.33,23.75-93.42,25.07-99.28c0.75-3.37,1.63-5.4,2.64-6.09
			c1.7-1.17,4.32-2.79,7.87-4.86c3.55-2.07,6.21-3.71,7.97-4.93c1.7-1.17,4.19-3.02,7.49-5.56c3.3-2.53,5.77-4.37,7.4-5.49
			c1.19-0.82,2.29-0.34,3.3,1.44c3.08,5.75,12.07,26.56,26.96,62.42C491.42,371.18,498.89,390.25,498.89,392.28z"/>
		<path class="st3" d="M634.63,147.24c0,8.55-0.3,21.6-0.89,39.14c-0.6,17.55-0.9,30.63-0.9,39.26v74.13c0,2.02-0.91,3.67-2.73,4.92
			c-1.51,1.04-3.79,2.68-6.83,4.93c-3.05,2.25-5.33,3.9-6.83,4.93c-1.63,1.13-4.09,2.66-7.35,4.62c-3.27,1.95-5.72,3.49-7.35,4.62
			c-1.13,0.78-2.48,0.47-4.05-0.92c-4.52-4.16-14.7-13.27-30.54-27.33c-4.34-3.99-10.93-9.71-19.8-17.18
			c-0.25-0.28-0.72-0.4-1.41-0.38c-0.5,0.87-0.75,1.87-0.75,2.99c0,8.7,0.2,21.61,0.61,38.72c0.41,17.12,0.61,30.02,0.61,38.72
			c0,2.62-0.85,4.52-2.55,5.69l-32.62,22.47c-1.82,1.26-2.73,0.72-2.73-1.6c0-8.1,0.33-20.55,0.99-37.35
			c0.66-16.8,0.99-29.29,0.99-37.46c0-8.62-0.3-21.32-0.9-38.08c-0.6-16.76-0.9-29.42-0.9-37.96c0-1.65,1.23-3.32,3.68-5.01
			c3.64-2.51,8.14-5.91,13.48-10.19c1.26-1.01,3.73-3.22,7.45-6.59c3.14-2.85,5.62-4.89,7.45-6.14c0.75-0.52,1.92-0.04,3.49,1.42
			l35.16,33.26c3.14,3.01,7.89,7.32,14.23,12.92c1.57,1.24,2.92,1.47,4.05,0.69c0.82-0.56,1.23-3.77,1.23-9.62
			c0-7.87-0.36-19.47-1.08-34.8c-0.72-15.32-1.08-26.96-1.08-34.91c0-2.77,0.66-4.62,1.98-5.53c3.77-2.6,9.46-6.7,17.06-12.32
			c7.6-5.61,13.29-9.72,17.06-12.32C634.04,144.16,634.63,144.91,634.63,147.24z"/>
		<path class="st3" d="M737.1,232.77c-3.71,2.56-9.27,6.16-16.69,10.82c-7.42,4.66-12.98,8.27-16.68,10.82
			c-5.28,3.64-13.17,8.99-23.66,16.08c-10.5,7.08-18.38,12.44-23.66,16.08c-2.26,1.56-3.69,1.61-3.86,0.08
			c-0.54-4.68-0.3-11.48-1.88-20.07c-0.59-3.19-1.13-4.96-1.13-5.41c0-0.37,7.7-20.21,23.09-59.5c15.4-39.29,23.09-60.02,23.09-62.2
			c0-1.2-0.82-1.24-2.45-0.11c-4.4,3.03-11.04,7.76-19.94,14.19c-8.89,6.43-15.57,11.18-20.03,14.25c-1.38,0.95-2.07,0.57-2.07-1.16
			c0-2.77,0.71-8.66,2.12-17.66c1.41-9,2.12-15.3,2.12-18.9c0-1.2,0.85-2.38,2.54-3.55c8.67-5.97,21.7-14.72,39.07-26.24
			c17.38-11.52,30.4-20.27,39.07-26.24c1.32-0.91,2.17-0.63,2.54,0.83c1.13,5.22,1.7,13.42,1.7,24.59c0,1.35-0.57,3.43-1.7,6.23
			c-3.96,9.55-12.29,30.36-24.98,62.43c-14.46,36.58-21.68,55.51-21.68,56.78c0,0.6,0.53,0.53,1.6-0.21
			c12.76-8.79,22.56-15.84,29.41-21.16c1.38-1.03,4.41-3.54,9.05-7.58c3.97-3.46,6.88-5.87,8.77-7.16c0.88-0.61,1.32-0.12,1.32,1.45
			c0,12.22-0.91,25.04-2.73,38.44C739.2,230.5,738.42,231.86,737.1,232.77z"/>
	</g>
	<g>
		<path class="st4" d="M240.99,592.33c0.12,1.94-0.75,3.56-2.64,4.86c-1.2,0.82-4.64,2.37-10.32,4.64
			c-5.69,2.27-9.19,3.56-10.51,3.87c-13.14,15.2-25.73,26.95-37.8,35.27c-19.42,13.38-35.33,16.6-47.79,9.75
			c-12.3-6.76-18.48-21.73-18.48-44.98c0-23.77,5.97-47.61,17.91-71.51c12.32-24.68,28.31-43.8,47.98-57.35
			c9.55-6.58,18.53-10.64,26.96-12.05c9.1-1.52,16.27,0.34,21.49,5.44c1.07,1.06,1.6,1.97,1.6,2.72c0,2.4-2.81,9.72-8.44,21.96
			c-5.63,12.24-9.25,18.92-10.89,20.04c-0.38,0.26-1.81-0.31-4.34-1.62c-3.06-1.59-6.22-2.22-9.43-2.05
			c-4.78,0.25-10.06,2.32-15.84,6.3c-9.43,6.49-16.91,15.85-22.43,28.05c-5.15,11.28-7.73,22.69-7.73,34.24
			c0,12.22,2.67,20.06,8.01,23.5c5.53,3.54,13.35,1.82,23.47-5.15c6.41-4.42,13.57-11.27,21.49-20.54
			c-0.19-2.34-0.69-8.26-1.7-17.73c-0.77-7.24-1.23-13.25-1.23-18.05c0-1.42,0.41-2.57,1.23-3.43c0.31-0.37,0.82-0.79,1.51-1.26
			c1.82-1.25,4.57-2.94,8.25-5.06c3.68-2.12,6.46-3.83,8.34-5.13c2.01-1.39,5.03-3.63,9.05-6.74c4.02-3.11,7.04-5.36,9.05-6.74
			c1.57-1.08,2.36-0.39,2.36,2.09c0,3.6-0.17,9.16-0.52,16.67c-0.35,7.51-0.52,13.07-0.52,16.67c0,9.67,0.6,23.74,1.79,42.19
			L240.99,592.33z"/>
		<path class="st4" d="M366.74,454.06c0,19.12-1.92,33.49-5.75,43.11c-7.04,17.6-24.6,36.07-52.69,55.43
			c-12.69,8.75-22.47,14.32-29.32,16.71c-10.93,3.78-18.04,1.52-21.3-6.81c-1.64-4.05-2.45-12.71-2.45-25.98
			c0-3.07,0.09-7.71,0.28-13.92c0.19-6.2,0.28-10.81,0.28-13.81c0-8.7-0.35-21.51-1.04-38.43c-0.69-16.92-1.04-29.69-1.04-38.32
			c0-1.8,0.66-3.15,1.98-4.06c3.83-2.64,9.63-6.45,17.39-11.42c7.76-4.97,13.56-8.78,17.39-11.42c1.57-1.08,2.36-0.8,2.36,0.85
			c0,9.9-0.27,24.91-0.8,45.04c-0.54,20.13-0.8,35.14-0.8,45.04c0,11.77,1.06,18.99,3.11,21.71c2.79,3.7,8.55,2.55,17.34-3.51
			c12.88-8.88,19.32-20.78,19.32-35.7c0-10.87-0.22-27.03-0.66-48.48c-0.44-21.44-0.66-37.6-0.66-48.48c0-2.32,0.78-4.03,2.36-5.11
			c3.71-2.55,9.3-6.59,16.78-12.12c7.48-5.53,13.07-9.57,16.78-12.12c1.82-1.26,2.73-0.98,2.73,0.82c0,8.62-0.3,21.84-0.9,39.65
			c-0.6,17.81-0.9,31.06-0.9,39.76c0,2.4,0.03,6,0.09,10.79C366.71,448.07,366.74,451.66,366.74,454.06z"/>
		<path class="st4" d="M442.81,351.6c-1.32,4.21-3.55,12.91-6.69,26.1c-3.39,14.04-5.09,22.07-5.09,24.09c0,1.35,1.89,0.8,5.66-1.65
			c1.95-1.19,5.15-3.32,9.61-6.4c4.15-2.86,6.44-5.04,6.88-6.54c0.13-0.46,0.19-1.03,0.19-1.71c0-2.47-1.43-8.31-4.34-17.48
			C446.22,359.15,444.13,353.69,442.81,351.6z M509.64,408.03c0,1.35-0.78,2.84-2.36,4.44c-1.88,1.91-7.73,6.22-17.53,12.98
			c-8.99,6.19-14.76,9.89-17.34,11.05c-2.13,0.96-3.49,0.19-4.05-2.27c-2.14-9.33-3.81-14.02-5-13.88
			c-1.01,0.12-9.43,5.71-25.26,16.62c-10.68,7.36-16.37,11.62-17.06,12.77c-1.07,1.94-2.26,6.77-3.58,14.5
			c-1.19,7.05-2.63,11.43-4.34,13.11c-2.12,2.09-9.3,7.31-21.49,15.71c-9.62,6.62-14.42,8.85-14.42,6.67c0-1.95,7.1-30.8,21.3-86.55
			c15.4-60.33,23.75-93.42,25.07-99.28c0.75-3.37,1.63-5.4,2.64-6.09c1.7-1.17,4.32-2.79,7.87-4.86c3.55-2.07,6.21-3.71,7.97-4.93
			c1.7-1.17,4.19-3.02,7.49-5.56c3.3-2.53,5.77-4.37,7.4-5.49c1.19-0.82,2.29-0.34,3.3,1.44c3.08,5.75,12.07,26.56,26.96,62.42
			C502.17,386.93,509.64,406,509.64,408.03z"/>
		<path class="st4" d="M645.38,162.99c0,8.55-0.3,21.6-0.89,39.14c-0.6,17.55-0.9,30.63-0.9,39.26v74.13c0,2.02-0.91,3.67-2.73,4.92
			c-1.51,1.04-3.79,2.68-6.83,4.93c-3.05,2.25-5.33,3.9-6.83,4.93c-1.63,1.13-4.09,2.66-7.35,4.62c-3.27,1.95-5.72,3.49-7.35,4.62
			c-1.13,0.78-2.48,0.47-4.05-0.92c-4.52-4.16-14.7-13.27-30.54-27.33c-4.34-3.99-10.93-9.71-19.8-17.18
			c-0.25-0.28-0.72-0.4-1.41-0.38c-0.5,0.87-0.75,1.87-0.75,2.99c0,8.7,0.2,21.61,0.61,38.72c0.41,17.12,0.61,30.02,0.61,38.72
			c0,2.62-0.85,4.52-2.55,5.69l-32.62,22.47c-1.82,1.26-2.73,0.72-2.73-1.6c0-8.1,0.33-20.55,0.99-37.35
			c0.66-16.8,0.99-29.29,0.99-37.46c0-8.62-0.3-21.32-0.9-38.08c-0.6-16.76-0.9-29.42-0.9-37.96c0-1.65,1.23-3.32,3.68-5.01
			c3.64-2.51,8.14-5.91,13.48-10.19c1.26-1.01,3.73-3.22,7.45-6.59c3.14-2.85,5.62-4.89,7.45-6.14c0.75-0.52,1.92-0.04,3.49,1.42
			l35.16,33.26c3.14,3.01,7.89,7.32,14.23,12.92c1.57,1.24,2.92,1.47,4.05,0.69c0.82-0.56,1.23-3.77,1.23-9.62
			c0-7.87-0.36-19.47-1.08-34.8c-0.72-15.32-1.08-26.96-1.08-34.91c0-2.77,0.66-4.62,1.98-5.53c3.77-2.6,9.46-6.7,17.06-12.32
			c7.6-5.61,13.29-9.72,17.06-12.32C644.79,159.91,645.38,160.66,645.38,162.99z"/>
		<path class="st4" d="M747.85,248.52c-3.71,2.56-9.27,6.16-16.69,10.82c-7.42,4.66-12.98,8.27-16.68,10.82
			c-5.28,3.64-13.17,8.99-23.66,16.08c-10.5,7.08-18.38,12.44-23.66,16.08c-2.26,1.56-3.69,1.61-3.86,0.08
			c-0.54-4.68-0.3-11.48-1.88-20.07c-0.59-3.19-1.13-4.96-1.13-5.41c0-0.37,7.7-20.21,23.09-59.5c15.4-39.29,23.09-60.02,23.09-62.2
			c0-1.2-0.82-1.24-2.45-0.11c-4.4,3.03-11.04,7.76-19.94,14.19c-8.89,6.43-15.57,11.18-20.03,14.25c-1.38,0.95-2.07,0.57-2.07-1.16
			c0-2.77,0.71-8.66,2.12-17.66c1.41-9,2.12-15.3,2.12-18.9c0-1.2,0.85-2.38,2.54-3.55c8.67-5.97,21.7-14.72,39.07-26.24
			c17.38-11.52,30.4-20.27,39.07-26.24c1.32-0.91,2.17-0.63,2.54,0.83c1.13,5.22,1.7,13.42,1.7,24.59c0,1.35-0.57,3.43-1.7,6.23
			c-3.96,9.55-12.29,30.36-24.98,62.43c-14.46,36.58-21.68,55.51-21.68,56.78c0,0.6,0.53,0.53,1.6-0.21
			c12.76-8.79,22.56-15.84,29.41-21.16c1.38-1.03,4.41-3.54,9.05-7.58c3.97-3.46,6.88-5.87,8.77-7.16c0.88-0.61,1.32-0.12,1.32,1.45
			c0,12.22-0.91,25.04-2.73,38.44C749.95,246.25,749.17,247.61,747.85,248.52z"/>
	</g>
	<g>
		<path class="st5" d="M251.74,608.08c0.12,1.94-0.75,3.56-2.64,4.86c-1.2,0.82-4.64,2.37-10.32,4.64
			c-5.69,2.27-9.19,3.56-10.51,3.87c-13.14,15.2-25.73,26.95-37.8,35.27c-19.42,13.38-35.33,16.6-47.79,9.75
			c-12.3-6.76-18.48-21.73-18.48-44.98c0-23.77,5.97-47.61,17.91-71.51c12.32-24.68,28.31-43.8,47.98-57.35
			c9.55-6.58,18.53-10.64,26.96-12.05c9.1-1.52,16.27,0.34,21.49,5.44c1.07,1.06,1.6,1.97,1.6,2.72c0,2.4-2.81,9.72-8.44,21.96
			c-5.63,12.24-9.25,18.92-10.89,20.04c-0.38,0.26-1.81-0.31-4.34-1.62c-3.06-1.59-6.22-2.22-9.43-2.05
			c-4.78,0.25-10.06,2.32-15.84,6.3c-9.43,6.49-16.91,15.85-22.43,28.05c-5.15,11.28-7.73,22.69-7.73,34.24
			c0,12.22,2.67,20.06,8.01,23.5c5.53,3.54,13.35,1.82,23.47-5.15c6.41-4.42,13.57-11.27,21.49-20.54
			c-0.19-2.34-0.69-8.26-1.7-17.73c-0.77-7.24-1.23-13.25-1.23-18.05c0-1.42,0.41-2.57,1.23-3.43c0.31-0.37,0.82-0.79,1.51-1.26
			c1.82-1.25,4.57-2.94,8.25-5.06c3.68-2.12,6.46-3.83,8.34-5.13c2.01-1.39,5.03-3.63,9.05-6.74c4.02-3.11,7.04-5.36,9.05-6.74
			c1.57-1.08,2.36-0.39,2.36,2.09c0,3.6-0.17,9.16-0.52,16.67c-0.35,7.51-0.52,13.07-0.52,16.67c0,9.67,0.6,23.74,1.79,42.19
			L251.74,608.08z"/>
		<path class="st5" d="M377.49,469.81c0,19.12-1.92,33.49-5.75,43.11c-7.04,17.6-24.6,36.07-52.69,55.43
			c-12.69,8.75-22.47,14.32-29.32,16.71c-10.93,3.78-18.04,1.52-21.3-6.81c-1.64-4.05-2.45-12.71-2.45-25.98
			c0-3.07,0.09-7.71,0.28-13.92c0.19-6.2,0.28-10.81,0.28-13.81c0-8.7-0.35-21.51-1.04-38.43c-0.69-16.92-1.04-29.69-1.04-38.32
			c0-1.8,0.66-3.15,1.98-4.06c3.83-2.64,9.63-6.45,17.39-11.42c7.76-4.97,13.56-8.78,17.39-11.42c1.57-1.08,2.36-0.8,2.36,0.85
			c0,9.9-0.27,24.91-0.8,45.04c-0.54,20.13-0.8,35.14-0.8,45.04c0,11.77,1.06,18.99,3.11,21.71c2.79,3.7,8.55,2.55,17.34-3.51
			c12.88-8.88,19.32-20.78,19.32-35.7c0-10.87-0.22-27.03-0.66-48.48c-0.44-21.44-0.66-37.6-0.66-48.48c0-2.32,0.78-4.03,2.36-5.11
			c3.71-2.55,9.3-6.59,16.78-12.12c7.48-5.53,13.07-9.57,16.78-12.12c1.82-1.26,2.73-0.98,2.73,0.82c0,8.62-0.3,21.84-0.9,39.65
			c-0.6,17.81-0.9,31.06-0.9,39.76c0,2.4,0.03,6,0.09,10.79C377.46,463.82,377.49,467.41,377.49,469.81z"/>
		<path class="st5" d="M453.56,367.35c-1.32,4.21-3.55,12.91-6.69,26.1c-3.39,14.04-5.09,22.07-5.09,24.09
			c0,1.35,1.89,0.8,5.66-1.65c1.95-1.19,5.15-3.32,9.61-6.4c4.15-2.86,6.44-5.04,6.88-6.54c0.13-0.46,0.19-1.03,0.19-1.71
			c0-2.47-1.43-8.31-4.34-17.48C456.97,374.9,454.88,369.44,453.56,367.35z M520.39,423.78c0,1.35-0.78,2.84-2.36,4.44
			c-1.88,1.91-7.73,6.22-17.53,12.98c-8.99,6.19-14.76,9.89-17.34,11.05c-2.13,0.96-3.49,0.19-4.05-2.27
			c-2.14-9.33-3.81-14.02-5-13.88c-1.01,0.12-9.43,5.71-25.26,16.62c-10.68,7.36-16.37,11.62-17.06,12.77
			c-1.07,1.94-2.26,6.77-3.58,14.5c-1.19,7.05-2.63,11.43-4.34,13.11c-2.12,2.09-9.3,7.31-21.49,15.71
			c-9.62,6.62-14.42,8.85-14.42,6.67c0-1.95,7.1-30.8,21.3-86.55c15.4-60.33,23.75-93.42,25.07-99.28c0.75-3.37,1.63-5.4,2.64-6.09
			c1.7-1.17,4.32-2.79,7.87-4.86c3.55-2.07,6.21-3.71,7.97-4.93c1.7-1.17,4.19-3.02,7.49-5.56c3.3-2.53,5.77-4.37,7.4-5.49
			c1.19-0.82,2.29-0.34,3.3,1.44c3.08,5.75,12.07,26.56,26.96,62.42C512.92,402.68,520.39,421.75,520.39,423.78z"/>
		<path class="st5" d="M656.13,178.74c0,8.55-0.3,21.6-0.89,39.14c-0.6,17.55-0.9,30.63-0.9,39.26v74.13c0,2.02-0.91,3.67-2.73,4.92
			c-1.51,1.04-3.79,2.68-6.83,4.93c-3.05,2.25-5.33,3.9-6.83,4.93c-1.63,1.13-4.09,2.66-7.35,4.62c-3.27,1.95-5.72,3.49-7.35,4.62
			c-1.13,0.78-2.48,0.47-4.05-0.92c-4.52-4.16-14.7-13.27-30.54-27.33c-4.34-3.99-10.93-9.71-19.8-17.18
			c-0.25-0.28-0.72-0.4-1.41-0.38c-0.5,0.87-0.75,1.87-0.75,2.99c0,8.7,0.2,21.61,0.61,38.72c0.41,17.12,0.61,30.02,0.61,38.72
			c0,2.62-0.85,4.52-2.55,5.69l-32.62,22.47c-1.82,1.26-2.73,0.72-2.73-1.6c0-8.1,0.33-20.55,0.99-37.35
			c0.66-16.8,0.99-29.29,0.99-37.46c0-8.62-0.3-21.32-0.9-38.08c-0.6-16.76-0.9-29.42-0.9-37.96c0-1.65,1.23-3.32,3.68-5.01
			c3.64-2.51,8.14-5.91,13.48-10.19c1.26-1.01,3.73-3.22,7.45-6.59c3.14-2.85,5.62-4.89,7.45-6.14c0.75-0.52,1.92-0.04,3.49,1.42
			l35.16,33.26c3.14,3.01,7.89,7.32,14.23,12.92c1.57,1.24,2.92,1.47,4.05,0.69c0.82-0.56,1.23-3.77,1.23-9.62
			c0-7.87-0.36-19.47-1.08-34.8c-0.72-15.32-1.08-26.96-1.08-34.91c0-2.77,0.66-4.62,1.98-5.53c3.77-2.6,9.46-6.7,17.06-12.32
			c7.6-5.61,13.29-9.72,17.06-12.32C655.54,175.66,656.13,176.41,656.13,178.74z"/>
		<path class="st5" d="M758.6,264.27c-3.71,2.56-9.27,6.16-16.69,10.82c-7.42,4.66-12.98,8.27-16.68,10.82
			c-5.28,3.64-13.17,8.99-23.66,16.08c-10.5,7.08-18.38,12.44-23.66,16.08c-2.26,1.56-3.69,1.61-3.86,0.08
			c-0.54-4.68-0.3-11.48-1.88-20.07c-0.59-3.19-1.13-4.96-1.13-5.41c0-0.37,7.7-20.21,23.09-59.5c15.4-39.29,23.09-60.02,23.09-62.2
			c0-1.2-0.82-1.24-2.45-0.11c-4.4,3.03-11.04,7.76-19.94,14.19c-8.89,6.43-15.57,11.18-20.03,14.25c-1.38,0.95-2.07,0.57-2.07-1.16
			c0-2.77,0.71-8.66,2.12-17.66c1.41-9,2.12-15.3,2.12-18.9c0-1.2,0.85-2.38,2.54-3.55c8.67-5.97,21.7-14.72,39.07-26.24
			c17.38-11.52,30.4-20.27,39.07-26.24c1.32-0.91,2.17-0.63,2.54,0.83c1.13,5.22,1.7,13.42,1.7,24.59c0,1.35-0.57,3.43-1.7,6.23
			c-3.96,9.55-12.29,30.36-24.98,62.43c-14.46,36.58-21.68,55.51-21.68,56.78c0,0.6,0.53,0.53,1.6-0.21
			c12.76-8.79,22.56-15.84,29.41-21.16c1.38-1.03,4.41-3.54,9.05-7.58c3.97-3.46,6.88-5.87,8.77-7.16c0.88-0.61,1.32-0.12,1.32,1.45
			c0,12.22-0.91,25.04-2.73,38.44C760.7,262,759.92,263.36,758.6,264.27z"/>
	</g>
	<text transform="matrix(0.838 -0.5774 0 1 129.7691 718.8672)" class="st6 st1 st2">GUANZ</text>
</g>
<g>
	<text transform="matrix(0.9466 -0.5774 0 1 894.0984 612.884)" class="st7 st1 st8">G</text>
	<path class="st9" d="M1184.02,434.61c0.27,3.71-1.63,6.8-5.7,9.29c-2.58,1.57-10.01,4.53-22.29,8.87
		c-12.28,4.34-19.85,6.8-22.7,7.39c-28.37,29.06-55.58,51.54-81.64,67.43c-41.94,25.58-76.32,31.74-103.22,18.65
		c-26.58-12.93-39.9-41.55-39.9-86c0-45.45,12.89-91.02,38.68-136.72c26.6-47.19,61.14-83.75,103.62-109.66
		c20.63-12.58,40.02-20.34,58.22-23.04c19.66-2.91,35.15,0.64,46.42,10.4c2.31,2.03,3.46,3.77,3.46,5.2
		c0,4.59-6.08,18.58-18.22,41.98c-12.15,23.4-19.99,36.17-23.51,38.32c-0.81,0.5-3.91-0.6-9.37-3.1
		c-6.62-3.04-13.43-4.24-20.36-3.93c-10.31,0.47-21.72,4.43-34.2,12.04c-20.36,12.42-36.51,30.3-48.45,53.64
		c-11.13,21.56-16.69,43.38-16.69,65.46c0,23.37,5.77,38.35,17.3,44.94c11.94,6.77,28.84,3.49,50.69-9.84
		c13.84-8.44,29.32-21.54,46.42-39.28c-0.41-4.48-1.49-15.8-3.67-33.9c-1.66-13.85-2.65-25.34-2.65-34.52
		c0-2.72,0.88-4.91,2.65-6.56c0.68-0.7,1.76-1.51,3.26-2.42c3.93-2.4,9.87-5.63,17.81-9.68c7.94-4.05,13.95-7.32,18.02-9.81
		c4.34-2.65,10.86-6.95,19.54-12.89c8.68-5.94,15.2-10.24,19.54-12.89c3.39-2.07,5.09-0.74,5.09,3.99c0,6.88-0.38,17.51-1.12,31.87
		c-0.75,14.36-1.12,24.99-1.12,31.87c0,18.5,1.29,45.38,3.87,80.66L1184.02,434.61z"/>
	<path class="st10" d="M1187.29,438.05c0.27,3.71-1.63,6.8-5.7,9.28c-2.58,1.57-10.01,4.53-22.29,8.87
		c-12.28,4.34-19.85,6.8-22.7,7.39c-28.37,29.06-55.58,51.54-81.64,67.43c-41.94,25.58-76.32,31.74-103.22,18.65
		c-26.58-12.93-39.9-41.55-39.9-86c0-45.45,12.89-91.02,38.68-136.72c26.6-47.19,61.14-83.75,103.62-109.66
		c20.63-12.58,40.02-20.34,58.22-23.04c19.66-2.91,35.15,0.64,46.42,10.4c2.31,2.03,3.46,3.77,3.46,5.2
		c0,4.59-6.08,18.58-18.22,41.98c-12.15,23.4-19.99,36.17-23.51,38.32c-0.81,0.5-3.91-0.6-9.37-3.1
		c-6.62-3.04-13.43-4.24-20.36-3.93c-10.31,0.47-21.72,4.43-34.2,12.04c-20.36,12.42-36.51,30.3-48.45,53.64
		c-11.13,21.56-16.69,43.38-16.69,65.46c0,23.37,5.77,38.35,17.3,44.94c11.94,6.77,28.84,3.49,50.69-9.84
		c13.84-8.44,29.32-21.54,46.42-39.28c-0.41-4.48-1.49-15.8-3.67-33.9c-1.66-13.85-2.65-25.34-2.65-34.52
		c0-2.72,0.88-4.91,2.65-6.56c0.68-0.7,1.76-1.51,3.26-2.42c3.93-2.4,9.87-5.63,17.81-9.68c7.94-4.05,13.95-7.32,18.02-9.81
		c4.34-2.65,10.86-6.95,19.54-12.89c8.68-5.94,15.2-10.24,19.54-12.89c3.39-2.07,5.09-0.74,5.09,3.99c0,6.88-0.38,17.51-1.12,31.87
		c-0.75,14.36-1.12,24.99-1.12,31.87c0,18.5,1.29,45.38,3.87,80.66L1187.29,438.05z"/>
	<path class="st11" d="M1190.57,441.5c0.27,3.71-1.63,6.8-5.7,9.28c-2.58,1.57-10.01,4.53-22.29,8.87
		c-12.28,4.34-19.85,6.8-22.7,7.39c-28.37,29.06-55.58,51.54-81.64,67.43c-41.94,25.58-76.32,31.74-103.22,18.65
		c-26.58-12.93-39.9-41.55-39.9-86c0-45.45,12.89-91.02,38.68-136.72c26.6-47.19,61.14-83.75,103.62-109.66
		c20.63-12.58,40.02-20.34,58.22-23.04c19.66-2.91,35.15,0.64,46.42,10.4c2.31,2.03,3.46,3.77,3.46,5.2
		c0,4.59-6.08,18.58-18.22,41.98c-12.15,23.4-19.99,36.17-23.51,38.32c-0.81,0.5-3.91-0.6-9.37-3.1
		c-6.62-3.04-13.43-4.24-20.36-3.93c-10.31,0.47-21.72,4.43-34.2,12.04c-20.36,12.42-36.51,30.3-48.45,53.64
		c-11.13,21.56-16.69,43.38-16.69,65.46c0,23.37,5.77,38.35,17.3,44.94c11.94,6.77,28.84,3.49,50.69-9.84
		c13.84-8.44,29.32-21.54,46.42-39.28c-0.41-4.48-1.49-15.8-3.67-33.9c-1.66-13.85-2.65-25.34-2.65-34.52
		c0-2.72,0.88-4.91,2.65-6.56c0.68-0.7,1.76-1.51,3.26-2.42c3.93-2.4,9.87-5.63,17.81-9.68c7.94-4.05,13.95-7.32,18.02-9.81
		c4.34-2.65,10.86-6.95,19.54-12.89c8.68-5.94,15.2-10.24,19.54-12.89c3.39-2.07,5.09-0.74,5.09,3.99c0,6.88-0.38,17.51-1.12,31.87
		c-0.75,14.36-1.12,24.99-1.12,31.87c0,18.5,1.29,45.39,3.87,80.66L1190.57,441.5z"/>
	<path class="st12" d="M1193.85,444.94c0.27,3.71-1.63,6.8-5.7,9.28c-2.58,1.57-10.01,4.53-22.29,8.87
		c-12.28,4.34-19.85,6.8-22.7,7.39c-28.37,29.06-55.58,51.54-81.64,67.43c-41.94,25.58-76.32,31.74-103.22,18.65
		c-26.58-12.93-39.9-41.55-39.9-86c0-45.45,12.89-91.02,38.68-136.72c26.6-47.19,61.14-83.75,103.62-109.66
		c20.63-12.58,40.02-20.34,58.22-23.04c19.66-2.91,35.15,0.64,46.42,10.4c2.31,2.03,3.46,3.77,3.46,5.2
		c0,4.59-6.08,18.58-18.22,41.98c-12.15,23.4-19.99,36.17-23.51,38.32c-0.81,0.5-3.91-0.6-9.37-3.1
		c-6.62-3.04-13.43-4.24-20.36-3.93c-10.31,0.47-21.72,4.43-34.2,12.04c-20.36,12.42-36.51,30.3-48.45,53.64
		c-11.13,21.56-16.69,43.38-16.69,65.46c0,23.37,5.77,38.35,17.3,44.94c11.94,6.77,28.84,3.49,50.69-9.84
		c13.84-8.44,29.32-21.54,46.42-39.28c-0.41-4.48-1.49-15.8-3.67-33.9c-1.66-13.85-2.65-25.34-2.65-34.52
		c0-2.72,0.88-4.91,2.65-6.56c0.68-0.7,1.76-1.51,3.26-2.42c3.94-2.4,9.87-5.63,17.81-9.68c7.94-4.05,13.95-7.32,18.02-9.81
		c4.34-2.65,10.86-6.95,19.54-12.89c8.68-5.94,15.2-10.24,19.54-12.89c3.39-2.07,5.09-0.74,5.09,3.99c0,6.88-0.38,17.51-1.12,31.87
		c-0.75,14.36-1.12,24.99-1.12,31.87c0,18.5,1.29,45.39,3.87,80.66L1193.85,444.94z"/>
	<path class="st13" d="M1197.12,448.39c0.27,3.71-1.63,6.8-5.7,9.28c-2.58,1.57-10.01,4.53-22.29,8.87
		c-12.28,4.34-19.85,6.8-22.7,7.39c-28.37,29.06-55.58,51.54-81.64,67.43c-41.94,25.58-76.32,31.74-103.22,18.65
		c-26.58-12.93-39.9-41.55-39.9-86c0-45.45,12.89-91.02,38.68-136.72c26.6-47.19,61.14-83.75,103.62-109.66
		c20.63-12.58,40.02-20.34,58.22-23.04c19.66-2.91,35.15,0.64,46.42,10.4c2.31,2.03,3.46,3.77,3.46,5.2
		c0,4.59-6.08,18.58-18.22,41.98c-12.15,23.4-19.99,36.17-23.51,38.32c-0.81,0.5-3.91-0.6-9.37-3.1
		c-6.62-3.04-13.43-4.24-20.36-3.93c-10.31,0.47-21.72,4.43-34.2,12.04c-20.36,12.42-36.51,30.3-48.45,53.64
		c-11.13,21.56-16.69,43.38-16.69,65.46c0,23.37,5.77,38.35,17.3,44.93c11.94,6.77,28.84,3.49,50.69-9.84
		c13.84-8.44,29.32-21.54,46.42-39.28c-0.41-4.48-1.49-15.8-3.67-33.9c-1.66-13.85-2.65-25.34-2.65-34.52
		c0-2.72,0.88-4.91,2.65-6.56c0.68-0.7,1.76-1.51,3.26-2.42c3.94-2.4,9.87-5.63,17.81-9.68c7.94-4.05,13.95-7.32,18.02-9.81
		c4.34-2.65,10.86-6.95,19.54-12.89c8.68-5.94,15.2-10.24,19.54-12.89c3.39-2.07,5.09-0.74,5.09,3.99c0,6.88-0.38,17.51-1.12,31.87
		c-0.75,14.36-1.12,24.99-1.12,31.87c0,18.5,1.29,45.39,3.87,80.66L1197.12,448.39z"/>
	<path class="st14" d="M1200.4,451.83c0.27,3.71-1.63,6.8-5.7,9.28c-2.58,1.57-10.01,4.53-22.29,8.87
		c-12.28,4.34-19.85,6.8-22.7,7.39c-28.37,29.06-55.58,51.54-81.64,67.43c-41.94,25.58-76.32,31.74-103.22,18.65
		c-26.58-12.93-39.9-41.55-39.9-86c0-45.45,12.89-91.02,38.68-136.72c26.6-47.19,61.14-83.75,103.62-109.66
		c20.63-12.58,40.02-20.34,58.22-23.04c19.66-2.91,35.15,0.64,46.42,10.4c2.31,2.03,3.46,3.77,3.46,5.2
		c0,4.59-6.08,18.58-18.22,41.98c-12.15,23.4-19.99,36.17-23.51,38.32c-0.81,0.5-3.91-0.6-9.37-3.1
		c-6.62-3.04-13.43-4.24-20.36-3.93c-10.31,0.47-21.72,4.43-34.2,12.04c-20.36,12.42-36.51,30.3-48.45,53.64
		c-11.13,21.56-16.69,43.38-16.69,65.46c0,23.37,5.77,38.35,17.3,44.93c11.94,6.77,28.84,3.49,50.69-9.84
		c13.84-8.44,29.32-21.54,46.42-39.28c-0.41-4.48-1.49-15.8-3.67-33.9c-1.66-13.85-2.65-25.34-2.65-34.52
		c0-2.72,0.88-4.91,2.65-6.56c0.68-0.7,1.76-1.51,3.26-2.42c3.94-2.4,9.87-5.63,17.81-9.68c7.94-4.05,13.95-7.32,18.02-9.81
		c4.34-2.65,10.86-6.95,19.54-12.89c8.68-5.94,15.2-10.24,19.54-12.89c3.39-2.07,5.09-0.74,5.09,3.99c0,6.88-0.38,17.51-1.12,31.87
		c-0.75,14.36-1.12,24.99-1.12,31.87c0,18.5,1.29,45.39,3.87,80.66L1200.4,451.83z"/>
	<path class="st15" d="M1203.68,455.27c0.27,3.71-1.63,6.8-5.7,9.28c-2.58,1.57-10.01,4.53-22.29,8.87
		c-12.28,4.34-19.85,6.8-22.7,7.39c-28.37,29.06-55.58,51.54-81.64,67.43c-41.94,25.58-76.32,31.74-103.22,18.65
		c-26.58-12.94-39.9-41.55-39.9-86c0-45.45,12.89-91.02,38.68-136.72c26.6-47.19,61.14-83.75,103.62-109.66
		c20.63-12.58,40.02-20.34,58.22-23.04c19.66-2.91,35.15,0.64,46.42,10.4c2.31,2.03,3.46,3.77,3.46,5.2
		c0,4.59-6.08,18.58-18.22,41.98c-12.15,23.4-19.99,36.17-23.51,38.32c-0.81,0.5-3.91-0.6-9.37-3.1
		c-6.62-3.04-13.43-4.24-20.36-3.93c-10.31,0.47-21.72,4.43-34.2,12.04c-20.36,12.42-36.51,30.3-48.45,53.64
		c-11.13,21.56-16.69,43.38-16.69,65.46c0,23.37,5.77,38.35,17.3,44.93c11.94,6.77,28.84,3.49,50.69-9.84
		c13.84-8.44,29.32-21.54,46.42-39.28c-0.41-4.48-1.49-15.8-3.67-33.9c-1.66-13.85-2.65-25.34-2.65-34.52
		c0-2.72,0.88-4.91,2.65-6.56c0.68-0.7,1.76-1.51,3.26-2.42c3.94-2.4,9.87-5.63,17.81-9.68c7.94-4.05,13.95-7.32,18.02-9.81
		c4.34-2.65,10.86-6.95,19.54-12.89c8.68-5.94,15.2-10.24,19.54-12.89c3.39-2.07,5.09-0.74,5.09,3.99c0,6.88-0.38,17.51-1.12,31.87
		c-0.75,14.36-1.12,24.99-1.12,31.87c0,18.5,1.29,45.39,3.87,80.66L1203.68,455.27z"/>
	<path class="st16" d="M1206.95,458.72c0.27,3.71-1.63,6.8-5.7,9.28c-2.58,1.57-10.01,4.53-22.29,8.87
		c-12.29,4.34-19.85,6.8-22.7,7.39c-28.37,29.06-55.58,51.54-81.64,67.43c-41.94,25.58-76.32,31.74-103.22,18.65
		c-26.58-12.94-39.9-41.55-39.9-86c0-45.45,12.89-91.02,38.68-136.72c26.6-47.19,61.14-83.75,103.62-109.66
		c20.63-12.58,40.02-20.34,58.22-23.04c19.66-2.91,35.15,0.64,46.42,10.4c2.31,2.03,3.46,3.77,3.46,5.2
		c0,4.59-6.08,18.58-18.22,41.98c-12.15,23.4-19.99,36.17-23.51,38.32c-0.81,0.5-3.91-0.6-9.37-3.1
		c-6.62-3.04-13.43-4.24-20.36-3.93c-10.31,0.47-21.72,4.43-34.2,12.04c-20.36,12.42-36.51,30.3-48.45,53.64
		c-11.13,21.56-16.69,43.38-16.69,65.46c0,23.37,5.77,38.35,17.3,44.93c11.94,6.77,28.84,3.49,50.69-9.84
		c13.84-8.44,29.32-21.54,46.42-39.28c-0.41-4.48-1.49-15.8-3.67-33.9c-1.66-13.85-2.65-25.34-2.65-34.52
		c0-2.72,0.88-4.91,2.65-6.56c0.68-0.7,1.76-1.51,3.26-2.42c3.94-2.4,9.87-5.63,17.81-9.68c7.94-4.05,13.95-7.32,18.02-9.81
		c4.34-2.65,10.86-6.95,19.54-12.89c8.68-5.94,15.2-10.24,19.54-12.89c3.39-2.07,5.09-0.74,5.09,3.99c0,6.88-0.38,17.51-1.12,31.87
		c-0.75,14.36-1.12,24.99-1.12,31.87c0,18.5,1.29,45.39,3.87,80.66L1206.95,458.72z"/>
	<text transform="matrix(0.9466 -0.5774 0 1 923.5853 643.8829)" class="st17 st1 st8">G</text>
</g>
</svg>
