<?xml version="1.0" encoding="utf-8"?>
<svg version="1.1" xmlns="http://www.w3.org/2000/svg" xmlns:xlink="http://www.w3.org/1999/xlink" x="0px" y="0px"
	 viewBox="0 0 36 36" style="enable-background:new 0 0 36 36;" xml:space="preserve">
<style type="text/css">
	.st0{fill:#FFFFFF;}
	.st1{fill:#0066FF;}
	.st2{fill:#AFAFAF;}
</style>
<path class="st0" d="M25,19.5l6-10.7c0,0,0.7-1.1,1.3,0c0.6,1.1,2.2,4.1,2.2,4.1s0.9,1.8-0.5,2.7c-1.4,0.9-8.5,4.7-8.5,4.7
	S24.2,20.9,25,19.5L25,19.5z"/>
<path class="st1" d="M22.6,13L15.9,2.7c0,0-0.6-1.1,0.6-1.1s4.7-0.1,4.7-0.1s2,0,2.1,1.7c0.1,1.7,0.2,9.7,0.2,9.7S23.6,14.4,22.6,13
	z"/>
<path class="st0" d="M15.9,12.6L3.6,12c0,0-1.2-0.1-0.6-1.1C3.8,10,5.8,7.1,5.8,7.1s1.2-1.7,2.6-0.8c1.4,0.8,8.1,5.4,8.1,5.4
	S17.5,12.6,15.9,12.6z"/>
<path class="st2" d="M11.3,17l-6,10.6c0,0-0.7,1.1-1.3,0c-0.6-1.1-2.2-4.1-2.2-4.1s-0.9-1.8,0.5-2.7s8.5-4.7,8.5-4.7
	S12.1,15.7,11.3,17z"/>
<path class="st0" d="M13.2,23.5L19.6,34c0,0,0.6,1.1-0.6,1.1s-4.7-0.1-4.7-0.1s-2-0.1-2.1-1.8c-0.1-1.7,0-9.7,0-9.7
	S12.4,22,13.2,23.5z"/>
<path class="st2" d="M20.6,25.5l12.3,0.1c0,0,1.2,0.1,0.6,1.1s-2.6,4-2.6,4s-1.1,1.7-2.6,0.8c-1.4-0.8-8.3-5.2-8.3-5.2
	S19,25.5,20.6,25.5z"/>
</svg>
