<?xml version="1.0" standalone="no"?>
<!DOCTYPE svg PUBLIC "-//W3C//DTD SVG 1.1//EN" "http://www.w3.org/Graphics/SVG/1.1/DTD/svg11.dtd">
<svg t="1602291027016" class="icon" viewBox="0 0 1024 1024" version="1.1"
    xmlns="http://www.w3.org/2000/svg" p-id="9295" data-spm-anchor-id="a313x.7781069.0.i0"
    xmlns:xlink="http://www.w3.org/1999/xlink" width="200" height="200">
    <defs>
        <style type="text/css"></style>
    </defs>
    <path
        d="M725.290667 725.290667m-213.333334 0a213.333333 213.333333 0 1 0 426.666667 0 213.333333 213.333333 0 1 0-426.666667 0Z"
        fill="#fff" p-id="9296" data-spm-anchor-id="a313x.7781069.0.i4" class=""></path>
    <path
        d="M789.205333 234.794667m-149.333333 0a149.333333 149.333333 0 1 0 298.666667 0 149.333333 149.333333 0 1 0-298.666667 0Z"
        fill="#06f" p-id="9297" data-spm-anchor-id="a313x.7781069.0.i1" class=""></path>
    <path
        d="M235.861333 788.138667m-149.333333 0a149.333333 149.333333 0 1 0 298.666667 0 149.333333 149.333333 0 1 0-298.666667 0Z"
        fill="#757575" p-id="9298" data-spm-anchor-id="a313x.7781069.0.i5" class=""></path>
    <path
        d="M298.709333 298.709333m-213.333333 0a213.333333 213.333333 0 1 0 426.666667 0 213.333333 213.333333 0 1 0-426.666667 0Z"
        fill="#fff" p-id="9299" data-spm-anchor-id="a313x.7781069.0.i3" class=""></path>
</svg>