<?xml version="1.0" encoding="UTF-8"?>
<svg xmlns="http://www.w3.org/2000/svg" viewBox="0 0 32.48 29.95">
  <defs>
    <style>
      .cls-1 {
        fill: #333;
      }
      .cls-2 {
        fill: #757575;
      }

      .cls-3 {
        fill: #06f;
      }

      .cls-4 {
        fill: #fff;
      }
    </style>
  </defs>
  <g>
    <rect class="cls-2" x="6.66" y="-.61" width="21.11" height="27.52" rx="4" ry="4" transform="translate(-.45 25.7) rotate(-72.75)"/>
    <path class="cls-4" d="m13.79,2.86l12.08,3.75c2.72.85,4.25,3.74,3.4,6.47l-2.7,8.71c-.18.59-.51,1.09-.94,1.48-1.16,1.06-.85-5.01-2.91-5.64s-4.4,1.46-6.36.86c-1.06-.32-.56-3.28-.46-5.37s-3.04-4.97-5.81-1.94c-2.98,3.26-4.52,6.73-5.24,6.34-.41-.22-.49-1.07-.23-2.55l2.7-8.71c.85-2.72,3.74-4.25,6.47-3.4Z"/>
    <rect class="cls-1" x=".71" y="7.73" width="27.52" height="21.11" rx="4" ry="4" transform="translate(-2.06 1.84) rotate(-6.79)"/>
    <path class="cls-2" d="m7.14,10.28l12.56-1.5c2.83-.34,5.4,1.69,5.74,4.52l1.08,9.06c.07.61-.02,1.2-.25,1.73-.63,1.44-2.81-4.23-4.96-3.97s-3.42,3.13-5.46,3.38c-1.09.14-1.85-2.77-2.6-4.71s-4.81-3.3-6.1.59c-1.39,4.19-1.39,7.99-2.2,7.93-.47-.03-.88-.78-1.25-2.23l-1.08-9.06c-.34-2.83,1.69-5.4,4.52-5.74Z"/>
    <circle class="cls-3" cx="20.86" cy="13.15" r="2.79"/>
  </g>
</svg>