<?xml version="1.0" encoding="utf-8"?>
<!-- Generator: Adobe Illustrator 28.0.0, SVG Export Plug-In . SVG Version: 6.00 Build 0)  -->
<svg version="1.1" id="图层_1" xmlns="http://www.w3.org/2000/svg" xmlns:xlink="http://www.w3.org/1999/xlink" x="0px" y="0px"
	 viewBox="0 0 36 36" style="enable-background:new 0 0 36 36;" xml:space="preserve">
<style type="text/css">
	.st0{display:none;fill:#F7F8F9;}
	.st1{fill:#F7F8F9;}
	.st2{fill:#0066FF;}
</style>
<path class="st0" d="M23.5,1.1l3.2,5.8c0.6,1,1.4,1.9,2.4,2.4l5.8,3.2L29,15.6c-1,0.6-1.9,1.4-2.4,2.4l-3.2,5.8l-3.2-5.8
	c-0.6-1-1.4-1.9-2.4-2.4l-5.8-3.2l5.8-3.2c1-0.6,1.9-1.4,2.4-2.4L23.5,1.1z"/>
<path class="st1" d="M22.1,10c-0.2,0-0.5-0.1-0.6-0.2l-5.1-4.4C16,4.9,15.9,4.3,16.2,4c0.4-0.4,0.9-0.5,1.3-0.1l5.3,4.4
	c0.4,0.4,0.5,0.9,0.1,1.3C22.7,9.8,22.4,10,22.1,10L22.1,10z"/>
<path class="st1" d="M17.3,14c-0.2,0-0.6-0.1-0.7-0.4c-0.4-0.4-0.4-0.9,0.1-1.3l4.9-4.2C22,8,22.5,8,22.9,8.3
	c0.4,0.4,0.4,0.9-0.1,1.3l-4.9,4.2C17.6,13.9,17.5,14,17.3,14z M11.7,19.7c-0.2,0-0.5-0.1-0.6-0.2L5.9,15c-0.4-0.4-0.5-0.9-0.1-1.3
	c0.4-0.4,0.9-0.5,1.3-0.1l5.1,4.4c0.4,0.4,0.5,0.9,0.1,1.3C12.2,19.5,11.9,19.7,11.7,19.7z"/>
<path class="st1" d="M6.7,23.9c-0.2,0-0.6-0.1-0.7-0.4c-0.4-0.4-0.4-0.9,0.1-1.3l4.9-4.2c0.4-0.4,0.9-0.4,1.3,0.1
	c0.4,0.4,0.4,0.9-0.1,1.3l-4.9,4.2C7.2,23.8,7,23.9,6.7,23.9z"/>
<path class="st1" d="M21.5,28.3c-0.2,0-0.5-0.1-0.6-0.2l-5.1-4.4c-0.4-0.4-0.5-0.9-0.1-1.3c0.4-0.4,0.9-0.5,1.3-0.1l5.1,4.4
	c0.4,0.4,0.5,0.9,0.1,1.3C22.1,28.2,21.7,28.3,21.5,28.3z"/>
<path class="st1" d="M16.6,32.4c-0.2,0-0.6-0.1-0.7-0.4c-0.4-0.4-0.4-0.9,0.1-1.3l4.9-4.2c0.4-0.4,0.9-0.4,1.3,0.1
	c0.4,0.4,0.4,0.9-0.1,1.3l-4.9,4.2C17,32.3,16.8,32.4,16.6,32.4z"/>
<path class="st2" d="M30.7,19.1c-0.2,0-0.5-0.1-0.6-0.2L25,14.4c-0.4-0.4-0.5-0.9-0.1-1.3c0.4-0.4,0.9-0.5,1.3-0.1l5.1,4.4
	c0.4,0.4,0.5,0.9,0.1,1.3C31.3,19,31,19.1,30.7,19.1L30.7,19.1z"/>
<path class="st2" d="M25.8,23.2c-0.2,0-0.6-0.1-0.7-0.4c-0.4-0.4-0.4-0.9,0.1-1.3l4.9-4.2c0.4-0.4,0.9-0.4,1.3,0.1
	c0.4,0.4,0.4,0.9-0.1,1.3l-4.9,4.3C26.3,23.2,26,23.2,25.8,23.2z"/>
</svg>
