<?xml version="1.0" standalone="no"?>
<!DOCTYPE svg PUBLIC "-//W3C//DTD SVG 1.1//EN" "http://www.w3.org/Graphics/SVG/1.1/DTD/svg11.dtd">
<svg t="1601188521105" class="icon" viewBox="0 0 1024 1024" version="1.1"
    xmlns="http://www.w3.org/2000/svg" p-id="5479" data-spm-anchor-id="a313x.7781069.0.i5"
    width="36" height="36" xmlns:xlink="http://www.w3.org/1999/xlink">
    <defs>
        <style type="text/css"></style>
    </defs>
    <path
        d="M512 775.231l-258.331 128.86c-19.509 10.575-43.844 3.514-54.755-15.887a43.272 43.272 0 0 1-4.914-19.77V580c0 28.596 16.146 46.248 58.616 66.018L512 775.231z"
        fill="#757575" p-id="5480" data-spm-anchor-id="a313x.7781069.0.i4" class=""></path>
    <path
        d="M634.011 115H388.587C281.3 115 194 157.322 194 265.597V579.84c0 28.567 16.128 46.201 58.551 65.952L511.65 774.875l257.696 128.73a40.11 40.11 0 0 0 31.298 3.797c10.513-3.06 19.338-10.286 24.449-20.02A41.812 41.812 0 0 0 830 867.983V265.597C828.948 157.322 741.647 115 634.011 115z"
        fill="#f7f8f9" p-id="5481" data-spm-anchor-id="a313x.7781069.0.i1" class=""></path>
    <path
        d="M661.008 417.604H361.94c-17.233 0-31.204-14.053-31.204-31.389s13.971-31.389 31.204-31.389h299.068c17.233 0 31.204 14.053 31.204 31.39 0 17.335-13.97 31.388-31.204 31.388z"
        fill="#06f" p-id="5482" data-spm-anchor-id="a313x.7781069.0.i3" class=""></path>
</svg>