<?xml version="1.0" encoding="utf-8"?>
<svg version="1.0" pointer-events="none"
	 xmlns="http://www.w3.org/2000/svg" xmlns:xlink="http://www.w3.org/1999/xlink" x="0px" y="0px" viewBox="0 0 5000 3000"
	 enable-background="new 0 0 5000 3000" xml:space="preserve">
<g>
	
		<path name="福州市" fill-rule="evenodd" clip-rule="evenodd" fill="none" stroke="#000000" stroke-width="15.0059" stroke-linecap="round" stroke-linejoin="round" d="
		M3559.5,434.6L3522,292l-37.5-90l-30-45l-37.5-22.5l-30,7.5l-30,30l-37.5-15l-7.5,7.5l-15-15l-37.5,22.5l-15,52.5h-15l-15,22.5
		l-30-7.5l-52.5,15l-22.5-30h-30l-15-15l-15,7.5l-30-15v-15l-45-15l-22.5-30l15-7.5l-7.5-22.5l-37.5-37.5l-7.5-30h-30l-7.5-15
		l-22.5-7.5l-90,15l-22.5-22.5h-15l-7.5,7.5l22.5,15l-15,15l-22.5-15h-30l-7.5,45h-45l-15,15l7.5,7.5l-52.5,37.5l-15-7.5l15-15
		l-7.5-7.5l-37.5-7.5l-22.5,45l-7.5,75l-52.5-30l-15,37.5l-37.5,22.5l-22.5-22.5v-30l-22.5-37.5l-15-7.5l-67.5,52.5h-37.5v15l-30-15
		L2164,217l-30-75l-7.5,15H2089l-30-15l30-30l-7.5-15l-22.5-15l-30,15l-30-7.5l-7.5,22.5l-15-7.5l-15,30V172l-30,7.5l15,45l-15,15
		h-67.5l-37.5,52.5l7.5,30l22.5,7.5l-15,45l-45-22.5l-67.5,7.5l-30,15l-7.5,22.5l-22.5,7.5l7.5,7.5l-15,22.5l-52.5,30h-15
		l-22.5-22.5l7.5-30l-30-22.5l15-15V337l-37.5-22.5l-7.5-30l-52.5-7.5l-15,7.5v15l22.5,30l-45,37.5l-7.5,67.5l60,30v37.5l-15,15
		l37.5,30l22.5,37.5l22.5,7.5l7.5,15l-15,37.5l-37.5,30l-90-30l-67.5,67.5l15,30l-15,15l-22.5-7.5l7.5,15l-37.5,30l15,45l-15,45h-15
		l-7.5,15l-37.5-22.5l-45-7.5l-22.5,22.5l30,37.5l-60,7.5l-15,30l7.5,37.5l-22.5-7.5l-7.5,22.5v60l7.5,15l37.5,7.5l-7.5,67.5
		l15,37.5l22.5,7.5l-15,22.5l15,22.5l-22.5,7.5l-15-22.5l-127.6,15l15,30l-22.5,67.5l15,30l-15,45l15,15v45l-15,30l15,22.5
		l-22.5,22.5l15,52.5l-7.5,7.5l-7.5-22.5l-67.5-15l-7.5,7.5l15,60l-30,15V1605l-52.5-52.5l-52.5,82.5l30,52.5l-37.5,30l-7.5-7.5
		l-15,45l-22.5,22.5l7.5,15l15-7.5l7.5,22.5l37.5,22.5l30,127.6l120,75v15l60,60l37.5-7.5l-7.5-7.5l22.5-22.5h52.5l-15-7.5l7.5-15
		l15,22.5l15-30l30,15l15-52.5l22.5,30l15-7.5l7.5-22.5h60l15,30h30v15h15l7.5,15l45-30v60l45-30l7.5-30l37.5,22.5l52.5-30l15-22.5
		l-15-7.5l22.5-15h30l7.5,15l45,22.5l37.5-15v22.5l30-15l30-37.5l30-7.5l7.5-22.5l52.5-45h15l-15,15v82.5l22.5-22.5h15v-15
		l135.1-22.5l60-30l7.5,15l22.5-15l7.5,15l30-15l37.5,15l15-7.5l15,15l7.5-7.5l15,7.5l-7.5,22.5l-52.5,45l15-7.5l30,15l15,22.5
		l-22.5,7.5l22.5,45h-15l-22.5,45v45l45,45l-7.5,7.5l22.5,22.5l-7.5,15l7.5-7.5l15,15h-30l45,67.5l45,15l45-37.5l30,75v37.5l-15,15
		l-15-7.5l7.5,15l-15,30l-30-7.5l7.5,37.5l37.5,15v-15l45-30l7.5,30l22.5-7.5l7.5,7.5l-15,22.5l-7.5,67.5l30,30l37.5,22.5l112.5-7.5
		v-67.5l-22.5-45v-30l22.5-82.5l15-7.5l67.5,30l7.5,30l45,7.5l22.5-22.5l30,7.5l-7.5,37.5l-15,15v22.5l15,15l-37.5,37.5l22.5,30
		l-7.5,22.5h15l37.5-75h45v67.5l37.5,37.5v15l-37.5,37.5l15,30l37.5-37.5l37.5,7.5l-7.5,30l37.5-15l7.5-30l22.5-7.5l7.5-22.5
		l22.5-15l-7.5-22.5h-15l-30-37.5l15-37.5l22.5-7.5l15,30l-7.5,7.5l15,15l-7.5,30l15,7.5v45l-15,30l30,45l-15,7.5l7.5,22.5l22.5,7.5
		l15-15h75l22.5-45l-37.5,15l-22.5-7.5l45-22.5l7.5,7.5l15-15l-22.5-52.5l7.5-22.5h15l15-22.5l-15-45l-22.5,7.5l7.5,15l-67.5-7.5
		l7.5-15l30-7.5v-30l60-22.5l7.5,15l22.5,7.5l-15,15l7.5,22.5l37.5,7.5l-22.5,7.5l90,37.5l37.5,45h15l30-30l-45-22.5v-15l82.5-67.5
		l75-15l15,30l37.5-7.5v-15h-15l7.5-45l-22.5,7.5l-37.5-7.5l-15-22.5l-7.5,7.5l-15-15l-7.5-52.5l7.5-22.5l52.5-30l30,30l30-7.5
		l22.5-22.5l15-45l-7.5-7.5l-45,15l-37.5-15l-22.5-22.5l15-37.5l-30-30h-15l-7.5-15l-52.5,7.5l-15-15v-30l30-45l-15-22.5l-22.5,7.5
		l-60,45l-30,7.5l-15,30l-30,15l-22.5,22.5v15h-15l15,52.5l37.5,22.5v90l22.5,15l-15,15l-22.5-7.5l-45,30l-15,52.5l-37.5,7.5
		l-7.5-30l-45,22.5v-30l-30-45l15-60l-15-60l-22.5-22.5l7.5-22.5l-15-15l-45,22.5h-75l15-45v-52.5l-75,7.5l-45-15l-15-60l22.5-7.5
		l15-22.5l82.5-22.5l97.5,15l30-15l22.5-30l-15-37.5l15-22.5l30,7.5l22.5-52.5l-22.5-45l7.5-247.6l37.5-22.5h52.5l30-15l52.5-165.1
		l7.5-60l-15-37.5l-22.5-15l-60,15l-7.5-7.5l-30-135.1h-22.5v-37.5l-52.5-37.5l-7.5-37.5l-15-15v-37.5l75-60l45-15v-37.5l30-30
		l-22.5-30v-22.5l52.5-22.5h52.5l90-37.5l22.5,7.5l22.5,30h15l30-37.5v-15l-30-15l7.5-15l67.5-37.5l30,7.5l15,30l90-7.5l7.5-22.5
		l75-60l15-52.5l-22.5-7.5l-105,45l-37.5-7.5l7.5-30l-37.5-37.5l-45-90V434.6z M1601.3,449.6l7.5-7.5l-22.5-7.5l7.5,15H1601.3z
		 M4835,577.1l-22.5,7.5l7.5-7.5l-22.5-22.5l-7.5,37.5l15-15l15,45h15l15-22.5l15,7.5l7.5-7.5l-37.5-30V577.1z M3679.6,2272.8l15-15
		v-22.5h-15v-15l-7.5,30v-15l-22.5,7.5l-7.5-15l-7.5,37.5l37.5,7.5H3679.6z M3064.3,2182.8l60-60v-30h-30l7.5,15l-37.5,22.5
		l-15,37.5l-7.5-30l-15,15l15,22.5h15L3064.3,2182.8z M3889.7,914.8l7.5,15h15v-37.5h-15l-15-22.5l-30,30l-37.5,15v52.5h15l7.5-37.5
		l37.5-7.5L3889.7,914.8z M3814.6,1500l45-45h-30l-22.5,37.5L3814.6,1500z M3304.4,2768l45-7.5l15-15l-15-15l7.5-7.5l-15-15l-15,15
		h-22.5l7.5,7.5l-22.5,7.5l15,22.5V2768z M3281.9,2873l37.5-30l-30-22.5l15-15l-7.5-15l-30,37.5l7.5,37.5L3281.9,2873z
		 M3214.4,1072.3l7.5-7.5L3214.4,1072.3z M3739.6,1087.3l52.5-30l7.5,7.5l15-37.5l-22.5-7.5l-30,30l-22.5-22.5l7.5-7.5l-30-7.5v37.5
		l-15,22.5l7.5,7.5L3739.6,1087.3z M3184.4,1102.3l15-7.5l15-30l-7.5-7.5l22.5-7.5l-37.5-7.5l-37.5-37.5l-37.5,7.5l-7.5,30
		l22.5,22.5v15l52.5,15V1102.3z M3649.6,494.6l22.5-15l-7.5-7.5L3649.6,494.6z M3777.1,569.6L3777.1,569.6z M2861.8,2813h30l-7.5-45
		l-30,15v22.5L2861.8,2813z M3221.9,2137.8v15l22.5,15l52.5-15l22.5,15l15-15l-7.5-52.5l-15,15l-52.5,15v-15l-30,7.5L3221.9,2137.8z
		 M3244.4,1905.2l15-7.5v-15h-15l-7.5,15L3244.4,1905.2z M3814.6,592.1h15H3814.6z M3537,764.7h7.5H3537z M3251.9,1109.8l-7.5-7.5
		l22.5-15l-22.5-15l-30,30l30,22.5v15l7.5-22.5V1109.8z M3507,2572.9l-7.5-7.5v15l15,7.5L3507,2572.9z M3402,2880.5l15,22.5
		l7.5-22.5l-15-7.5L3402,2880.5z M3679.6,472.1l7.5,7.5v-15L3679.6,472.1z M3709.6,479.6l-15,15l7.5,7.5l22.5-30h-15V479.6z
		 M3874.7,862.2l7.5,7.5l15-22.5h-22.5V862.2z M3754.6,2595.4l7.5,7.5v-15L3754.6,2595.4z M3754.6,1455l30-22.5h-52.5L3754.6,1455z
		 M3822.1,1027.3l7.5,7.5v-15L3822.1,1027.3z M3544.5,839.7l7.5,7.5L3544.5,839.7z M3176.9,2085.2l7.5,7.5l30-30l-30,7.5
		L3176.9,2085.2z M2696.7,2587.9l22.5,7.5l-15-15l7.5-7.5L2696.7,2587.9z M3507,824.7l-7.5,7.5l7.5-15V824.7z M3567,2415.4l-7.5,7.5
		L3567,2415.4z M3034.3,2610.4l7.5,15L3034.3,2610.4z M3507,809.7l15-7.5L3507,809.7z M3807.1,1500v15l7.5-15H3807.1z
		 M3236.9,2437.9h7.5H3236.9z M3229.4,2678h7.5H3229.4z M3169.4,1132.4l22.5,15v-15H3169.4z M3484.5,2137.8l7.5,7.5l7.5-15
		L3484.5,2137.8z M3326.9,2340.3h-7.5H3326.9z M3852.2,817.2l15-15l-7.5-22.5l-15,7.5v22.5L3852.2,817.2z M4302.3,667.2l22.5-22.5
		l-22.5,15V667.2z M3342,869.8l15-15h-15l-7.5,15H3342z M3199.4,2100.2l-7.5,22.5h30l15-15l-15-30l-22.5,15V2100.2z M3349.5,2768
		v7.5V2768z M3116.9,2295.3l7.5-7.5L3116.9,2295.3z M3101.9,2250.3l15,7.5L3101.9,2250.3z M3604.6,2250.3l-7.5,15l15,7.5l-7.5-30
		V2250.3z M3101.9,2813l-7.5,7.5l15-15L3101.9,2813z M2876.8,2828v7.5V2828z M3402,2100.2l7.5-7.5L3402,2100.2z M3124.4,2002.7
		l7.5,7.5l-7.5-15V2002.7z M3244.4,2640.4h15l-7.5-7.5L3244.4,2640.4z M2644.2,2640.4l7.5-7.5L2644.2,2640.4z M3342,2925.6l-7.5,7.5
		h15L3342,2925.6z M3537,2092.7l-7.5-7.5L3537,2092.7z M3146.9,2077.7l-7.5,7.5l22.5-7.5H3146.9z M3522,2617.9h7.5H3522z
		 M3619.6,2505.4l7.5,7.5v-15L3619.6,2505.4z M3904.7,877.3v-7.5V877.3z M3559.5,2280.3h7.5H3559.5z M3342,809.7v-7.5V809.7z
		 M3229.4,2565.4h15l-22.5-7.5L3229.4,2565.4z M3319.4,2715.5l7.5-7.5h-15L3319.4,2715.5z M3274.4,1897.7l15-15l-7.5,7.5
		L3274.4,1897.7z M3131.9,2077.7l7.5-7.5L3131.9,2077.7z M3154.4,1094.8h7.5H3154.4z M3206.9,1912.7l7.5-7.5L3206.9,1912.7z
		 M3079.4,2092.7l7.5-15l-30,22.5h15L3079.4,2092.7z M3627.1,2302.8h7.5H3627.1z M3281.9,2783h-7.5H3281.9z M3694.6,584.6v-7.5
		V584.6z M3634.6,592.1l7.5,7.5v-15L3634.6,592.1z M3912.2,869.8L3912.2,869.8z M3116.9,2272.8L3116.9,2272.8z M3477,2122.7h7.5
		H3477z M3432,2888v-7.5V2888z M3672.1,607.1L3672.1,607.1z M2944.3,2768v7.5V2768z M3214.4,2497.9l7.5-7.5L3214.4,2497.9z
		 M2846.8,2730.5h7.5H2846.8z M3342,2002.7l7.5-7.5L3342,2002.7z M3266.9,2100.2l7.5-7.5L3266.9,2100.2z M3311.9,2362.8v-7.5V2362.8
		z M3342,2925.6h15H3342z M3229.4,2047.7l7.5-7.5L3229.4,2047.7z M3146.9,2017.7h7.5H3146.9z M3304.4,2385.3h7.5H3304.4z
		 M3289.4,2392.9l7.5-7.5L3289.4,2392.9z M2861.8,2865.5l7.5,7.5l7.5-15L2861.8,2865.5z M4655,1027.3h7.5H4655z M3552,2092.7
		l-7.5,7.5L3552,2092.7z M2996.8,2205.3v7.5V2205.3z M2884.3,2865.5v-7.5V2865.5z M3244.4,2467.9v-7.5V2467.9z M3041.8,2565.4
		l7.5,7.5L3041.8,2565.4z M3304.4,2805.5v-7.5V2805.5z M3537,2100.2v-7.5V2100.2z M3259.4,2542.9l7.5-7.5L3259.4,2542.9z
		 M3379.5,2895.5l7.5-7.5L3379.5,2895.5z M2839.3,2768h7.5H2839.3z M3342,2963.1l-7.5,22.5l15-7.5L3342,2963.1z M3582,2205.3
		l7.5-7.5L3582,2205.3z M3634.6,2512.9h-7.5H3634.6z M3582,2475.4L3582,2475.4z M3304.4,2790.5v-7.5V2790.5z M3281.9,2205.3h7.5
		H3281.9z M3259.4,2798h7.5H3259.4z M3829.6,974.8v-7.5V974.8z M4294.8,817.2v7.5V817.2z M4294.8,839.7v7.5V839.7z"/>
	
		<path name="鼓楼区" fill-rule="evenodd" clip-rule="evenodd" fill="none" stroke="#333333" stroke-width="7.5029" stroke-linecap="round" stroke-linejoin="round" stroke-dasharray="7.5029,45.0177" d="
		M2449.1,1132.4l-30,30v15l15,45l30,30l52.5-30l52.5,7.5l-30-97.5l-30-15h-30l-22.5,15H2449.1z"/>
	
		<path name="台江区" fill-rule="evenodd" clip-rule="evenodd" fill="none" stroke="#333333" stroke-width="7.5029" stroke-linecap="round" stroke-linejoin="round" stroke-dasharray="7.5029,45.0177" d="
		M2464.1,1252.4l52.5,30l52.5-15l82.5,37.5v-30l-15-22.5h-67.5v-22.5l-22.5-7.5h-45l7.5,7.5l-37.5,15L2464.1,1252.4z"/>
	
		<path name="仓山区" fill-rule="evenodd" clip-rule="evenodd" fill="none" stroke="#333333" stroke-width="7.5029" stroke-linecap="round" stroke-linejoin="round" stroke-dasharray="7.5029,45.0177" d="
		M2734.2,1470l67.5-15l-7.5-52.5l-15-15l-82.5-37.5l-82.5-67.5l-45-15l-22.5,15h-30l-82.5-60l-30-60h-30l7.5,127.6l22.5,45l30,15
		l-30,30l15,22.5h15l22.5-22.5l37.5,45l157.6,7.5l45,37.5h15H2734.2z"/>
	
		<path name="马尾区" fill-rule="evenodd" clip-rule="evenodd" fill="none" stroke="#333333" stroke-width="7.5029" stroke-linecap="round" stroke-linejoin="round" stroke-dasharray="7.5029,45.0177" d="
		M2651.7,1289.9v15l45,45l45,15l52.5,37.5l7.5,52.5l82.5-67.5l52.5-120l37.5-45l37.5,7.5l15,37.5l195.1,15l-15-97.5h-22.5v-37.5
		l-37.5-22.5l-15-30l-120,30l-45-15l-22.5-30l-30-15l-45,7.5l-30-22.5l-45-7.5l-15,7.5l7.5,67.5h-30v15l22.5,7.5v15l-7.5-7.5v22.5
		l-15,15l-22.5-7.5l7.5,30l-22.5,30l7.5,30l-22.5,22.5h-22.5l-15,15l-7.5-7.5L2651.7,1289.9z"/>
	
		<path name="晋安区" fill-rule="evenodd" clip-rule="evenodd" fill="none" stroke="#333333" stroke-width="7.5029" stroke-linecap="round" stroke-linejoin="round" stroke-dasharray="7.5029,45.0177" d="
		M2569.2,1229.9v22.5h67.5l30,52.5l15-15l37.5-7.5v-37.5l22.5-37.5l-7.5-30l22.5,7.5l15-15l7.5-22.5l-22.5-22.5l7.5-15l22.5,7.5
		l-7.5-37.5l15-7.5v-15l-15-7.5l22.5-7.5l7.5-30l-30-30l-45-7.5l-22.5-30h-15l7.5-15l-15-52.5l-15-22.5l-22.5,7.5l-22.5-22.5l-15-60
		l-15-15v-37.5l22.5-22.5v-15l-30-22.5v-45l-30-22.5l-30,45l-7.5-37.5l-37.5-7.5l22.5-67.5l-30-7.5l22.5-15v-15l-22.5,22.5
		l-37.5-7.5l-22.5,30l-7.5-15l-22.5,7.5v45l-15,15h-37.5l-22.5,22.5l15,52.5l-7.5,15l-22.5,7.5l-7.5,52.5l37.5,45l-30,22.5l15,30
		l30,7.5l22.5,22.5v45l-15,30l22.5,45h30l22.5,37.5l-7.5,30l-15,7.5v30l22.5,7.5l22.5,30l22.5-15l67.5,7.5l22.5,82.5L2569.2,1229.9z
		"/>
	
		<path name="长乐区" fill-rule="evenodd" clip-rule="evenodd" fill="none" stroke="#333333" stroke-width="7.5029" stroke-linecap="round" stroke-linejoin="round" stroke-dasharray="7.5029,45.0177" d="
		M3221.9,1282.4l-195.1-15l-15-37.5l-37.5-7.5l-45,52.5l-7.5,45l-45,75l-82.5,67.5l-60,7.5l-15,30l15,52.5h15l15,45v22.5l-15,15v60
		l-22.5,22.5l7.5,37.5l30-22.5l15,30l45,15v30l30,22.5h135.1l15,15l-22.5,37.5l22.5,7.5v15l45,7.5l30,22.5h-15l-15,60l30,30l-15,15
		l7.5,30l30-15l22.5-30l-15-37.5l15-22.5l30,7.5l22.5-52.5l-22.5-45l7.5-247.6l37.5-22.5h52.5l30-15l52.5-165.1l7.5-60l-15-37.5
		l-22.5-15l-60,15l-15-7.5L3221.9,1282.4z M2989.3,1890.2l-7.5,7.5L2989.3,1890.2z M3814.6,1500l45-45h-30l-22.5,37.5L3814.6,1500z
		 M3244.4,1905.2l15-7.5v-15h-15l-7.5,15L3244.4,1905.2z M3754.6,1455l30-22.5h-52.5L3754.6,1455z M3176.9,2085.2l7.5,7.5l30-30
		l-30,7.5L3176.9,2085.2z M3807.1,1500v15l7.5-15H3807.1z M2906.8,1822.6v7.5V1822.6z M3124.4,2002.7l7.5,7.5l-7.5-15V2002.7z
		 M3274.4,1897.7l15-15l-7.5,7.5L3274.4,1897.7z M3206.9,1912.7l7.5-7.5L3206.9,1912.7z M3229.4,2047.7l7.5-7.5L3229.4,2047.7z
		 M3146.9,2017.7h7.5H3146.9z"/>
	
		<path name="闽侯县" fill-rule="evenodd" clip-rule="evenodd" fill="none" stroke="#333333" stroke-width="7.5029" stroke-linecap="round" stroke-linejoin="round" stroke-dasharray="7.5029,45.0177" d="
		M2419.1,1177.4v-15l30-22.5l-7.5-22.5l-37.5-22.5v-22.5l22.5-30v-30l-22.5-22.5l-37.5-7.5v-22.5l-15-15l15-30v-45l-22.5-22.5
		l-30-7.5l-15-22.5l15-22.5h15l-7.5-22.5l-37.5-30l15-7.5l-7.5-45l37.5-15l-15-52.5l7.5-15l15-15h37.5l15-15l-7.5-30l22.5-22.5
		l-45-45l-105-67.5l37.5-37.5l-105-60v-60l22.5-45l-45,7.5l-30-75l-7.5,15l-60-7.5l-7.5-7.5l30-30l-30-30l-30,15l-30-7.5l-7.5,22.5
		l-15-7.5l-15,30V172l-30,7.5l45,52.5l-7.5,30l-7.5-22.5l-37.5,22.5l7.5,30l15-7.5l30,30l-22.5,90l-22.5,45l-37.5,15l-15,30h-30
		l-7.5,45l-30,7.5l-7.5,45l-15,22.5l-30,15l7.5,15l-15,22.5v52.5l-15,30l-37.5,22.5l7.5,90l22.5,7.5h22.5l7.5-30l22.5,15l15-7.5
		l45-45h15l7.5,15v15l-52.5,52.5l-7.5,105l-30,15l-30,67.5l7.5,22.5l-15,15l-15,60l15,37.5l-15,30l-22.5,7.5l22.5,22.5l60-30h37.5
		l15,7.5l-7.5,52.5l52.5,15l22.5,22.5l45-15l15,7.5l7.5,22.5l15-7.5l60,15l90,37.5l22.5,22.5L2134,1470l22.5,7.5l15-15l15,15
		l-15,7.5l-15,37.5v30l22.5,37.5l22.5,7.5l-15,15l15,7.5l37.5-30l22.5,22.5l30-7.5l7.5,22.5l37.5,15l-7.5,45l67.5,75l15-37.5l30,7.5
		l45-30l15,45l15,7.5l30-22.5l22.5,30v22.5l45,22.5l37.5-15l15,15v22.5h30l37.5-75l-7.5-45l22.5-15v-60l15-7.5l-7.5-75h-22.5
		l-15-52.5l15-30h-37.5l-37.5-37.5h-142.6l-37.5-22.5l-22.5-30l-22.5,22.5h-15l-15-22.5l30-30l-52.5-60l-7.5-105l15-30l15,7.5
		L2419.1,1177.4z"/>
	
		<path name="连江县" fill-rule="evenodd" clip-rule="evenodd" fill="none" stroke="#333333" stroke-width="7.5029" stroke-linecap="round" stroke-linejoin="round" stroke-dasharray="7.5029,45.0177" d="
		M2501.6,509.6l-22.5,15l30,7.5l-22.5,67.5h30l15,45l22.5-15l-7.5-15l15-15l30,15v52.5l30,22.5l-30,75l22.5,15v37.5l15,7.5v15
		l22.5,22.5l15-7.5l30,30v60h15l22.5,30h30l45,30v37.5l30,7.5l22.5,22.5l45-7.5l37.5,15l22.5,30l45,15l120-30l-22.5-37.5v-37.5
		l75-60l45-15v-37.5l30-30l-22.5-30v-22.5l52.5-22.5h52.5l90-37.5l22.5,7.5l22.5,30h15l30-37.5v-15l-30-15l7.5-15l67.5-37.5l30,7.5
		l15,30l90-7.5l7.5-22.5l75-60l15-37.5v-15l-22.5-7.5l-105,45l-37.5-7.5l7.5-30l-37.5-37.5l-45-105l-97.5,75l-82.5,22.5h-60
		l-22.5-15l-15-67.5l-45-67.5l-37.5,37.5l-7.5,67.5l-60,15l-7.5,22.5l-37.5,30h-15l-7.5-22.5l-45,22.5l-7.5-15l7.5-22.5l15-7.5
		l-30-30l-30,15v-37.5l-45,22.5l-7.5-15l-52.5,7.5l-15,30l-45,22.5l-37.5-15l-22.5,7.5l-15-30l-22.5-7.5l15-7.5l-7.5-37.5h-15
		l7.5,15h-37.5l-52.5,30l-75-15l-15,7.5l-15,37.5H2501.6v-22.5l22.5-7.5l-22.5,7.5V509.6z M4835,577.1l-22.5,7.5l7.5-7.5l-22.5-22.5
		l-7.5,37.5l15-15l15,45h15l15-22.5l15,7.5l7.5-7.5l-37.5-30V577.1z M3889.7,914.8l7.5,15h15v-37.5h-15l-15-22.5l-30,30l-37.5,15
		v52.5h15l7.5-37.5l37.5-7.5L3889.7,914.8z M3214.4,1072.3l7.5-7.5L3214.4,1072.3z M3184.4,1102.3l15-7.5l15-30l-7.5-7.5l22.5-7.5
		l-37.5-7.5l-37.5-37.5l-37.5,7.5l-7.5,30l22.5,22.5v15l52.5,15V1102.3z M3739.6,1087.3l52.5-30l7.5,7.5l15-37.5l-22.5-7.5l-30,30
		l-22.5-22.5l7.5-7.5l-30-7.5v37.5l-15,22.5l7.5,7.5L3739.6,1087.3z M3649.6,494.6l22.5-15l-7.5-7.5L3649.6,494.6z M3777.1,569.6
		L3777.1,569.6z M3814.6,592.1h15H3814.6z M3537,764.7h7.5H3537z M3251.9,1109.8l-7.5-7.5l22.5-15l-22.5-15l-30,30l30,22.5v15
		l7.5-22.5V1109.8z M3679.6,472.1l7.5,7.5v-15L3679.6,472.1z M3709.6,479.6l-15,15l7.5,7.5l22.5-30h-15V479.6z M3874.7,862.2
		l7.5,7.5l15-22.5h-22.5V862.2z M3822.1,1027.3l7.5,7.5v-15L3822.1,1027.3z M3544.5,839.7l7.5,7.5L3544.5,839.7z M3507,824.7
		l-7.5,7.5l7.5-15V824.7z M3507,809.7l15-7.5L3507,809.7z M3169.4,1132.4l22.5,15v-15H3169.4z M3852.2,817.2l15-15l-7.5-22.5
		l-15,7.5v22.5L3852.2,817.2z M4302.3,667.2l22.5-22.5l-22.5,15V667.2z M3342,869.8l15-15h-15l-7.5,15H3342z M3904.7,877.3v-7.5
		V877.3z M3342,809.7v-7.5V809.7z M3154.4,1094.8h7.5H3154.4z M3694.6,584.6v-7.5V584.6z M3634.6,592.1l7.5,7.5v-15L3634.6,592.1z
		 M3912.2,869.8L3912.2,869.8z M3672.1,607.1L3672.1,607.1z M4655,1027.3h7.5H4655z M3829.6,974.8v-7.5V974.8z M4294.8,817.2v7.5
		V817.2z M4294.8,839.7v7.5V839.7z"/>
	
		<path name="罗源县" fill-rule="evenodd" clip-rule="evenodd" fill="none" stroke="#333333" stroke-width="7.5029" stroke-linecap="round" stroke-linejoin="round" stroke-dasharray="7.5029,45.0177" d="
		M3559.5,434.6L3522,292l-37.5-90l-30-45l-37.5-22.5l-30,7.5l-30,30l-37.5-15l-7.5,7.5l-15-15l-37.5,22.5l-15,52.5h-15l-15,22.5
		l-30-7.5l-52.5,15l-22.5-30h-30l-15-15l-15,7.5l-30-15v-15l-45-15l-22.5-30l15-7.5l-7.5-22.5l-37.5-37.5l-7.5-30h-30l-7.5-15
		l-22.5-7.5l-90,15l-22.5-22.5h-15l-7.5,7.5l22.5,15l-15,15l-22.5-15h-30l-7.5,45h-45l-15,15l7.5,7.5l-52.5,37.5l-15-7.5l15-15
		l-7.5-7.5l-37.5-7.5l-22.5,45l-7.5,75l-52.5-30l-15,37.5l-37.5,22.5l-22.5-22.5v-30l-22.5-37.5l-15-7.5l-67.5,52.5h-37.5v15
		l-7.5-7.5l-22.5,37.5v60l105,60l-37.5,37.5l82.5,45v15l82.5,67.5l22.5-30l37.5,7.5l22.5-22.5v15v-22.5l22.5-15l-22.5,15v22.5h15
		v-15l30-30h52.5l7.5,15h15l97.5-45l7.5,37.5l-15,7.5l30,15v22.5l30-7.5l30,15l52.5-22.5l15-30l45-7.5l7.5,15l52.5-22.5l7.5,7.5
		l-15,30l30-15l22.5,22.5h15l-22.5,37.5l7.5,15h15l22.5-22.5l15,22.5h15l45-52.5l60-15l7.5-67.5l30-37.5l37.5,37.5l30,97.5l22.5,15
		l97.5-7.5l67.5-30L3559.5,434.6z"/>
	
		<path name="闽清县" fill-rule="evenodd" clip-rule="evenodd" fill="none" stroke="#333333" stroke-width="7.5029" stroke-linecap="round" stroke-linejoin="round" stroke-dasharray="7.5029,45.0177" d="
		M1946.4,209.5l-15,30h-67.5l-37.5,52.5l7.5,30l22.5,7.5l-15,45l-45-22.5l-67.5,7.5l-30,15l-7.5,22.5l-22.5,7.5l7.5,7.5l-15,22.5
		l-52.5,30h-15l-22.5-22.5l7.5-30l-30-22.5l15-15V337l-37.5-22.5l-7.5-30h-67.5l22.5,45l-45,37.5l-7.5,67.5l60,30v37.5l-15,15
		l7.5,15h15l30,45l22.5,7.5l15,22.5l-15,37.5l-37.5,30l-67.5-30l-45,15l-45,52.5l15,30l-15,15l-22.5-7.5l7.5,15l-37.5,30l15,45
		l-15,45h-15l-7.5,15l-37.5-22.5l-45-7.5l-22.5,22.5l30,37.5l-60,7.5l-15,30l7.5,37.5l-22.5-7.5l-7.5,22.5v60l7.5,15l37.5,7.5
		l-7.5,67.5l15,37.5l22.5,7.5l-15,22.5l15,22.5l-22.5,7.5l-15-22.5l-127.6,15l15,30l-15,60l30,22.5l7.5,22.5l37.5,15l15-30l22.5-7.5
		l15,15l7.5-22.5l22.5,7.5l15,30l15-15l7.5,7.5l-7.5,7.5l15,30v52.5l37.5-7.5l45-22.5l7.5-15l22.5,52.5l30,7.5v15l22.5,7.5l30-7.5
		v-30l30-15l-7.5,60l7.5,15l30,7.5l15-22.5l-7.5-37.5l30-37.5l22.5-60h30v-22.5l30,7.5l15-15v-45h30l-7.5-37.5l22.5-15l-7.5-22.5
		l15-15l45,15l22.5-7.5l15-30l-15-15v-22.5l15-60l15-15l-7.5-22.5l30-67.5l30-15l7.5-97.5l22.5-37.5l30-22.5v-30h-22.5l-37.5,45
		l-22.5,7.5l-22.5-15v30h-22.5l-30-7.5l-7.5-82.5l37.5-30l15-30v-52.5l15-22.5l-7.5-7.5l45-45v-45l45-22.5v-30h30l52.5-45l22.5-45
		l22.5-90l-15-22.5h-30l-7.5-30l30-22.5l15,22.5l7.5-7.5V232l-15-15L1946.4,209.5z M1601.3,449.6l7.5-7.5l-22.5-7.5l7.5,15H1601.3z"
		/>
	
		<path name="永泰县" fill-rule="evenodd" clip-rule="evenodd" fill="none" stroke="#333333" stroke-width="7.5029" stroke-linecap="round" stroke-linejoin="round" stroke-dasharray="7.5029,45.0177" d="
		M1008.5,1349.9l-7.5,7.5l15,45l-15,30l15,15v45l-15,30l15,22.5l-22.5,22.5l15,52.5l-7.5,7.5l-7.5-22.5l-67.5-15l-7.5,7.5l15,60
		l-30,15V1605l-52.5-52.5l-52.5,82.5l30,52.5l-37.5,30l-7.5-7.5l-15,45l-22.5,22.5l7.5,15l15-7.5l7.5,22.5l37.5,22.5l30,127.6
		l120,75v15l60,60l37.5-7.5l-7.5-7.5l22.5-22.5h52.5l-15-7.5l7.5-15l15,22.5l15-30l30,15l15-52.5l22.5,30l15-7.5l7.5-22.5h60l15,30
		h30v15h15l7.5,15l45-30v60l45-30l7.5-30l37.5,22.5l52.5-30l15-22.5l-15-7.5l22.5-15h30l7.5,15l45,22.5l37.5-15v22.5l30-15l30-37.5
		l30-7.5l30-45l45-22.5l-15,15v82.5l22.5-22.5h15v-15l75-7.5l112.5-37.5l7.5-52.5l7.5,15h15v-15l37.5-37.5l7.5,7.5l22.5-15
		l37.5,22.5l52.5-7.5l15-15v-37.5h22.5l67.5-45l-37.5-37.5l7.5-52.5l-37.5-15l-7.5-22.5l-30,7.5L2239,1590l-30,30h-22.5l15-22.5
		l-22.5-7.5l-22.5-37.5v-30l30-45l-7.5-15l-22.5,15l-22.5-7.5l22.5-45l-22.5-30h-15v-15l-135.1-37.5l-15,15l-15-37.5l-52.5,15
		l-15-22.5h-22.5l-37.5-22.5v-52.5h-37.5l-60,30l-37.5-30h-45v30l-22.5,15l7.5,30l-37.5,22.5v45l-30-7.5l-15,15l7.5,7.5h-30
		l-15,22.5v37.5l-22.5,7.5l-15,30l7.5,37.5l-15,15h-22.5l-15-22.5l7.5-52.5h-15l-15,45l-30,7.5l-22.5-7.5l-7.5-22.5h-22.5
		l-22.5-52.5l-7.5,15l-82.5,30v-52.5l-15-45l-7.5,15l-15-7.5l-7.5-22.5l-22.5-7.5l-7.5,22.5l-15-15l-22.5,7.5l-7.5,30l-45-22.5
		l-22.5-30L1008.5,1349.9z"/>
	
		<path name="平潭县" fill-rule="evenodd" clip-rule="evenodd" fill="none" stroke="#333333" stroke-width="7.5029" stroke-linecap="round" stroke-linejoin="round" stroke-dasharray="7.5029,45.0177" d="
		M3244.4,2505.4l7.5,30l22.5,7.5l-15,15l7.5,22.5l37.5,7.5l-22.5,7.5l90,37.5l37.5,45h15l30-30l-45-22.5v-15l82.5-67.5l75-15l15,30
		l37.5-7.5v-15h-15l7.5-45l-22.5,7.5l-37.5-7.5l-15-22.5l-7.5,7.5l-15-15l-7.5-52.5l7.5-22.5l52.5-30l30,30l30-7.5l22.5-22.5l15-45
		l-7.5-7.5l-45,15l-37.5-15l-22.5-22.5l15-37.5l-30-30h-15l-7.5-15l-52.5,7.5l-15-15v-30l30-45l-15-22.5l-22.5,7.5l-60,45l-30,7.5
		l-15,30l-30,15l-22.5,22.5v15h-15l15,52.5l37.5,22.5v90l22.5,15l-15,15l-22.5-7.5l-45,30l-7.5,37.5L3244.4,2505.4z M3679.6,2272.8
		l15-15v-22.5h-15v-15l-7.5,30v-15l-22.5,7.5l-7.5-15l-7.5,37.5l37.5,7.5H3679.6z M3064.3,2182.8l60-60v-30h-30l7.5,15l-37.5,22.5
		l-15,37.5l-7.5-30l-15,15l15,22.5h15L3064.3,2182.8z M3304.4,2768l45-7.5l15-15l-15-15l7.5-7.5l-15-15l-15,15h-22.5l7.5,7.5
		l-22.5,7.5l15,22.5V2768z M3281.9,2873l37.5-30l-30-22.5l15-15l-7.5-15l-30,37.5l7.5,37.5L3281.9,2873z M3221.9,2137.8v15l22.5,15
		l52.5-15l22.5,15l15-15l-7.5-52.5l-15,15l-52.5,15v-15l-30,7.5L3221.9,2137.8z M3507,2572.9l-7.5-7.5v15l15,7.5L3507,2572.9z
		 M3402,2880.5l15,22.5l7.5-22.5l-15-7.5L3402,2880.5z M3754.6,2595.4l7.5,7.5v-15L3754.6,2595.4z M3567,2415.4l-7.5,7.5
		L3567,2415.4z M3236.9,2437.9h7.5H3236.9z M3484.5,2137.8l7.5,7.5l7.5-15L3484.5,2137.8z M3326.9,2340.3h-7.5H3326.9z
		 M3199.4,2100.2l-7.5,22.5h30l15-15l-15-30l-22.5,15V2100.2z M3349.5,2768v7.5V2768z M3604.6,2250.3l-7.5,15l15,7.5l-7.5-30V2250.3
		z M3402,2100.2l7.5-7.5L3402,2100.2z M3342,2925.6l-7.5,7.5h15L3342,2925.6z M3537,2092.7l-7.5-7.5L3537,2092.7z M3146.9,2077.7
		l-7.5,7.5l22.5-7.5H3146.9z M3522,2617.9h7.5H3522z M3619.6,2505.4l7.5,7.5v-15L3619.6,2505.4z M3559.5,2280.3h7.5H3559.5z
		 M3229.4,2565.4h15l-22.5-7.5L3229.4,2565.4z M3319.4,2715.5l7.5-7.5h-15L3319.4,2715.5z M3131.9,2077.7l7.5-7.5L3131.9,2077.7z
		 M3627.1,2302.8h7.5H3627.1z M3281.9,2783h-7.5H3281.9z M3477,2122.7h7.5H3477z M3432,2888v-7.5V2888z M3214.4,2497.9l7.5-7.5
		L3214.4,2497.9z M3342,2002.7l7.5-7.5L3342,2002.7z M3266.9,2100.2l7.5-7.5L3266.9,2100.2z M3311.9,2362.8v-7.5V2362.8z
		 M3342,2925.6h15H3342z M3289.4,2392.9l7.5-7.5L3289.4,2392.9z M3304.4,2385.3h7.5H3304.4z M3552,2092.7l-7.5,7.5L3552,2092.7z
		 M3244.4,2467.9v-7.5V2467.9z M3304.4,2805.5v-7.5V2805.5z M3537,2100.2v-7.5V2100.2z M3259.4,2542.9l7.5-7.5L3259.4,2542.9z
		 M3379.5,2895.5l7.5-7.5L3379.5,2895.5z M3342,2963.1l-7.5,22.5l15-7.5L3342,2963.1z M3582,2205.3l7.5-7.5L3582,2205.3z
		 M3634.6,2512.9h-7.5H3634.6z M3582,2475.4L3582,2475.4z M3304.4,2790.5v-7.5V2790.5z M3281.9,2205.3h7.5H3281.9z M3259.4,2798h7.5
		H3259.4z"/>
	
		<path name="福清市" fill-rule="evenodd" clip-rule="evenodd" fill="none" stroke="#333333" stroke-width="7.5029" stroke-linecap="round" stroke-linejoin="round" stroke-dasharray="7.5029,45.0177" d="
		M2081.5,1905.2l7.5,15l22.5-15l7.5,15l30-15l90,22.5l-7.5,22.5l-52.5,45l15-7.5l30,15l15,22.5l-22.5,7.5l22.5,45h-15l-22.5,45v45
		l45,45l-7.5,7.5l22.5,22.5l-7.5,15l7.5-7.5l15,15h-30l45,67.5l45,15l45-37.5l30,75v37.5l-15,15l-15-7.5l7.5,15l-15,30l-30-7.5
		l7.5,37.5l37.5,15v-15l45-30l7.5,30l22.5-7.5l7.5,7.5l-15,22.5l-7.5,67.5l30,30l37.5,22.5l112.5-7.5v-67.5l-22.5-45v-30l22.5-82.5
		l15-7.5l67.5,30l7.5,30l45,7.5l22.5-22.5l30,7.5l-7.5,37.5l-15,15v22.5l15,15l-37.5,37.5l22.5,30l-7.5,22.5h15l37.5-75h45v67.5
		l37.5,37.5v15l-37.5,37.5l15,30l37.5-37.5l37.5,7.5l-7.5,30l37.5-15l7.5-30l22.5-7.5l7.5-22.5l22.5-15l-7.5-22.5h-15l-30-37.5
		l15-37.5l22.5-7.5l15,30l-7.5,7.5l15,15l-7.5,30l15,7.5v45l-15,30l30,45l-15,7.5l7.5,22.5l22.5,7.5l15-15h75l22.5-45l-37.5,15
		l-22.5-7.5l45-22.5l7.5,7.5l15-15l-22.5-52.5l7.5-22.5h15l15-22.5l-7.5-37.5l-22.5-7.5v22.5l-67.5-7.5l7.5-15l30-7.5v-30l60-22.5
		v-15l-37.5,7.5l-7.5-30h-15l-15,22.5l-22.5-7.5l7.5-22.5l-30-45l15-37.5l-7.5-60l-30-45l7.5-22.5l-15-15l-45,22.5h-75l15-45v-52.5
		l-75,7.5l-52.5-22.5l-7.5-52.5l22.5-7.5l15-22.5l82.5-22.5l97.5,15l-7.5-30l15-15l-30-30l15-60h15l-75-37.5l-22.5,7.5l22.5-67.5
		l-37.5-22.5l-7.5,15l-60-7.5l-45,15v-15l-30-15v-30l-30-15l-15,7.5l-15-37.5l-30,22.5l-30,67.5l-37.5,7.5l-15-37.5l-45,15
		l-22.5-22.5h-15l-15-52.5l-30,22.5h-22.5l-7.5-52.5l-52.5,30l-37.5-7.5v37.5l-30-30l-30,7.5l-30,30l-37.5,7.5v30l-30,30H2209
		l-30-22.5l-30,15l-7.5-7.5l-22.5,30h-15l-7.5,22.5l-15-7.5l-7.5,22.5L2081.5,1905.2z M2861.8,2813h30l-7.5-45l-30,15v22.5
		L2861.8,2813z M2696.7,2587.9l22.5,7.5l-15-15l7.5-7.5L2696.7,2587.9z M3034.3,2610.4l7.5,15L3034.3,2610.4z M3229.4,2678h7.5
		H3229.4z M2989.3,1890.2L2989.3,1890.2z M3116.9,2295.3l7.5-7.5L3116.9,2295.3z M3101.9,2250.3l15,7.5L3101.9,2250.3z M3101.9,2813
		l-7.5,7.5l15-15L3101.9,2813z M2876.8,2828v7.5V2828z M3244.4,2640.4h15l-7.5-7.5L3244.4,2640.4z M2644.2,2640.4l7.5-7.5
		L2644.2,2640.4z M3079.4,2092.7l7.5-15l-30,22.5h15L3079.4,2092.7z M3116.9,2272.8L3116.9,2272.8z M2944.3,2768v7.5V2768z
		 M2846.8,2730.5h7.5H2846.8z M2861.8,2865.5l7.5,7.5l7.5-15L2861.8,2865.5z M2996.8,2205.3v7.5V2205.3z M2884.3,2865.5v-7.5V2865.5
		z M3041.8,2565.4l7.5,7.5L3041.8,2565.4z M2839.3,2768h7.5H2839.3z"/>
</g>
</svg>
