<?xml version="1.0" encoding="utf-8"?>
<!-- Generator: Adobe Illustrator 28.0.0, SVG Export Plug-In . SVG Version: 6.00 Build 0)  -->
<svg version="1.1" id="图层_1" xmlns="http://www.w3.org/2000/svg" xmlns:xlink="http://www.w3.org/1999/xlink" x="0px" y="0px"
	 viewBox="0 0 1366 768" style="enable-background:new 0 0 1366 768;" xml:space="preserve">
<style type="text/css">
	.st0{fill:#FFFFFF;stroke:#0000FF;stroke-width:0.75;stroke-miterlimit:10;}
	.st1{fill:#FFFFFF;stroke:#0000FF;stroke-width:0.7125;stroke-miterlimit:10;}
	.st2{fill:#FFFFFF;stroke:#0000FF;stroke-width:0.6769;stroke-miterlimit:10;}
	.st3{fill:#FFFFFF;stroke:#0000FF;stroke-width:0.643;stroke-miterlimit:10;}
	.st4{fill:#FFFFFF;stroke:#0000FF;stroke-width:0.6109;stroke-miterlimit:10;}
	.st5{fill:#FFFFFF;stroke:#0000FF;stroke-width:0.5803;stroke-miterlimit:10;}
	.st6{fill:#FFFFFF;stroke:#0000FF;stroke-width:0.5513;stroke-miterlimit:10;}
	.st7{fill:#FFFFFF;stroke:#0000FF;stroke-width:0.5238;stroke-miterlimit:10;}
	.st8{fill:#FFFFFF;stroke:#0000FF;stroke-width:0.4976;stroke-miterlimit:10;}
	.st9{fill:#FFFFFF;stroke:#0000FF;stroke-width:0.4727;stroke-miterlimit:10;}
	.st10{fill:#FFFFFF;stroke:#0000FF;stroke-width:0.4491;stroke-miterlimit:10;}
	.st11{fill:#FFFFFF;stroke:#0000FF;stroke-width:0.4266;stroke-miterlimit:10;}
	.st12{fill:#FFFFFF;stroke:#0000FF;stroke-width:0.4053;stroke-miterlimit:10;}
	.st13{fill:#FFFFFF;stroke:#0000FF;stroke-width:0.385;stroke-miterlimit:10;}
	.st14{fill:#FFFFFF;stroke:#0000FF;stroke-width:0.3658;stroke-miterlimit:10;}
	.st15{fill:#FFFFFF;stroke:#0000FF;stroke-width:0.3475;stroke-miterlimit:10;}
	.st16{fill:#FFFFFF;stroke:#0000FF;stroke-width:0.3301;stroke-miterlimit:10;}
	.st17{fill:#FFFFFF;stroke:#0000FF;stroke-width:0.3136;stroke-miterlimit:10;}
	.st18{fill:#FFFFFF;stroke:url(#SVGID_1_);stroke-width:1.2103;stroke-miterlimit:10;}
	
		.st19{fill:#FFFFFF;stroke:url(#SVGID_00000138559962602914180410000011370032677225168522_);stroke-width:1.2088;stroke-miterlimit:10;}
	
		.st20{fill:#FFFFFF;stroke:url(#SVGID_00000016770190238050995940000010717055452630726278_);stroke-width:1.2073;stroke-miterlimit:10;}
	
		.st21{fill:#FFFFFF;stroke:url(#SVGID_00000040563024158189291900000000439678198143807134_);stroke-width:1.2058;stroke-miterlimit:10;}
	
		.st22{fill:#FFFFFF;stroke:url(#SVGID_00000107563441507374505610000011575523315533888911_);stroke-width:1.2043;stroke-miterlimit:10;}
	
		.st23{fill:#FFFFFF;stroke:url(#SVGID_00000127017940270877293480000014391266061081983896_);stroke-width:1.2028;stroke-miterlimit:10;}
	
		.st24{fill:#FFFFFF;stroke:url(#SVGID_00000069390767681209990510000015800683746349660306_);stroke-width:1.2012;stroke-miterlimit:10;}
	
		.st25{fill:#FFFFFF;stroke:url(#SVGID_00000093164342989993420600000007280557874473198214_);stroke-width:1.1997;stroke-miterlimit:10;}
	
		.st26{fill:#FFFFFF;stroke:url(#SVGID_00000024682508101725520990000004544309761295431359_);stroke-width:1.1982;stroke-miterlimit:10;}
	
		.st27{fill:#FFFFFF;stroke:url(#SVGID_00000015320217249585907280000012375044003200125612_);stroke-width:1.1967;stroke-miterlimit:10;}
	
		.st28{fill:#FFFFFF;stroke:url(#SVGID_00000082370468993636855160000017149913719540284042_);stroke-width:1.1952;stroke-miterlimit:10;}
	
		.st29{fill:#FFFFFF;stroke:url(#SVGID_00000085218695114418221940000003702717673529402040_);stroke-width:1.1938;stroke-miterlimit:10;}
	
		.st30{fill:#FFFFFF;stroke:url(#SVGID_00000071551051668533176840000001193633755145923222_);stroke-width:1.1923;stroke-miterlimit:10;}
	
		.st31{fill:#FFFFFF;stroke:url(#SVGID_00000067199499393783494910000003027243036275423363_);stroke-width:1.1908;stroke-miterlimit:10;}
	
		.st32{fill:#FFFFFF;stroke:url(#SVGID_00000054248407302698344540000013141615877472325270_);stroke-width:1.1893;stroke-miterlimit:10;}
	
		.st33{fill:#FFFFFF;stroke:url(#SVGID_00000018225739939026269410000009772971794389972408_);stroke-width:1.1878;stroke-miterlimit:10;}
	
		.st34{fill:#FFFFFF;stroke:url(#SVGID_00000139291367829014727530000011016604130887597466_);stroke-width:1.1863;stroke-miterlimit:10;}
	
		.st35{fill:#FFFFFF;stroke:url(#SVGID_00000018930512969630413190000013042224541375576763_);stroke-width:1.1848;stroke-miterlimit:10;}
	
		.st36{fill:#FFFFFF;stroke:url(#SVGID_00000076575484716917862090000010656479573158382998_);stroke-width:1.1833;stroke-miterlimit:10;}
	
		.st37{fill:#FFFFFF;stroke:url(#SVGID_00000048500523521708038580000013825897551194165679_);stroke-width:1.1819;stroke-miterlimit:10;}
	
		.st38{fill:#FFFFFF;stroke:url(#SVGID_00000133502667017310357090000017400069702144436634_);stroke-width:1.1804;stroke-miterlimit:10;}
	
		.st39{fill:#FFFFFF;stroke:url(#SVGID_00000160871267162644582950000007058969822419148475_);stroke-width:1.1789;stroke-miterlimit:10;}
	
		.st40{fill:#FFFFFF;stroke:url(#SVGID_00000054227564678263775140000008461909168509842072_);stroke-width:1.1774;stroke-miterlimit:10;}
	
		.st41{fill:#FFFFFF;stroke:url(#SVGID_00000085253099863391465870000007946218249393017492_);stroke-width:1.176;stroke-miterlimit:10;}
	
		.st42{fill:#FFFFFF;stroke:url(#SVGID_00000010303738061497611610000004339182538730076314_);stroke-width:1.1745;stroke-miterlimit:10;}
	
		.st43{fill:#FFFFFF;stroke:url(#SVGID_00000030460122917801115050000007794929936014446976_);stroke-width:1.173;stroke-miterlimit:10;}
	
		.st44{fill:#FFFFFF;stroke:url(#SVGID_00000134944740528404669690000009886876526333924271_);stroke-width:1.1716;stroke-miterlimit:10;}
	
		.st45{fill:#FFFFFF;stroke:url(#SVGID_00000062176684160856676550000012466857266765271217_);stroke-width:1.1701;stroke-miterlimit:10;}
	
		.st46{fill:#FFFFFF;stroke:url(#SVGID_00000181066096669594644820000015974466441292315276_);stroke-width:1.1686;stroke-miterlimit:10;}
	
		.st47{fill:#FFFFFF;stroke:url(#SVGID_00000080918847073088765610000008313032277425976964_);stroke-width:1.1672;stroke-miterlimit:10;}
	
		.st48{fill:#FFFFFF;stroke:url(#SVGID_00000173151623055598455950000017805177191895758215_);stroke-width:1.1657;stroke-miterlimit:10;}
	
		.st49{fill:#FFFFFF;stroke:url(#SVGID_00000118395441424870001850000014108284034205124776_);stroke-width:1.1642;stroke-miterlimit:10;}
	
		.st50{fill:#FFFFFF;stroke:url(#SVGID_00000061436234351713069790000002740574308288628896_);stroke-width:1.1628;stroke-miterlimit:10;}
	
		.st51{fill:#FFFFFF;stroke:url(#SVGID_00000013164051553076535640000000436221761891513229_);stroke-width:1.1613;stroke-miterlimit:10;}
	
		.st52{fill:#FFFFFF;stroke:url(#SVGID_00000142877111660593033440000010807552848356833705_);stroke-width:1.1599;stroke-miterlimit:10;}
	
		.st53{fill:#FFFFFF;stroke:url(#SVGID_00000065763115678122835170000009244040595445505981_);stroke-width:1.1584;stroke-miterlimit:10;}
	
		.st54{fill:#FFFFFF;stroke:url(#SVGID_00000145047190757599679550000006938279396525459364_);stroke-width:1.157;stroke-miterlimit:10;}
	
		.st55{fill:#FFFFFF;stroke:url(#SVGID_00000183927491759040778130000005026052163512893356_);stroke-width:1.1555;stroke-miterlimit:10;}
	
		.st56{fill:#FFFFFF;stroke:url(#SVGID_00000009592228807785587530000013623001988146321085_);stroke-width:1.1541;stroke-miterlimit:10;}
	
		.st57{fill:#FFFFFF;stroke:url(#SVGID_00000025412620545122922560000017837970427403667388_);stroke-width:1.1526;stroke-miterlimit:10;}
	
		.st58{fill:#FFFFFF;stroke:url(#SVGID_00000171717348600011279020000006234705226123625871_);stroke-width:1.1512;stroke-miterlimit:10;}
</style>
<polygon class="st0" points="610.91,64.64 634.19,100.04 676.54,100.93 650.07,134.01 662.3,174.57 622.67,159.61 587.87,183.78 
	589.85,141.46 556.11,115.84 596.97,104.65 "/>
<polygon class="st1" points="611.18,67.62 633.29,101.25 673.53,102.1 648.38,133.52 660.01,172.05 622.35,157.84 589.3,180.8 
	591.18,140.6 559.12,116.26 597.94,105.62 "/>
<polygon class="st2" points="611.44,70.45 632.44,102.4 670.67,103.2 646.78,133.05 657.82,169.66 622.05,156.16 590.65,177.97 
	592.43,139.78 561.98,116.66 598.86,106.55 "/>
<polygon class="st3" points="611.68,73.14 631.64,103.49 667.95,104.25 645.25,132.61 655.75,167.39 621.76,154.56 591.93,175.29 
	593.63,139 564.7,117.04 599.73,107.44 "/>
<polygon class="st4" points="611.92,75.69 630.87,104.52 665.37,105.25 643.81,132.19 653.78,165.23 621.49,153.04 593.15,172.73 
	594.76,138.26 567.28,117.4 600.56,108.28 "/>
<polygon class="st5" points="612.14,78.12 630.15,105.51 662.92,106.2 642.43,131.79 651.9,163.18 621.23,151.6 594.31,170.31 
	595.84,137.56 569.73,117.74 601.35,109.07 "/>
<polygon class="st6" points="612.35,80.42 629.45,106.44 660.59,107.1 641.13,131.41 650.12,161.23 620.99,150.23 595.41,168 
	596.87,136.89 572.06,118.06 602.1,109.83 "/>
<polygon class="st7" points="612.54,82.61 628.8,107.33 658.38,107.96 639.89,131.05 648.43,159.38 620.75,148.93 596.46,165.81 
	597.84,136.26 574.28,118.37 602.81,110.55 "/>
<polygon class="st8" points="612.73,84.69 628.17,108.18 656.27,108.77 638.71,130.71 646.83,157.62 620.53,147.7 597.45,163.73 
	598.76,135.66 576.38,118.66 603.49,111.23 "/>
<polygon class="st9" points="612.91,86.67 627.58,108.98 654.28,109.54 637.59,130.39 645.3,155.95 620.32,146.52 598.39,161.76 
	599.64,135.08 578.38,118.94 604.13,111.88 "/>
<polygon class="st10" points="613.08,88.54 627.02,109.74 652.38,110.27 636.53,130.08 643.86,154.36 620.12,145.41 599.29,159.88 
	600.48,134.54 580.27,119.2 604.74,112.5 "/>
<polygon class="st11" points="613.25,90.33 626.48,110.46 650.58,110.97 635.52,129.78 642.48,152.85 619.93,144.35 600.14,158.1 
	601.27,134.02 582.08,119.45 605.32,113.08 "/>
<polygon class="st12" points="613.4,92.02 625.98,111.15 648.86,111.63 634.56,129.51 641.17,151.42 619.75,143.34 600.95,156.4 
	602.02,133.53 583.79,119.69 605.87,113.64 "/>
<polygon class="st13" points="613.55,93.63 625.49,111.8 647.24,112.26 633.65,129.24 639.93,150.06 619.58,142.38 601.72,154.79 
	602.74,133.07 585.42,119.92 606.39,114.17 "/>
<polygon class="st14" points="613.69,95.16 625.04,112.42 645.69,112.86 632.78,128.99 638.75,148.77 619.42,141.47 602.45,153.26 
	603.42,132.62 586.96,120.13 606.89,114.67 "/>
<polygon class="st15" points="613.82,96.61 624.6,113.01 644.22,113.43 631.96,128.75 637.63,147.54 619.26,140.61 603.14,151.81 
	604.06,132.2 588.43,120.33 607.36,115.15 "/>
<polygon class="st16" points="613.94,97.99 624.19,113.57 642.83,113.97 631.18,128.52 636.56,146.38 619.12,139.79 603.8,150.43 
	604.67,131.8 589.82,120.53 607.81,115.6 "/>
<polygon class="st17" points="614.06,99.3 623.79,114.1 641.5,114.48 630.43,128.31 635.55,145.27 618.98,139.01 604.43,149.12 
	605.26,131.42 591.15,120.71 608.23,116.03 "/>
<linearGradient id="SVGID_1_" gradientUnits="userSpaceOnUse" x1="621" y1="768.6052" x2="621" y2="156.5688">
	<stop  offset="0" style="stop-color:#FF00FF"/>
	<stop  offset="1" style="stop-color:#0000FF"/>
</linearGradient>
<polygon class="st18" points="621,158.22 741.17,463.11 861.34,768 621,768 380.66,768 500.83,463.11 "/>
<linearGradient id="SVGID_00000091007322125492208170000012062501655961092498_" gradientUnits="userSpaceOnUse" x1="621" y1="753.3599" x2="621" y2="171.9503">
	<stop  offset="0" style="stop-color:#FF00FF"/>
	<stop  offset="1" style="stop-color:#0000FF"/>
</linearGradient>
<polygon style="fill:#FFFFFF;stroke:url(#SVGID_00000091007322125492208170000012062501655961092498_);stroke-width:1.2088;stroke-miterlimit:10;" points="
	621,173.46 747.18,463.11 873.36,752.76 621,752.76 368.64,752.76 494.82,463.11 "/>
<linearGradient id="SVGID_00000000217733265235284960000010771645011522282637_" gradientUnits="userSpaceOnUse" x1="621" y1="738.8768" x2="621" y2="186.5544">
	<stop  offset="0" style="stop-color:#FF00FF"/>
	<stop  offset="1" style="stop-color:#0000FF"/>
</linearGradient>
<polygon style="fill:#FFFFFF;stroke:url(#SVGID_00000000217733265235284960000010771645011522282637_);stroke-width:1.2073;stroke-miterlimit:10;" points="
	621,187.95 753.49,463.11 885.97,738.27 621,738.27 356.03,738.27 488.51,463.11 "/>
<linearGradient id="SVGID_00000163060384668198580110000011974856700898561688_" gradientUnits="userSpaceOnUse" x1="621" y1="725.1179" x2="621" y2="200.4208">
	<stop  offset="0" style="stop-color:#FF00FF"/>
	<stop  offset="1" style="stop-color:#0000FF"/>
</linearGradient>
<polygon style="fill:#FFFFFF;stroke:url(#SVGID_00000163060384668198580110000011974856700898561688_);stroke-width:1.2058;stroke-miterlimit:10;" points="
	621,201.7 760.11,463.11 899.22,724.52 621,724.52 342.78,724.52 481.89,463.11 "/>
<linearGradient id="SVGID_00000088820819407520034330000011233842519273926833_" gradientUnits="userSpaceOnUse" x1="621" y1="712.0469" x2="621" y2="213.5867">
	<stop  offset="0" style="stop-color:#FF00FF"/>
	<stop  offset="1" style="stop-color:#0000FF"/>
</linearGradient>
<polygon style="fill:#FFFFFF;stroke:url(#SVGID_00000088820819407520034330000011233842519273926833_);stroke-width:1.2043;stroke-miterlimit:10;" points="
	621,214.77 767.07,463.11 913.13,711.44 621,711.44 328.87,711.44 474.93,463.11 "/>
<linearGradient id="SVGID_00000142134097107658443740000009019222882177398184_" gradientUnits="userSpaceOnUse" x1="621" y1="699.6293" x2="621" y2="226.0878">
	<stop  offset="0" style="stop-color:#FF00FF"/>
	<stop  offset="1" style="stop-color:#0000FF"/>
</linearGradient>
<polygon style="fill:#FFFFFF;stroke:url(#SVGID_00000142134097107658443740000009019222882177398184_);stroke-width:1.2028;stroke-miterlimit:10;" points="
	621,227.19 774.37,463.11 927.74,699.03 621,699.03 314.26,699.03 467.63,463.11 "/>
<linearGradient id="SVGID_00000138536834584754815800000005712799395092255363_" gradientUnits="userSpaceOnUse" x1="621" y1="687.8326" x2="621" y2="237.9577">
	<stop  offset="0" style="stop-color:#FF00FF"/>
	<stop  offset="1" style="stop-color:#0000FF"/>
</linearGradient>
<polygon style="fill:#FFFFFF;stroke:url(#SVGID_00000138536834584754815800000005712799395092255363_);stroke-width:1.2012;stroke-miterlimit:10;" points="
	621,238.99 782.04,463.11 943.08,687.23 621,687.23 298.92,687.23 459.96,463.11 "/>
<linearGradient id="SVGID_00000152943169442520139240000008117195056420957627_" gradientUnits="userSpaceOnUse" x1="621" y1="676.6258" x2="621" y2="249.2286">
	<stop  offset="0" style="stop-color:#FF00FF"/>
	<stop  offset="1" style="stop-color:#0000FF"/>
</linearGradient>
<polygon style="fill:#FFFFFF;stroke:url(#SVGID_00000152943169442520139240000008117195056420957627_);stroke-width:1.1997;stroke-miterlimit:10;" points="
	621,250.19 790.09,463.11 959.18,676.03 621,676.03 282.82,676.03 451.91,463.11 "/>
<linearGradient id="SVGID_00000041268872784928403690000012690002455307801763_" gradientUnits="userSpaceOnUse" x1="621" y1="665.9792" x2="621" y2="259.9308">
	<stop  offset="0" style="stop-color:#FF00FF"/>
	<stop  offset="1" style="stop-color:#0000FF"/>
</linearGradient>
<polygon style="fill:#FFFFFF;stroke:url(#SVGID_00000041268872784928403690000012690002455307801763_);stroke-width:1.1982;stroke-miterlimit:10;" points="
	621,260.84 798.55,463.11 976.09,665.38 621,665.38 265.91,665.38 443.45,463.11 "/>
<linearGradient id="SVGID_00000081635608822655988150000010290092305316445331_" gradientUnits="userSpaceOnUse" x1="621" y1="655.8649" x2="621" y2="270.0932">
	<stop  offset="0" style="stop-color:#FF00FF"/>
	<stop  offset="1" style="stop-color:#0000FF"/>
</linearGradient>
<polygon style="fill:#FFFFFF;stroke:url(#SVGID_00000081635608822655988150000010290092305316445331_);stroke-width:1.1967;stroke-miterlimit:10;" points="
	621,270.95 807.42,463.11 993.85,655.27 621,655.27 248.15,655.27 434.58,463.11 "/>
<linearGradient id="SVGID_00000063618896014824994170000013470248701311472297_" gradientUnits="userSpaceOnUse" x1="621" y1="646.2563" x2="621" y2="279.7432">
	<stop  offset="0" style="stop-color:#FF00FF"/>
	<stop  offset="1" style="stop-color:#0000FF"/>
</linearGradient>
<polygon style="fill:#FFFFFF;stroke:url(#SVGID_00000063618896014824994170000013470248701311472297_);stroke-width:1.1952;stroke-miterlimit:10;" points="
	621,280.56 816.74,463.11 1012.49,645.66 621,645.66 229.51,645.66 425.26,463.11 "/>
<linearGradient id="SVGID_00000157991033315658213530000008889604765708999586_" gradientUnits="userSpaceOnUse" x1="621" y1="637.1281" x2="621" y2="288.9069">
	<stop  offset="0" style="stop-color:#FF00FF"/>
	<stop  offset="1" style="stop-color:#0000FF"/>
</linearGradient>
<polygon style="fill:#FFFFFF;stroke:url(#SVGID_00000157991033315658213530000008889604765708999586_);stroke-width:1.1938;stroke-miterlimit:10;" points="
	621,289.69 826.53,463.11 1032.06,636.53 621,636.53 209.94,636.53 415.47,463.11 "/>
<linearGradient id="SVGID_00000020356344225884791980000018216795352231422084_" gradientUnits="userSpaceOnUse" x1="621" y1="628.4563" x2="621" y2="297.6089">
	<stop  offset="0" style="stop-color:#FF00FF"/>
	<stop  offset="1" style="stop-color:#0000FF"/>
</linearGradient>
<polygon style="fill:#FFFFFF;stroke:url(#SVGID_00000020356344225884791980000018216795352231422084_);stroke-width:1.1923;stroke-miterlimit:10;" points="
	621,298.36 836.81,463.11 1052.62,627.86 621,627.86 189.38,627.86 405.19,463.11 "/>
<linearGradient id="SVGID_00000020396684440519367640000006107890095942790809_" gradientUnits="userSpaceOnUse" x1="621" y1="620.218" x2="621" y2="305.8728">
	<stop  offset="0" style="stop-color:#FF00FF"/>
	<stop  offset="1" style="stop-color:#0000FF"/>
</linearGradient>
<polygon style="fill:#FFFFFF;stroke:url(#SVGID_00000020396684440519367640000006107890095942790809_);stroke-width:1.1908;stroke-miterlimit:10;" points="
	621,306.6 847.6,463.11 1074.2,619.62 621,619.62 167.8,619.62 394.4,463.11 "/>
<linearGradient id="SVGID_00000026121962229715711800000001580319924961918141_" gradientUnits="userSpaceOnUse" x1="621" y1="612.3916" x2="621" y2="313.7209">
	<stop  offset="0" style="stop-color:#FF00FF"/>
	<stop  offset="1" style="stop-color:#0000FF"/>
</linearGradient>
<polygon style="fill:#FFFFFF;stroke:url(#SVGID_00000026121962229715711800000001580319924961918141_);stroke-width:1.1893;stroke-miterlimit:10;" points="
	621,314.42 858.93,463.11 1096.86,611.8 621,611.8 145.14,611.8 383.07,463.11 "/>
<linearGradient id="SVGID_00000103231613734051194550000009579138181069626045_" gradientUnits="userSpaceOnUse" x1="621" y1="604.9565" x2="621" y2="321.1742">
	<stop  offset="0" style="stop-color:#FF00FF"/>
	<stop  offset="1" style="stop-color:#0000FF"/>
</linearGradient>
<polygon style="fill:#FFFFFF;stroke:url(#SVGID_00000103231613734051194550000009579138181069626045_);stroke-width:1.1878;stroke-miterlimit:10;" points="
	621,321.86 870.82,463.11 1120.65,604.36 621,604.36 121.35,604.36 371.18,463.11 "/>
<linearGradient id="SVGID_00000103966113325317489370000005892733987676825251_" gradientUnits="userSpaceOnUse" x1="621" y1="597.8931" x2="621" y2="328.2529">
	<stop  offset="0" style="stop-color:#FF00FF"/>
	<stop  offset="1" style="stop-color:#0000FF"/>
</linearGradient>
<polygon style="fill:#FFFFFF;stroke:url(#SVGID_00000103966113325317489370000005892733987676825251_);stroke-width:1.1863;stroke-miterlimit:10;" points="
	621,328.92 883.32,463.11 1145.63,597.3 621,597.3 96.37,597.3 358.68,463.11 "/>
<linearGradient id="SVGID_00000033328120511424597830000016636300857572951455_" gradientUnits="userSpaceOnUse" x1="621" y1="591.1829" x2="621" y2="334.9759">
	<stop  offset="0" style="stop-color:#FF00FF"/>
	<stop  offset="1" style="stop-color:#0000FF"/>
</linearGradient>
<polygon style="fill:#FFFFFF;stroke:url(#SVGID_00000033328120511424597830000016636300857572951455_);stroke-width:1.1848;stroke-miterlimit:10;" points="
	621,335.63 896.43,463.11 1171.86,590.59 621,590.59 70.14,590.59 345.57,463.11 "/>
<linearGradient id="SVGID_00000119800782785417904790000011259616303160299916_" gradientUnits="userSpaceOnUse" x1="621" y1="584.808" x2="621" y2="341.3612">
	<stop  offset="0" style="stop-color:#FF00FF"/>
	<stop  offset="1" style="stop-color:#0000FF"/>
</linearGradient>
<polygon style="fill:#FFFFFF;stroke:url(#SVGID_00000119800782785417904790000011259616303160299916_);stroke-width:1.1833;stroke-miterlimit:10;" points="
	621,342 910.2,463.11 1199.41,584.22 621,584.22 42.59,584.22 331.8,463.11 "/>
<linearGradient id="SVGID_00000179611263232017227360000007672990859787223992_" gradientUnits="userSpaceOnUse" x1="621" y1="578.752" x2="621" y2="347.4261">
	<stop  offset="0" style="stop-color:#FF00FF"/>
	<stop  offset="1" style="stop-color:#0000FF"/>
</linearGradient>
<polygon style="fill:#FFFFFF;stroke:url(#SVGID_00000179611263232017227360000007672990859787223992_);stroke-width:1.1819;stroke-miterlimit:10;" points="
	621,348.06 924.66,463.11 1228.33,578.16 621,578.16 13.67,578.16 317.34,463.11 "/>
<linearGradient id="SVGID_00000046338763568350822980000007100820188468088241_" gradientUnits="userSpaceOnUse" x1="621" y1="572.9987" x2="621" y2="353.1867">
	<stop  offset="0" style="stop-color:#FF00FF"/>
	<stop  offset="1" style="stop-color:#0000FF"/>
</linearGradient>
<polygon style="fill:#FFFFFF;stroke:url(#SVGID_00000046338763568350822980000007100820188468088241_);stroke-width:1.1804;stroke-miterlimit:10;" points="
	621,353.81 939.85,463.11 1258.69,572.41 621,572.41 -16.69,572.41 302.15,463.11 "/>
<linearGradient id="SVGID_00000101085440124163545330000008879081036554146191_" gradientUnits="userSpaceOnUse" x1="621" y1="567.533" x2="621" y2="358.6584">
	<stop  offset="0" style="stop-color:#FF00FF"/>
	<stop  offset="1" style="stop-color:#0000FF"/>
</linearGradient>
<polygon style="fill:#FFFFFF;stroke:url(#SVGID_00000101085440124163545330000008879081036554146191_);stroke-width:1.1789;stroke-miterlimit:10;" points="
	621,359.28 955.79,463.11 1290.58,566.94 621,566.94 -48.58,566.94 286.21,463.11 "/>
<linearGradient id="SVGID_00000040535255194737953300000008668845341530292613_" gradientUnits="userSpaceOnUse" x1="621" y1="562.3406" x2="621" y2="363.8558">
	<stop  offset="0" style="stop-color:#FF00FF"/>
	<stop  offset="1" style="stop-color:#0000FF"/>
</linearGradient>
<polygon style="fill:#FFFFFF;stroke:url(#SVGID_00000040535255194737953300000008668845341530292613_);stroke-width:1.1774;stroke-miterlimit:10;" points="
	621,364.47 972.53,463.11 1324.06,561.75 621,561.75 -82.06,561.75 269.47,463.11 "/>
<linearGradient id="SVGID_00000166663183518356839930000015731784810292528008_" gradientUnits="userSpaceOnUse" x1="621" y1="557.4077" x2="621" y2="368.7927">
	<stop  offset="0" style="stop-color:#FF00FF"/>
	<stop  offset="1" style="stop-color:#0000FF"/>
</linearGradient>
<polygon style="fill:#FFFFFF;stroke:url(#SVGID_00000166663183518356839930000015731784810292528008_);stroke-width:1.176;stroke-miterlimit:10;" points="
	621,369.4 990.1,463.11 1359.21,556.82 621,556.82 -117.21,556.82 251.9,463.11 "/>
<linearGradient id="SVGID_00000077321174317962420700000009130825867602991276_" gradientUnits="userSpaceOnUse" x1="621" y1="552.7214" x2="621" y2="373.4823">
	<stop  offset="0" style="stop-color:#FF00FF"/>
	<stop  offset="1" style="stop-color:#0000FF"/>
</linearGradient>
<polygon style="fill:#FFFFFF;stroke:url(#SVGID_00000077321174317962420700000009130825867602991276_);stroke-width:1.1745;stroke-miterlimit:10;" points="
	621,374.08 1008.56,463.11 1396.12,552.13 621,552.13 -154.12,552.13 233.44,463.11 "/>
<linearGradient id="SVGID_00000152971186749118540310000013132684914379639206_" gradientUnits="userSpaceOnUse" x1="621" y1="548.2695" x2="621" y2="377.9371">
	<stop  offset="0" style="stop-color:#FF00FF"/>
	<stop  offset="1" style="stop-color:#0000FF"/>
</linearGradient>
<polygon style="fill:#FFFFFF;stroke:url(#SVGID_00000152971186749118540310000013132684914379639206_);stroke-width:1.173;stroke-miterlimit:10;" points="
	621,378.54 1027.94,463.11 1434.88,547.68 621,547.68 -192.88,547.68 214.06,463.11 "/>
<linearGradient id="SVGID_00000101089010553908246080000003830464368731166133_" gradientUnits="userSpaceOnUse" x1="621" y1="544.0401" x2="621" y2="382.1687">
	<stop  offset="0" style="stop-color:#FF00FF"/>
	<stop  offset="1" style="stop-color:#0000FF"/>
</linearGradient>
<polygon style="fill:#FFFFFF;stroke:url(#SVGID_00000101089010553908246080000003830464368731166133_);stroke-width:1.1716;stroke-miterlimit:10;" points="
	621,382.76 1048.29,463.11 1475.57,543.45 621,543.45 -233.57,543.45 193.71,463.11 "/>
<linearGradient id="SVGID_00000130618973817810716080000014254472763717779086_" gradientUnits="userSpaceOnUse" x1="621" y1="540.0221" x2="621" y2="386.1886">
	<stop  offset="0" style="stop-color:#FF00FF"/>
	<stop  offset="1" style="stop-color:#0000FF"/>
</linearGradient>
<polygon style="fill:#FFFFFF;stroke:url(#SVGID_00000130618973817810716080000014254472763717779086_);stroke-width:1.1701;stroke-miterlimit:10;" points="
	621,386.78 1069.65,463.11 1518.3,539.44 621,539.44 -276.3,539.44 172.35,463.11 "/>
<linearGradient id="SVGID_00000138551025304535189260000003833751139362640553_" gradientUnits="userSpaceOnUse" x1="621" y1="536.205" x2="621" y2="390.0072">
	<stop  offset="0" style="stop-color:#FF00FF"/>
	<stop  offset="1" style="stop-color:#0000FF"/>
</linearGradient>
<polygon style="fill:#FFFFFF;stroke:url(#SVGID_00000138551025304535189260000003833751139362640553_);stroke-width:1.1686;stroke-miterlimit:10;" points="
	621,390.6 1092.08,463.11 1563.16,535.62 621,535.62 -321.16,535.62 149.92,463.11 "/>
<linearGradient id="SVGID_00000089559890118384359760000014397616856644281223_" gradientUnits="userSpaceOnUse" x1="621" y1="532.5787" x2="621" y2="393.6347">
	<stop  offset="0" style="stop-color:#FF00FF"/>
	<stop  offset="1" style="stop-color:#0000FF"/>
</linearGradient>
<polygon style="fill:#FFFFFF;stroke:url(#SVGID_00000089559890118384359760000014397616856644281223_);stroke-width:1.1672;stroke-miterlimit:10;" points="
	621,394.22 1115.64,463.11 1610.27,532 621,532 -368.27,532 126.36,463.11 "/>
<linearGradient id="SVGID_00000037683401284909856100000017469101124359205787_" gradientUnits="userSpaceOnUse" x1="621" y1="529.1337" x2="621" y2="397.0808">
	<stop  offset="0" style="stop-color:#FF00FF"/>
	<stop  offset="1" style="stop-color:#0000FF"/>
</linearGradient>
<polygon style="fill:#FFFFFF;stroke:url(#SVGID_00000037683401284909856100000017469101124359205787_);stroke-width:1.1657;stroke-miterlimit:10;" points="
	621,397.67 1140.37,463.11 1659.74,528.55 621,528.55 -417.74,528.55 101.63,463.11 "/>
<linearGradient id="SVGID_00000124131944274117530970000011931872478637277337_" gradientUnits="userSpaceOnUse" x1="621" y1="525.8609" x2="621" y2="400.3544">
	<stop  offset="0" style="stop-color:#FF00FF"/>
	<stop  offset="1" style="stop-color:#0000FF"/>
</linearGradient>
<polygon style="fill:#FFFFFF;stroke:url(#SVGID_00000124131944274117530970000011931872478637277337_);stroke-width:1.1642;stroke-miterlimit:10;" points="
	621,400.94 1166.34,463.11 1711.67,525.28 621,525.28 -469.67,525.28 75.66,463.11 "/>
<linearGradient id="SVGID_00000139285224764552870320000015297279426035579816_" gradientUnits="userSpaceOnUse" x1="621" y1="522.7517" x2="621" y2="403.4643">
	<stop  offset="0" style="stop-color:#FF00FF"/>
	<stop  offset="1" style="stop-color:#0000FF"/>
</linearGradient>
<polygon style="fill:#FFFFFF;stroke:url(#SVGID_00000139285224764552870320000015297279426035579816_);stroke-width:1.1628;stroke-miterlimit:10;" points="
	621,404.05 1193.6,463.11 1766.21,522.17 621,522.17 -524.21,522.17 48.4,463.11 "/>
<linearGradient id="SVGID_00000150060814325532053550000017028292244429405084_" gradientUnits="userSpaceOnUse" x1="621" y1="519.798" x2="621" y2="406.4186">
	<stop  offset="0" style="stop-color:#FF00FF"/>
	<stop  offset="1" style="stop-color:#0000FF"/>
</linearGradient>
<polygon style="fill:#FFFFFF;stroke:url(#SVGID_00000150060814325532053550000017028292244429405084_);stroke-width:1.1613;stroke-miterlimit:10;" points="
	621,407 1222.23,463.11 1823.47,519.22 621,519.22 -581.47,519.22 19.77,463.11 "/>
<linearGradient id="SVGID_00000018195944378896928300000012962636682670582657_" gradientUnits="userSpaceOnUse" x1="621" y1="516.9918" x2="621" y2="409.2252">
	<stop  offset="0" style="stop-color:#FF00FF"/>
	<stop  offset="1" style="stop-color:#0000FF"/>
</linearGradient>
<polygon style="fill:#FFFFFF;stroke:url(#SVGID_00000018195944378896928300000012962636682670582657_);stroke-width:1.1599;stroke-miterlimit:10;" points="
	621,409.81 1252.29,463.11 1883.59,516.41 621,516.41 -641.59,516.41 -10.29,463.11 "/>
<linearGradient id="SVGID_00000016768349094974289910000000274414494324969387_" gradientUnits="userSpaceOnUse" x1="621" y1="514.326" x2="621" y2="411.8914">
	<stop  offset="0" style="stop-color:#FF00FF"/>
	<stop  offset="1" style="stop-color:#0000FF"/>
</linearGradient>
<polygon style="fill:#FFFFFF;stroke:url(#SVGID_00000016768349094974289910000000274414494324969387_);stroke-width:1.1584;stroke-miterlimit:10;" points="
	621,412.47 1283.86,463.11 1946.72,513.75 621,513.75 -704.72,513.75 -41.86,463.11 "/>
<linearGradient id="SVGID_00000180354680263656850710000015641664221869603972_" gradientUnits="userSpaceOnUse" x1="621" y1="511.7934" x2="621" y2="414.4243">
	<stop  offset="0" style="stop-color:#FF00FF"/>
	<stop  offset="1" style="stop-color:#0000FF"/>
</linearGradient>
<polygon style="fill:#FFFFFF;stroke:url(#SVGID_00000180354680263656850710000015641664221869603972_);stroke-width:1.157;stroke-miterlimit:10;" points="
	621,415 1317,463.11 2013,511.21 621,511.21 -771,511.21 -75,463.11 "/>
<linearGradient id="SVGID_00000134941846499563550780000008437902713806207632_" gradientUnits="userSpaceOnUse" x1="621" y1="509.3874" x2="621" y2="416.8305">
	<stop  offset="0" style="stop-color:#FF00FF"/>
	<stop  offset="1" style="stop-color:#0000FF"/>
</linearGradient>
<polygon style="fill:#FFFFFF;stroke:url(#SVGID_00000134941846499563550780000008437902713806207632_);stroke-width:1.1555;stroke-miterlimit:10;" points="
	621,417.41 1351.8,463.11 2082.6,508.81 621,508.81 -840.6,508.81 -109.8,463.11 "/>
<linearGradient id="SVGID_00000153692586564967267830000000450830324792460463_" gradientUnits="userSpaceOnUse" x1="621" y1="507.1017" x2="621" y2="419.1165">
	<stop  offset="0" style="stop-color:#FF00FF"/>
	<stop  offset="1" style="stop-color:#0000FF"/>
</linearGradient>
<polygon style="fill:#FFFFFF;stroke:url(#SVGID_00000153692586564967267830000000450830324792460463_);stroke-width:1.1541;stroke-miterlimit:10;" points="
	621,419.69 1388.34,463.11 2155.69,506.52 621,506.52 -913.68,506.52 -146.34,463.11 "/>
<linearGradient id="SVGID_00000146480873191584648540000008925460790467894200_" gradientUnits="userSpaceOnUse" x1="621" y1="504.9302" x2="621" y2="421.2881">
	<stop  offset="0" style="stop-color:#FF00FF"/>
	<stop  offset="1" style="stop-color:#0000FF"/>
</linearGradient>
<polygon style="fill:#FFFFFF;stroke:url(#SVGID_00000146480873191584648540000008925460790467894200_);stroke-width:1.1526;stroke-miterlimit:10;" points="
	621,421.87 1426.71,463.11 2232.42,504.35 621,504.35 -990.42,504.35 -184.71,463.11 "/>
<linearGradient id="SVGID_00000074407398456556305500000001783650536596374402_" gradientUnits="userSpaceOnUse" x1="621" y1="502.8673" x2="621" y2="423.3512">
	<stop  offset="0" style="stop-color:#FF00FF"/>
	<stop  offset="1" style="stop-color:#0000FF"/>
</linearGradient>
<polygon style="fill:#FFFFFF;stroke:url(#SVGID_00000074407398456556305500000001783650536596374402_);stroke-width:1.1512;stroke-miterlimit:10;" points="
	621,423.93 1467,463.11 2312.99,502.29 621,502.29 -1070.99,502.29 -225,463.11 "/>
</svg>
