<?xml version="1.0" encoding="utf-8"?>
<!-- Generator: Adobe Illustrator 28.0.0, SVG Export Plug-In . SVG Version: 6.00 Build 0)  -->
<svg version="1.1" id="图层_1" xmlns="http://www.w3.org/2000/svg" xmlns:xlink="http://www.w3.org/1999/xlink" x="0px" y="0px"
	 viewBox="0 0 1366 768" style="enable-background:new 0 0 1366 768;" xml:space="preserve">
<style type="text/css">
	.st0{fill:#1B1464;}
	.st1{fill:url(#SVGID_1_);}
	.st2{fill:url(#SVGID_00000152247771761118748030000000123024345891379621_);}
	.st3{fill:url(#SVGID_00000100354662884548403890000018229375980443096493_);}
	.st4{fill:url(#SVGID_00000155105400230645746200000006680687343199134634_);}
	.st5{fill:url(#SVGID_00000031209599849406089930000000011683490204028838_);}
	.st6{fill:url(#SVGID_00000049922599316250419490000014780362242942894014_);}
	.st7{fill:url(#SVGID_00000073703465361088882470000000092791439164991157_);}
	.st8{fill:url(#SVGID_00000140725639685228176000000008023476546271594679_);}
	.st9{fill:url(#SVGID_00000101092972697697910430000000835110454092592558_);}
	.st10{fill:url(#SVGID_00000118383421472623138800000008405665724637246630_);}
	.st11{fill:url(#SVGID_00000152986230253752021390000010835161083643885218_);}
	.st12{fill:url(#SVGID_00000095337791098579549560000015419057361234820534_);}
	.st13{fill:url(#SVGID_00000178905217534731554770000006851750338224703142_);}
	.st14{fill:url(#SVGID_00000045616988718274635240000004534292368948778889_);}
	.st15{fill:url(#SVGID_00000029736762889348150360000006900112137214886834_);}
	.st16{fill:url(#SVGID_00000130630138780598816670000002451573128700959109_);}
	.st17{fill:url(#SVGID_00000178927997537945806650000001523813412480806573_);}
	.st18{fill:url(#SVGID_00000047748133004493533640000000073392219382231975_);}
	.st19{fill:url(#SVGID_00000024698662794624395830000014004471629863953029_);}
</style>
<rect class="st0" width="1366" height="768"/>
<g>
	<g>
		
			<linearGradient id="SVGID_1_" gradientUnits="userSpaceOnUse" x1="124.905" y1="29.9597" x2="784.5432" y2="29.9597" gradientTransform="matrix(0.1786 -0.5497 0.5497 0.1786 585.6259 628.8665)">
			<stop  offset="0" style="stop-color:#FFFFFF"/>
			<stop  offset="0.4606" style="stop-color:#005A96"/>
			<stop  offset="1" style="stop-color:#DF00E4"/>
		</linearGradient>
		<path class="st1" d="M498.8,386.8l1.41,0.46l36.72-113.02c3.81-11.72,10.66-22.27,19.82-30.52c9.16-8.25,20.37-13.96,32.42-16.52
			l116.24-24.71c12.05-2.56,24.62-1.9,36.34,1.9c11.72,3.81,22.27,10.66,30.52,19.82l79.52,88.31c8.25,9.16,13.96,20.37,16.52,32.42
			c2.56,12.05,1.9,24.62-1.9,36.34l-36.72,113.02c-3.81,11.72-10.66,22.27-19.82,30.52c-9.16,8.25-20.37,13.96-32.42,16.52
			L661.2,566.05c-12.05,2.56-24.62,1.9-36.34-1.9c-11.72-3.81-22.27-10.66-30.52-19.82l-79.52-88.31
			c-8.25-9.16-13.96-20.37-16.52-32.42c-2.56-12.05-1.9-24.62,1.9-36.34L498.8,386.8 M498.8,386.8
			c-7.92,24.39-2.24,51.16,14.92,70.21l79.52,88.31c17.16,19.06,43.18,27.51,68.27,22.18l116.24-24.71
			c25.09-5.33,45.42-23.64,53.34-48.03l36.72-113.02c7.92-24.39,2.24-51.16-14.92-70.21l-79.52-88.31
			c-17.16-19.06-43.18-27.51-68.27-22.18l-116.24,24.71c-25.09,5.33-45.42,23.64-53.34,48.03L498.8,386.8L498.8,386.8z"/>
	</g>
	<g>
		
			<linearGradient id="SVGID_00000037673196656046160590000006799707111049989273_" gradientUnits="userSpaceOnUse" x1="126.1214" y1="61.935" x2="785.7596" y2="61.935" gradientTransform="matrix(0.2232 -0.5524 0.5524 0.2232 547.3245 622.3276)">
			<stop  offset="0" style="stop-color:#FFFFFF"/>
			<stop  offset="0.4606" style="stop-color:#005A96"/>
			<stop  offset="1" style="stop-color:#DF00E4"/>
		</linearGradient>
		<path style="fill:url(#SVGID_00000037673196656046160590000006799707111049989273_);" d="M493.37,373.6l1.42,0.57l45.89-113.59
			c4.76-11.78,12.57-22.14,22.58-29.96c10.01-7.82,21.95-12.89,34.53-14.66l121.32-17.05c12.58-1.77,25.46-0.19,37.23,4.57
			c11.78,4.76,22.14,12.57,29.96,22.58l75.43,96.54c7.82,10.01,12.89,21.95,14.66,34.53c1.77,12.58,0.19,25.46-4.57,37.23
			l-45.89,113.59c-4.76,11.78-12.57,22.14-22.58,29.96c-10.01,7.82-21.95,12.89-34.53,14.66L647.5,569.63
			c-12.58,1.77-25.46,0.19-37.23-4.57c-11.78-4.76-22.14-12.57-29.96-22.58l-75.43-96.54c-7.82-10.01-12.89-21.95-14.66-34.53
			c-1.77-12.58-0.19-25.46,4.57-37.23L493.37,373.6 M493.37,373.6c-9.9,24.51-5.98,52.45,10.3,73.28l75.43,96.54
			c16.28,20.83,42.43,31.4,68.61,27.72l121.32-17.05c26.18-3.68,48.41-21.05,58.31-45.56l45.89-113.59
			c9.9-24.51,5.98-52.45-10.3-73.28l-75.43-96.54c-16.28-20.83-42.43-31.4-68.61-27.72l-121.32,17.05
			c-26.18,3.68-48.41,21.05-58.31,45.56L493.37,373.6L493.37,373.6z"/>
	</g>
	<g>
		
			<linearGradient id="SVGID_00000006706172004673522220000009819302710140629391_" gradientUnits="userSpaceOnUse" x1="129.462" y1="92.7932" x2="789.1002" y2="92.7932" gradientTransform="matrix(0.2693 -0.5521 0.5521 0.2693 508.4048 612.8485)">
			<stop  offset="0" style="stop-color:#FFFFFF"/>
			<stop  offset="0.4606" style="stop-color:#005A96"/>
			<stop  offset="1" style="stop-color:#DF00E4"/>
		</linearGradient>
		<path style="fill:url(#SVGID_00000006706172004673522220000009819302710140629391_);" d="M488.74,359.64l1.42,0.69l55.37-113.52
			c5.74-11.77,14.51-21.86,25.37-29.19c10.86-7.32,23.5-11.68,36.57-12.59l125.99-8.81c13.06-0.91,26.19,1.64,37.96,7.38
			c11.77,5.74,21.86,14.51,29.19,25.37l70.63,104.71c7.32,10.86,11.68,23.5,12.59,36.57c0.91,13.06-1.64,26.19-7.38,37.96
			l-55.37,113.52c-5.74,11.77-14.51,21.86-25.37,29.19c-10.86,7.32-23.5,11.68-36.57,12.59l-125.99,8.81
			c-13.06,0.91-26.19-1.64-37.96-7.38c-11.77-5.74-21.86-14.51-29.19-25.37l-70.63-104.71c-7.32-10.86-11.68-23.5-12.59-36.57
			c-0.91-13.06,1.64-26.19,7.38-37.96L488.74,359.64 M488.74,359.64c-11.95,24.5-9.92,53.51,5.32,76.11l70.63,104.71
			c15.24,22.6,41.38,35.35,68.57,33.44l125.99-8.81c27.19-1.9,51.3-18.16,63.25-42.66l55.37-113.52
			c11.95-24.5,9.92-53.51-5.32-76.11l-70.63-104.71c-15.24-22.6-41.38-35.35-68.57-33.44l-125.99,8.81
			c-27.19,1.9-51.3,18.16-63.25,42.66L488.74,359.64L488.74,359.64z"/>
	</g>
	<g>
		
			<linearGradient id="SVGID_00000078757886514429262390000007555544010410673293_" gradientUnits="userSpaceOnUse" x1="134.7825" y1="122.4267" x2="794.4207" y2="122.4267" gradientTransform="matrix(0.3166 -0.5484 0.5484 0.3166 469.0609 600.3011)">
			<stop  offset="0" style="stop-color:#FFFFFF"/>
			<stop  offset="0.4606" style="stop-color:#005A96"/>
			<stop  offset="1" style="stop-color:#DF00E4"/>
		</linearGradient>
		<path style="fill:url(#SVGID_00000078757886514429262390000007555544010410673293_);" d="M484.98,344.95l1.41,0.81L551.5,233
			c6.75-11.69,16.5-21.44,28.19-28.19c11.69-6.75,25.01-10.32,38.51-10.32l130.21,0c13.5,0,26.82,3.57,38.51,10.32
			s21.44,16.5,28.19,28.19l65.1,112.76c6.75,11.69,10.32,25.01,10.32,38.51c0,13.5-3.57,26.82-10.32,38.51l-65.1,112.76
			c-6.75,11.69-16.5,21.44-28.19,28.19s-25.01,10.32-38.51,10.32H618.2c-13.5,0-26.82-3.57-38.51-10.32
			c-11.69-6.75-21.44-16.5-28.19-28.19l-65.1-112.76c-6.75-11.69-10.32-25.01-10.32-38.51c0-13.5,3.57-26.82,10.32-38.51
			L484.98,344.95 M484.98,344.95c-14.05,24.33-14.05,54.32,0,78.65l65.1,112.76c14.05,24.33,40.01,39.33,68.11,39.33h130.21
			c28.1,0,54.06-14.99,68.11-39.33l65.1-112.76c14.05-24.33,14.05-54.32,0-78.65l-65.1-112.76c-14.05-24.33-40.01-39.33-68.11-39.33
			l-130.21,0c-28.1,0-54.06,14.99-68.11,39.33L484.98,344.95L484.98,344.95z"/>
	</g>
	<g>
		
			<linearGradient id="SVGID_00000104705635782643827980000012104082304767838881_" gradientUnits="userSpaceOnUse" x1="141.936" y1="150.7412" x2="801.5742" y2="150.7412" gradientTransform="matrix(0.3651 -0.5412 0.5412 0.3651 429.5013 584.5679)">
			<stop  offset="0" style="stop-color:#FFFFFF"/>
			<stop  offset="0.4606" style="stop-color:#005A96"/>
			<stop  offset="1" style="stop-color:#DF00E4"/>
		</linearGradient>
		<path style="fill:url(#SVGID_00000104705635782643827980000012104082304767838881_);" d="M482.18,329.57l1.39,0.94l75.06-111.29
			c7.78-11.54,18.51-20.86,31.02-26.97c12.51-6.1,26.46-8.81,40.35-7.84l133.91,9.36c13.89,0.97,27.32,5.6,38.86,13.38
			c11.54,7.78,20.86,18.51,26.97,31.02l58.84,120.65c6.1,12.51,8.81,26.46,7.84,40.35c-0.97,13.89-5.6,27.32-13.38,38.86
			l-75.06,111.29c-7.78,11.54-18.51,20.86-31.02,26.97c-12.51,6.1-26.46,8.81-40.35,7.84l-133.91-9.36
			c-13.89-0.97-27.32-5.6-38.86-13.38c-11.54-7.78-20.86-18.51-26.97-31.02l-58.84-120.65c-6.1-12.51-8.81-26.46-7.84-40.35
			c0.97-13.89,5.6-27.32,13.38-38.86L482.18,329.57 M482.18,329.57c-16.2,24.02-18.36,54.85-5.66,80.89l58.84,120.65
			c12.7,26.04,38.32,43.32,67.22,45.34l133.91,9.36c28.9,2.02,56.68-11.53,72.88-35.54l75.06-111.29
			c16.2-24.02,18.35-54.85,5.66-80.89l-58.84-120.65c-12.7-26.04-38.32-43.32-67.22-45.34l-133.91-9.36
			c-28.9-2.02-56.68,11.53-72.88,35.54L482.18,329.57L482.18,329.57z"/>
	</g>
	<g>
		
			<linearGradient id="SVGID_00000067195484473442553020000004863571041016739727_" gradientUnits="userSpaceOnUse" x1="150.7738" y1="177.6553" x2="810.4119" y2="177.6553" gradientTransform="matrix(0.4144 -0.5304 0.5304 0.4144 389.949 565.5426)">
			<stop  offset="0" style="stop-color:#FFFFFF"/>
			<stop  offset="0.4606" style="stop-color:#005A96"/>
			<stop  offset="1" style="stop-color:#DF00E4"/>
		</linearGradient>
		<path style="fill:url(#SVGID_00000067195484473442553020000004863571041016739727_);" d="M480.4,313.55l1.36,1.07l85.2-109.05
			c8.83-11.31,20.54-20.13,33.84-25.5c13.3-5.38,27.85-7.16,42.06-5.16l137.04,19.26c14.21,2,27.7,7.72,39.01,16.56
			c11.31,8.83,20.13,20.54,25.5,33.84l51.84,128.31c5.38,13.3,7.16,27.85,5.16,42.06c-2,14.21-7.72,27.7-16.56,39.01l-85.2,109.05
			c-8.83,11.31-20.54,20.13-33.84,25.5c-13.3,5.38-27.85,7.16-42.06,5.16l-137.04-19.26c-14.21-2-27.7-7.72-39.01-16.56
			c-11.31-8.83-20.13-20.54-25.5-33.84l-51.84-128.31c-5.38-13.3-7.16-27.85-5.16-42.06c2-14.21,7.72-27.7,16.56-39.01L480.4,313.55
			 M480.4,313.55c-18.39,23.53-22.82,55.09-11.63,82.78l51.84,128.31c11.19,27.69,36.3,47.31,65.87,51.46l137.04,19.26
			c29.57,4.16,59.12-7.78,77.5-31.31L886.22,455c18.39-23.53,22.82-55.09,11.63-82.78l-51.84-128.31
			c-11.19-27.69-36.3-47.31-65.87-51.46L643.1,173.18c-29.57-4.16-59.12,7.78-77.5,31.31L480.4,313.55L480.4,313.55z"/>
	</g>
	<g>
		
			<linearGradient id="SVGID_00000054253918689485022520000000956281021900845240_" gradientUnits="userSpaceOnUse" x1="161.1466" y1="203.1004" x2="820.7849" y2="203.1004" gradientTransform="matrix(0.4643 -0.5156 0.5156 0.4643 350.641 543.1323)">
			<stop  offset="0" style="stop-color:#FFFFFF"/>
			<stop  offset="0.4606" style="stop-color:#005A96"/>
			<stop  offset="1" style="stop-color:#DF00E4"/>
		</linearGradient>
		<path style="fill:url(#SVGID_00000054253918689485022520000000956281021900845240_);" d="M479.72,296.95l1.33,1.19l95.46-106.02
			c9.9-10.99,22.57-19.22,36.64-23.79c14.07-4.57,29.15-5.36,43.62-2.29l139.55,29.66c14.47,3.08,27.93,9.93,38.92,19.83
			s19.22,22.57,23.79,36.64l44.09,135.68c4.57,14.07,5.36,29.15,2.29,43.62c-3.08,14.47-9.93,27.93-19.83,38.92l-95.46,106.02
			c-9.9,10.99-22.57,19.22-36.64,23.79c-14.07,4.57-29.15,5.36-43.62,2.29L570.3,572.84c-14.47-3.08-27.93-9.93-38.92-19.83
			c-10.99-9.9-19.22-22.57-23.79-36.64L463.5,380.69c-4.57-14.07-5.36-29.15-2.29-43.62c3.08-14.47,9.93-27.93,19.83-38.92
			L479.72,296.95 M479.72,296.95c-20.6,22.88-27.43,55.01-17.92,84.29l44.09,135.68c9.51,29.28,33.93,51.26,64.04,57.66
			l139.55,29.66c30.12,6.4,61.36-3.75,81.96-26.63L886.9,471.6c20.6-22.88,27.43-55.01,17.92-84.29l-44.09-135.68
			c-9.51-29.28-33.93-51.26-64.04-57.66l-139.55-29.66c-30.12-6.4-61.36,3.75-81.96,26.63L479.72,296.95L479.72,296.95z"/>
	</g>
	<g>
		
			<linearGradient id="SVGID_00000179631684877162909090000012729303678013244346_" gradientUnits="userSpaceOnUse" x1="172.9055" y1="227.0201" x2="832.5437" y2="227.0201" gradientTransform="matrix(0.5145 -0.4969 0.4969 0.5145 311.8275 517.2585)">
			<stop  offset="0" style="stop-color:#FFFFFF"/>
			<stop  offset="0.4606" style="stop-color:#005A96"/>
			<stop  offset="1" style="stop-color:#DF00E4"/>
		</linearGradient>
		<path style="fill:url(#SVGID_00000179631684877162909090000012729303678013244346_);" d="M480.21,279.82l1.28,1.32l105.8-102.17
			c10.97-10.59,24.59-18.14,39.39-21.83c14.8-3.69,30.37-3.42,45.03,0.79l141.38,40.54c14.66,4.2,28.01,12.22,38.6,23.2
			c10.59,10.97,18.14,24.59,21.83,39.39l35.58,142.71c3.69,14.8,3.42,30.37-0.79,45.03c-4.2,14.66-12.22,28.01-23.2,38.6
			l-105.8,102.17c-10.97,10.59-24.59,18.14-39.39,21.83c-14.8,3.69-30.37,3.42-45.03-0.79l-141.38-40.54
			c-14.66-4.2-28.01-12.22-38.6-23.2c-10.59-10.97-18.14-24.59-21.83-39.39l-35.58-142.71c-3.69-14.8-3.42-30.37,0.79-45.03
			c4.2-14.66,12.22-28.01,23.2-38.6L480.21,279.82 M480.21,279.82c-22.83,22.05-32.17,54.6-24.49,85.4l35.58,142.71
			c7.68,30.8,31.2,55.16,61.71,63.91l141.38,40.54c30.51,8.75,63.37,0.56,86.2-21.49l105.8-102.17
			c22.83-22.05,32.17-54.6,24.49-85.4l-35.58-142.71c-7.68-30.8-31.2-55.16-61.71-63.91l-141.38-40.54
			c-30.51-8.75-63.37-0.56-86.2,21.49L480.21,279.82L480.21,279.82z"/>
	</g>
	<g>
		
			<linearGradient id="SVGID_00000143581860384982192790000013198807514495400102_" gradientUnits="userSpaceOnUse" x1="185.9024" y1="249.3701" x2="845.5406" y2="249.3701" gradientTransform="matrix(0.5649 -0.474 0.474 0.5649 273.7718 487.8582)">
			<stop  offset="0" style="stop-color:#FFFFFF"/>
			<stop  offset="0.4606" style="stop-color:#005A96"/>
			<stop  offset="1" style="stop-color:#DF00E4"/>
		</linearGradient>
		<path style="fill:url(#SVGID_00000143581860384982192790000013198807514495400102_);" d="M481.95,262.25l1.22,1.45l116.15-97.46
			c12.04-10.11,26.59-16.89,42.08-19.62c15.48-2.73,31.48-1.33,46.25,4.05l142.48,51.86c14.77,5.38,27.93,14.59,38.03,26.63
			c10.11,12.04,16.89,26.59,19.62,42.08l26.33,149.32c2.73,15.48,1.33,31.48-4.05,46.25c-5.38,14.77-14.59,27.93-26.63,38.03
			L767.29,602.3c-12.04,10.11-26.59,16.89-42.08,19.62s-31.48,1.33-46.25-4.05l-142.48-51.86c-14.77-5.38-27.93-14.59-38.03-26.63
			c-10.11-12.04-16.89-26.59-19.62-42.08l-26.33-149.32c-2.73-15.48-1.33-31.48,4.05-46.25c5.38-14.77,14.59-27.93,26.63-38.03
			L481.95,262.25 M481.95,262.25c-25.07,21.03-37.01,53.84-31.33,86.07l26.33,149.32c5.68,32.22,28.12,58.97,58.87,70.16
			l142.48,51.86c30.75,11.19,65.13,5.13,90.2-15.9l116.15-97.46c25.07-21.03,37.01-53.84,31.33-86.07L889.66,270.9
			c-5.68-32.22-28.12-58.97-58.87-70.16L688.3,148.88c-30.75-11.19-65.13-5.13-90.2,15.9L481.95,262.25L481.95,262.25z"/>
	</g>
	<g>
		
			<linearGradient id="SVGID_00000039838733132170743640000002141238556960497329_" gradientUnits="userSpaceOnUse" x1="199.9909" y1="270.1174" x2="859.6291" y2="270.1174" gradientTransform="matrix(0.615 -0.4469 0.4469 0.615 236.749 454.8857)">
			<stop  offset="0" style="stop-color:#FFFFFF"/>
			<stop  offset="0.4606" style="stop-color:#005A96"/>
			<stop  offset="1" style="stop-color:#DF00E4"/>
		</linearGradient>
		<path style="fill:url(#SVGID_00000039838733132170743640000002141238556960497329_);" d="M485,244.3l1.15,1.58L612.62,154
			c13.11-9.53,28.57-15.46,44.69-17.15c16.12-1.69,32.47,0.89,47.28,7.49l142.8,63.58c14.81,6.59,27.67,17.01,37.2,30.12
			c9.53,13.11,15.46,28.57,17.15,44.69l16.34,155.46c1.69,16.12-0.89,32.47-7.49,47.28c-6.59,14.81-17.01,27.67-30.12,37.2
			L754,614.54c-13.11,9.53-28.57,15.46-44.69,17.15c-16.12,1.69-32.47-0.89-47.28-7.49l-142.8-63.58
			c-14.81-6.59-27.67-17.01-37.2-30.12s-15.46-28.57-17.15-44.69l-16.34-155.46c-1.69-16.12,0.89-32.47,7.49-47.28
			c6.59-14.81,17.01-27.67,30.12-37.2L485,244.3 M485,244.3c-27.29,19.83-41.93,52.71-38.4,86.26l16.34,155.46
			c3.53,33.55,24.68,62.67,55.5,76.39l142.8,63.58c30.82,13.72,66.61,9.96,93.9-9.87l126.46-91.88
			c27.29-19.83,41.93-52.71,38.4-86.26l-16.34-155.46c-3.53-33.55-24.68-62.67-55.5-76.39l-142.8-63.58
			c-30.82-13.72-66.61-9.96-93.9,9.87L485,244.3L485,244.3z"/>
	</g>
	<g>
		
			<linearGradient id="SVGID_00000024699077576216937390000007980783505058178237_" gradientUnits="userSpaceOnUse" x1="215.0273" y1="289.2399" x2="874.6655" y2="289.2399" gradientTransform="matrix(0.6647 -0.4153 0.4153 0.6647 201.0453 418.3137)">
			<stop  offset="0" style="stop-color:#FFFFFF"/>
			<stop  offset="0.4606" style="stop-color:#005A96"/>
			<stop  offset="1" style="stop-color:#DF00E4"/>
		</linearGradient>
		<path style="fill:url(#SVGID_00000024699077576216937390000007980783505058178237_);" d="M489.43,226.06l1.07,1.71l136.66-85.4
			c14.17-8.86,30.49-13.84,47.19-14.43c16.7-0.58,33.33,3.26,48.08,11.1l142.29,75.66c14.75,7.84,27.23,19.48,36.09,33.65
			c8.86,14.17,13.84,30.49,14.43,47.19l5.62,161.05c0.58,16.7-3.26,33.33-11.1,48.08c-7.84,14.75-19.48,27.23-33.65,36.09
			l-136.66,85.4c-14.17,8.86-30.49,13.84-47.19,14.43c-16.7,0.58-33.33-3.26-48.08-11.1l-142.29-75.66
			c-14.75-7.84-27.23-19.48-36.09-33.65c-8.86-14.17-13.84-30.49-14.43-47.19l-5.62-161.05c-0.58-16.7,3.26-33.33,11.1-48.08
			c7.85-14.75,19.48-27.23,33.65-36.09L489.43,226.06 M489.43,226.06c-29.49,18.43-46.91,51.19-45.7,85.95l5.62,161.05
			c1.21,34.76,20.88,66.22,51.58,82.55l142.29,75.66c30.71,16.33,67.79,15.03,97.28-3.4l136.66-85.4
			c29.49-18.43,46.91-51.19,45.7-85.95l-5.62-161.05c-1.21-34.76-20.88-66.22-51.58-82.55l-142.29-75.66
			c-30.71-16.33-67.79-15.03-97.28,3.4L489.43,226.06L489.43,226.06z"/>
	</g>
	<g>
		
			<linearGradient id="SVGID_00000000912266016033476050000002982081475986308788_" gradientUnits="userSpaceOnUse" x1="230.871" y1="306.7262" x2="890.5092" y2="306.7262" gradientTransform="matrix(0.7134 -0.3793 0.3793 0.7134 166.9571 378.1349)">
			<stop  offset="0" style="stop-color:#FFFFFF"/>
			<stop  offset="0.4606" style="stop-color:#005A96"/>
			<stop  offset="1" style="stop-color:#DF00E4"/>
		</linearGradient>
		<path style="fill:url(#SVGID_00000000912266016033476050000002982081475986308788_);" d="M495.3,207.63l0.98,1.83l146.69-78
			c15.21-8.09,32.35-12.04,49.57-11.44c17.22,0.6,34.04,5.74,48.65,14.87l140.89,88.04c14.61,9.13,26.61,21.99,34.69,37.2
			c8.09,15.21,12.04,32.35,11.44,49.57l-5.8,166.03c-0.6,17.22-5.74,34.04-14.87,48.65c-9.13,14.61-21.99,26.61-37.2,34.69
			l-146.69,78c-15.21,8.09-32.35,12.04-49.57,11.44c-17.22-0.6-34.04-5.74-48.65-14.87l-140.89-88.04
			c-14.61-9.13-26.61-21.99-34.69-37.2c-8.09-15.21-12.04-32.35-11.44-49.57l5.8-166.03c0.6-17.22,5.74-34.04,14.87-48.65
			c9.13-14.61,21.99-26.61,37.2-34.69L495.3,207.63 M495.3,207.63c-31.66,16.83-51.93,49.27-53.18,85.1l-5.8,166.03
			c-1.25,35.83,16.71,69.61,47.11,88.61l140.89,88.04c30.4,19,68.64,20.33,100.29,3.5l146.69-78c31.66-16.83,51.93-49.27,53.18-85.1
			l5.8-166.03c1.25-35.83-16.71-69.61-47.11-88.61l-140.89-88.04c-30.4-19-68.64-20.33-100.29-3.5L495.3,207.63L495.3,207.63z"/>
	</g>
	<g>
		
			<linearGradient id="SVGID_00000023975912732585603720000010812759776261246866_" gradientUnits="userSpaceOnUse" x1="247.3851" y1="322.5745" x2="907.0233" y2="322.5745" gradientTransform="matrix(0.761 -0.3388 0.3388 0.761 134.7896 334.363)">
			<stop  offset="0" style="stop-color:#FFFFFF"/>
			<stop  offset="0.4606" style="stop-color:#005A96"/>
			<stop  offset="1" style="stop-color:#DF00E4"/>
		</linearGradient>
		<path style="fill:url(#SVGID_00000023975912732585603720000010812759776261246866_);" d="M502.66,189.09l0.87,1.96L660,121.38
			c16.22-7.22,34.14-10.06,51.8-8.2c17.66,1.86,34.59,8.36,48.96,18.79l138.56,100.67c14.37,10.44,25.78,24.53,33,40.76
			c7.22,16.22,10.06,34.14,8.2,51.8l-17.9,170.34c-1.86,17.66-8.36,34.59-18.79,48.96c-10.44,14.37-24.53,25.78-40.76,33
			l-156.47,69.66c-16.22,7.22-34.14,10.06-51.8,8.2c-17.66-1.86-34.59-8.36-48.96-18.79L467.29,535.9
			c-14.37-10.44-25.78-24.53-33-40.76c-7.22-16.22-10.06-34.14-8.2-51.8l17.9-170.34c1.86-17.66,8.36-34.59,18.79-48.96
			c10.44-14.37,24.53-25.78,40.76-33L502.66,189.09 M502.66,189.09c-33.77,15.03-56.95,46.94-60.81,83.7l-17.9,170.34
			c-3.86,36.76,12.18,72.79,42.08,94.51L604.59,638.3c29.9,21.73,69.12,25.85,102.89,10.81l156.47-69.66
			c33.77-15.03,56.95-46.94,60.81-83.7l17.9-170.34c3.86-36.76-12.18-72.79-42.08-94.51L762.02,130.24
			c-29.9-21.73-69.12-25.85-102.89-10.81L502.66,189.09L502.66,189.09z"/>
	</g>
	<g>
		
			<linearGradient id="SVGID_00000168113780774484134780000010940954962596142224_" gradientUnits="userSpaceOnUse" x1="264.4372" y1="336.7925" x2="924.0753" y2="336.7925" gradientTransform="matrix(0.8069 -0.2937 0.2937 0.8069 104.8558 287.0339)">
			<stop  offset="0" style="stop-color:#FFFFFF"/>
			<stop  offset="0.4606" style="stop-color:#005A96"/>
			<stop  offset="1" style="stop-color:#DF00E4"/>
		</linearGradient>
		<path style="fill:url(#SVGID_00000168113780774484134780000010940954962596142224_);" d="M511.57,170.55l0.76,2.08l165.92-60.39
			c17.2-6.26,35.83-7.89,53.86-4.71c18.03,3.18,34.98,11.08,49,22.85l135.26,113.5c14.03,11.77,24.75,27.08,31.01,44.29
			c6.26,17.2,7.89,35.83,4.71,53.86l-30.66,173.89c-3.18,18.03-11.08,34.98-22.85,49c-11.77,14.03-27.08,24.75-44.29,31.01
			l-165.92,60.39c-17.2,6.26-35.83,7.89-53.86,4.71s-34.98-11.08-49-22.85l-135.26-113.5c-14.03-11.77-24.75-27.08-31.01-44.29
			c-6.26-17.2-7.89-35.83-4.71-53.86l30.66-173.89c3.18-18.03,11.08-34.98,22.85-49c11.77-14.03,27.08-24.75,44.29-31.01
			L511.57,170.55 M511.57,170.55c-35.81,13.03-61.94,44.18-68.56,81.7l-30.66,173.89c-6.62,37.53,7.29,75.73,36.48,100.22
			l135.26,113.5c29.19,24.49,69.23,31.55,105.04,18.52l165.92-60.39c35.81-13.03,61.94-44.18,68.56-81.7l30.66-173.89
			c6.62-37.53-7.29-75.73-36.48-100.22l-135.26-113.5c-29.19-24.49-69.23-31.55-105.04-18.52L511.57,170.55L511.57,170.55z"/>
	</g>
	<g>
		
			<linearGradient id="SVGID_00000164489604940744332100000006268343381670321042_" gradientUnits="userSpaceOnUse" x1="281.8994" y1="349.3965" x2="941.5376" y2="349.3965" gradientTransform="matrix(0.851 -0.244 0.244 0.851 77.475 236.2072)">
			<stop  offset="0" style="stop-color:#FFFFFF"/>
			<stop  offset="0.4606" style="stop-color:#005A96"/>
			<stop  offset="1" style="stop-color:#DF00E4"/>
		</linearGradient>
		<path style="fill:url(#SVGID_00000164489604940744332100000006268343381670321042_);" d="M522.06,152.13l0.63,2.19l174.98-50.17
			c18.14-5.2,37.42-5.54,55.73-0.97c18.31,4.57,35.17,13.91,48.75,27.02l130.94,126.45c13.58,13.11,23.5,29.63,28.71,47.78
			s5.54,37.42,0.97,55.73l-44.04,176.62c-4.57,18.31-13.91,35.17-27.02,48.75c-13.11,13.58-29.63,23.5-47.78,28.71L668.95,664.4
			c-18.14,5.2-37.42,5.54-55.73,0.97c-18.31-4.57-35.17-13.91-48.75-27.02L433.53,511.9c-13.58-13.11-23.5-29.63-28.71-47.78
			c-5.2-18.14-5.54-37.42-0.97-55.73l44.04-176.62c4.57-18.31,13.91-35.17,27.02-48.75c13.11-13.58,29.63-23.5,47.78-28.71
			L522.06,152.13 M522.06,152.13c-37.76,10.83-66.88,40.98-76.38,79.1l-44.04,176.62c-9.5,38.12,2.05,78.41,30.31,105.7
			l130.94,126.45c28.26,27.29,68.93,37.43,106.69,26.6l174.98-50.17c37.76-10.83,66.88-40.98,76.38-79.09l44.04-176.62
			c9.5-38.12-2.05-78.41-30.31-105.7L803.72,128.55c-28.26-27.29-68.93-37.43-106.69-26.6L522.06,152.13L522.06,152.13z"/>
	</g>
	<g>
		
			<linearGradient id="SVGID_00000129924880597262634970000008402983158604719795_" gradientUnits="userSpaceOnUse" x1="299.6493" y1="360.4111" x2="959.2875" y2="360.4111" gradientTransform="matrix(0.8927 -0.1898 0.1898 0.8927 52.9713 181.9672)">
			<stop  offset="0" style="stop-color:#FFFFFF"/>
			<stop  offset="0.4606" style="stop-color:#005A96"/>
			<stop  offset="1" style="stop-color:#DF00E4"/>
		</linearGradient>
		<path style="fill:url(#SVGID_00000129924880597262634970000008402983158604719795_);" d="M534.17,133.93l0.49,2.3l183.56-39.02
			c19.03-4.05,38.88-3.01,57.38,3.01c18.51,6.01,35.17,16.84,48.19,31.3l125.57,139.46c13.02,14.46,22.04,32.17,26.09,51.2
			s3.01,38.88-3.01,57.38l-57.99,178.48c-6.01,18.51-16.84,35.17-31.3,48.19c-14.46,13.02-32.17,22.04-51.2,26.09L648.4,671.33
			c-19.03,4.05-38.88,3.01-57.38-3.01c-18.51-6.01-35.17-16.84-48.19-31.3L417.25,497.57c-13.02-14.46-22.04-32.17-26.09-51.2
			s-3.01-38.88,3.01-57.38l57.99-178.48c6.01-18.51,16.84-35.17,31.3-48.19c14.46-13.02,32.17-22.04,51.2-26.09L534.17,133.93
			 M534.17,133.93c-39.61,8.42-71.73,37.33-84.24,75.85l-57.99,178.48c-12.51,38.52-3.53,80.78,23.57,110.88L541.08,638.6
			c27.1,30.1,68.19,43.45,107.81,35.03l183.56-39.02c39.61-8.42,71.73-37.33,84.24-75.85l57.99-178.48
			c12.51-38.52,3.53-80.78-23.57-110.88L825.54,129.95c-27.1-30.1-68.19-43.45-107.81-35.03L534.17,133.93L534.17,133.93z"/>
	</g>
	<g>
		
			<linearGradient id="SVGID_00000065074246978650115880000014297843873039526839_" gradientUnits="userSpaceOnUse" x1="317.5701" y1="369.8683" x2="977.2083" y2="369.8683" gradientTransform="matrix(0.9317 -0.1309 0.1309 0.9317 31.6719 124.4237)">
			<stop  offset="0" style="stop-color:#FFFFFF"/>
			<stop  offset="0.4606" style="stop-color:#005A96"/>
			<stop  offset="1" style="stop-color:#DF00E4"/>
		</linearGradient>
		<path style="fill:url(#SVGID_00000065074246978650115880000014297843873039526839_);" d="M547.93,116.09l0.34,2.4l191.58-26.93
			c19.87-2.79,40.2-0.3,58.8,7.22c18.6,7.51,34.96,19.84,47.31,35.65l119.11,152.45c12.35,15.81,20.35,34.66,23.15,54.53
			c2.79,19.87,0.3,40.2-7.22,58.8L908.52,579.6c-7.51,18.6-19.84,34.96-35.65,47.31c-15.81,12.35-34.66,20.35-54.53,23.15
			l-191.58,26.93c-19.87,2.79-40.2,0.3-58.8-7.22c-18.6-7.52-34.96-19.84-47.31-35.65L401.54,481.65
			c-12.35-15.81-20.35-34.66-23.15-54.53s-0.3-40.2,7.22-58.8l72.47-179.38c7.51-18.6,19.84-34.96,35.65-47.31
			c15.81-12.35,34.66-20.35,54.53-23.15L547.93,116.09 M547.93,116.09c-41.34,5.81-76.45,33.24-92.09,71.95l-72.47,179.38
			c-15.64,38.71-9.44,82.82,16.26,115.72L518.74,635.6c25.7,32.9,67.01,49.59,108.35,43.78l191.58-26.93
			c41.34-5.81,76.45-33.24,92.09-71.95l72.47-179.38c15.64-38.71,9.44-82.82-16.26-115.72L847.87,132.95
			c-25.7-32.9-67.01-49.59-108.35-43.78L547.93,116.09L547.93,116.09z"/>
	</g>
	<g>
		
			<linearGradient id="SVGID_00000017504818375985704770000007927816544105048720_" gradientUnits="userSpaceOnUse" x1="335.5508" y1="377.8067" x2="995.189" y2="377.8067" gradientTransform="matrix(0.9676 -0.0677 0.0677 0.9676 13.9054 63.7133)">
			<stop  offset="0" style="stop-color:#FFFFFF"/>
			<stop  offset="0.4606" style="stop-color:#005A96"/>
			<stop  offset="1" style="stop-color:#DF00E4"/>
		</linearGradient>
		<path style="fill:url(#SVGID_00000017504818375985704770000007927816544105048720_);" d="M563.37,98.74l0.17,2.49l198.96-13.91
			c20.63-1.44,41.36,2.59,59.95,11.65c18.59,9.07,34.53,22.92,46.09,40.07l111.53,165.35c11.56,17.15,18.44,37.11,19.88,57.74
			c1.44,20.63-2.59,41.36-11.65,59.95l-87.43,179.26c-9.07,18.59-22.92,34.53-40.07,46.09c-17.15,11.56-37.11,18.44-57.74,19.88
			L604.1,681.23c-20.63,1.44-41.36-2.59-59.95-11.65c-18.59-9.07-34.53-22.92-46.09-40.07L386.53,464.16
			c-11.56-17.15-18.44-37.11-19.88-57.74s2.59-41.36,11.65-59.95l87.43-179.26c9.07-18.59,22.92-34.53,40.07-46.09
			c17.15-11.56,37.11-18.44,57.74-19.88L563.37,98.74 M563.37,98.74c-42.94,3-81.01,28.68-99.88,67.37l-87.43,179.26
			c-18.87,38.69-15.66,84.5,8.4,120.18L495.99,630.9c24.07,35.68,65.35,55.82,108.28,52.81l198.96-13.91
			c42.94-3,81.01-28.68,99.88-67.37l87.43-179.26c18.87-38.69,15.66-84.5-8.4-120.18L870.62,137.64
			c-24.07-35.68-65.35-55.82-108.28-52.81L563.37,98.74L563.37,98.74z"/>
	</g>
	<g>
		
			<linearGradient id="SVGID_00000096016917407572143270000006418250352850472113_" gradientUnits="userSpaceOnUse" x1="353.4868" y1="384.2716" x2="1013.125" y2="384.2716">
			<stop  offset="0" style="stop-color:#FFFFFF"/>
			<stop  offset="0.4606" style="stop-color:#005A96"/>
			<stop  offset="1" style="stop-color:#DF00E4"/>
		</linearGradient>
		<path style="fill:url(#SVGID_00000096016917407572143270000006418250352850472113_);" d="M580.5,82v2.57l205.62,0
			c21.32,0,42.35,5.63,60.82,16.3c18.46,10.66,33.86,26.06,44.52,44.52l102.81,178.07c10.66,18.46,16.3,39.49,16.3,60.82
			c0,21.32-5.63,42.35-16.3,60.82L891.45,623.16c-10.66,18.46-26.06,33.86-44.52,44.52c-18.46,10.66-39.49,16.3-60.82,16.3
			l-205.62,0c-21.32,0-42.35-5.63-60.82-16.3c-18.46-10.66-33.86-26.06-44.52-44.52L372.35,445.09
			c-10.66-18.46-16.3-39.49-16.3-60.82c0-21.32,5.63-42.35,16.3-60.82l102.81-178.07c10.66-18.46,26.06-33.86,44.52-44.52
			c18.46-10.66,39.49-16.3,60.82-16.3V82 M580.5,82c-44.37,0-85.38,23.67-107.56,62.1L370.13,322.17
			c-22.19,38.43-22.19,85.77,0,124.2l102.81,178.07c22.19,38.43,63.19,62.1,107.56,62.1l205.62,0c44.37,0,85.38-23.67,107.56-62.1
			l102.81-178.07c22.19-38.43,22.19-85.77,0-124.2L893.68,144.1C871.49,105.67,830.49,82,786.11,82L580.5,82L580.5,82z"/>
	</g>
</g>
</svg>
