<?xml version="1.0" encoding="utf-8"?>
<!-- Generator: Adobe Illustrator 28.0.0, SVG Export Plug-In . SVG Version: 6.00 Build 0)  -->
<svg version="1.1" id="图层_1" xmlns="http://www.w3.org/2000/svg" xmlns:xlink="http://www.w3.org/1999/xlink" x="0px" y="0px"
	 viewBox="0 0 1366 768" style="enable-background:new 0 0 1366 768;" xml:space="preserve">
<style type="text/css">
	.st0{fill:url(#SVGID_1_);}
	.st1{opacity:0.4;fill:url(#SVGID_00000029003745437890623400000014510318060575879862_);}
	.st2{opacity:0.4;fill:url(#SVGID_00000147903738369671306460000007154725315896406191_);}
	.st3{fill:#FFFFFF;}
	.st4{fill:url(#SVGID_00000028293527505658505180000013889680871249021116_);}
	.st5{fill:url(#SVGID_00000163068855098608987290000016264034974655356835_);}
	.st6{fill:url(#SVGID_00000153704791370992442740000015488979536945886114_);}
	.st7{opacity:0.49;}
	.st8{opacity:0.65;}
</style>
<g>
	<linearGradient id="SVGID_1_" gradientUnits="userSpaceOnUse" x1="683" y1="767.5" x2="683" y2="0.5">
		<stop  offset="0" style="stop-color:#FF7BAC"/>
		<stop  offset="1" style="stop-color:#FF9976"/>
	</linearGradient>
	<rect x="0.5" y="0.5" class="st0" width="1365" height="767"/>
	<path d="M1365,1v766H1V1H1365 M1366,0H0v768h1366V0L1366,0z"/>
</g>
<g>
	
		<radialGradient id="SVGID_00000032640677882617055090000010567818945227991218_" cx="952" cy="205" r="144" gradientUnits="userSpaceOnUse">
		<stop  offset="0.5159" style="stop-color:#FFFFFF;stop-opacity:0"/>
		<stop  offset="1" style="stop-color:#FFFFFF"/>
	</radialGradient>
	<circle style="opacity:0.4;fill:url(#SVGID_00000032640677882617055090000010567818945227991218_);" cx="952" cy="205" r="144"/>
</g>
<g>
	
		<radialGradient id="SVGID_00000074425063886635894960000016000380656363924917_" cx="952" cy="205" r="117.6585" gradientUnits="userSpaceOnUse">
		<stop  offset="0.5159" style="stop-color:#FFFFFF;stop-opacity:0"/>
		<stop  offset="1" style="stop-color:#FFFFFF"/>
	</radialGradient>
	
		<circle style="opacity:0.4;fill:url(#SVGID_00000074425063886635894960000016000380656363924917_);" cx="952" cy="205" r="117.66"/>
</g>
<g>
	<circle class="st3" cx="952" cy="205" r="86.63"/>
</g>
<linearGradient id="SVGID_00000126284557097885331660000008349100068765301122_" gradientUnits="userSpaceOnUse" x1="541.5" y1="574" x2="541.5" y2="100">
	<stop  offset="0" style="stop-color:#FF7BAB"/>
	<stop  offset="0.2583" style="stop-color:#FF7FA5"/>
	<stop  offset="0.6105" style="stop-color:#FF8893"/>
	<stop  offset="1" style="stop-color:#FF9878"/>
</linearGradient>
<ellipse style="fill:url(#SVGID_00000126284557097885331660000008349100068765301122_);" cx="541.5" cy="337" rx="374.5" ry="237"/>
<linearGradient id="SVGID_00000125580486885852686040000001914775975940542119_" gradientUnits="userSpaceOnUse" x1="346" y1="768" x2="346" y2="337">
	<stop  offset="0" style="stop-color:#FF7BAB"/>
	<stop  offset="0.2583" style="stop-color:#FF7FA5"/>
	<stop  offset="0.6105" style="stop-color:#FF8893"/>
	<stop  offset="1" style="stop-color:#FF9878"/>
</linearGradient>
<path style="fill:url(#SVGID_00000125580486885852686040000001914775975940542119_);" d="M650.29,768
	C676.99,728.19,692,683.38,692,636c0-165.13-182.22-299-407-299c-110.98,0-211.58,32.63-285,85.55V768H650.29z"/>
<linearGradient id="SVGID_00000158742353715384528190000002872436160236667536_" gradientUnits="userSpaceOnUse" x1="915.5" y1="768" x2="915.5" y2="261">
	<stop  offset="0" style="stop-color:#FF7BAB"/>
	<stop  offset="0.2583" style="stop-color:#FF7FA5"/>
	<stop  offset="0.6105" style="stop-color:#FF8893"/>
	<stop  offset="1" style="stop-color:#FF9878"/>
</linearGradient>
<path style="fill:url(#SVGID_00000158742353715384528190000002872436160236667536_);" d="M704.14,768h422.71
	C1251.36,720.82,1335,633.25,1335,533c0-150.22-187.82-272-419.5-272S496,382.78,496,533C496,633.25,579.64,720.82,704.14,768z"/>
<g class="st7">
	<polygon class="st3" points="256.4,225 218.81,261.94 294,261.94 	"/>
	<polygon class="st3" points="256.4,243.47 218.81,280.42 294,280.42 	"/>
	<polygon class="st3" points="256.4,265.18 218.81,302.12 294,302.12 	"/>
	<rect x="251.25" y="291.04" class="st3" width="10.3" height="72.96"/>
</g>
<g class="st7">
	<polygon class="st3" points="256.4,225 218.81,261.94 294,261.94 	"/>
	<polygon class="st3" points="256.4,243.47 218.81,280.42 294,280.42 	"/>
	<polygon class="st3" points="256.4,265.18 218.81,302.12 294,302.12 	"/>
	<rect x="251.25" y="291.04" class="st3" width="10.3" height="72.96"/>
</g>
<g class="st7">
	<polygon class="st3" points="764,247 741,269.86 787,269.86 	"/>
	<polygon class="st3" points="764,258.43 741,281.29 787,281.29 	"/>
	<polygon class="st3" points="764,271.86 741,294.71 787,294.71 	"/>
	<rect x="760.85" y="287.86" class="st3" width="6.3" height="45.14"/>
</g>
<g class="st7">
	<polygon class="st3" points="1150.5,269 1136,282.82 1165,282.82 	"/>
	<polygon class="st3" points="1150.5,275.91 1136,289.73 1165,289.73 	"/>
	<polygon class="st3" points="1150.5,284.03 1136,297.85 1165,297.85 	"/>
	<rect x="1148.51" y="293.7" class="st3" width="3.97" height="27.3"/>
</g>
<g class="st7">
	<polygon class="st3" points="808.5,272 791,288.74 826,288.74 	"/>
	<polygon class="st3" points="808.5,280.37 791,297.12 826,297.12 	"/>
	<polygon class="st3" points="808.5,290.21 791,306.95 826,306.95 	"/>
	<rect x="806.1" y="301.93" class="st3" width="4.79" height="33.07"/>
</g>
<g class="st7">
	<polygon class="st3" points="177.63,273 146.25,303.83 209,303.83 	"/>
	<polygon class="st3" points="177.63,288.42 146.25,319.25 209,319.25 	"/>
	<polygon class="st3" points="177.63,306.53 146.25,337.36 209,337.36 	"/>
	<rect x="173.33" y="328.11" class="st3" width="8.6" height="60.89"/>
</g>
<g class="st8">
	<polygon class="st3" points="332.9,290 302.81,321.1 363,321.1 	"/>
	<polygon class="st3" points="332.9,305.55 302.81,336.64 363,336.64 	"/>
	<polygon class="st3" points="332.9,323.82 302.81,354.91 363,354.91 	"/>
	<rect x="328.78" y="345.58" class="st3" width="8.25" height="61.42"/>
</g>
</svg>
